<svg id="Layer_1" data-name="Layer 1" xmlns="http://www.w3.org/2000/svg" xmlns:xlink="http://www.w3.org/1999/xlink" viewBox="0 0 1609.29 792.57"><defs><style>.cls-1,.cls-13,.cls-2,.cls-3{fill:none;}.cls-13,.cls-14,.cls-2,.cls-3{stroke:#fff;stroke-miterlimit:10;}.cls-2,.cls-3{stroke-width:2px;}.cls-3{stroke-dasharray:11.98 11.98;}.cls-4{fill:#2f005c;}.cls-14,.cls-31,.cls-5,.cls-80{fill:#fff;}.cls-6{clip-path:url(#clip-path);}.cls-7{clip-path:url(#clip-path-3);}.cls-8{clip-path:url(#clip-path-6);}.cls-9{clip-path:url(#clip-path-8);}.cls-10{clip-path:url(#clip-path-10);}.cls-11{clip-path:url(#clip-path-11);}.cls-12{clip-path:url(#clip-path-12);}.cls-13{stroke-width:3px;}.cls-14{stroke-width:0.5px;}.cls-15{font-size:26px;fill:#fff;}.cls-15,.cls-80{font-family:AdobeClean-Regular, Adobe Clean;}.cls-16{letter-spacing:0.01em;}.cls-17{letter-spacing:0em;}.cls-18{letter-spacing:0em;}.cls-19{letter-spacing:0.01em;}.cls-20{letter-spacing:-0.01em;}.cls-21{letter-spacing:0.01em;}.cls-22{letter-spacing:0.05em;}.cls-23{letter-spacing:0.01em;}.cls-24{letter-spacing:0.02em;}.cls-25{letter-spacing:-0.01em;}.cls-26{letter-spacing:0em;}.cls-27{letter-spacing:-0.03em;}.cls-28{letter-spacing:0em;}.cls-29{letter-spacing:0.01em;}.cls-30{letter-spacing:0.03em;}.cls-31{font-size:24px;font-family:AdobeClean-Light, Adobe Clean;font-weight:300;}.cls-32{letter-spacing:0em;}.cls-33{letter-spacing:0.01em;}.cls-34{letter-spacing:0em;}.cls-35{letter-spacing:0.01em;}.cls-36{letter-spacing:0.01em;}.cls-37{letter-spacing:0.02em;}.cls-38{letter-spacing:0em;}.cls-39{letter-spacing:0em;}.cls-40{letter-spacing:0em;}.cls-41{letter-spacing:0.01em;}.cls-42{letter-spacing:0.01em;}.cls-43{letter-spacing:0.01em;}.cls-44{letter-spacing:-0.01em;}.cls-45{letter-spacing:0.01em;}.cls-46{letter-spacing:0em;}.cls-47{letter-spacing:0.01em;}.cls-48{letter-spacing:0.01em;}.cls-49{letter-spacing:0em;}.cls-50{letter-spacing:-0.02em;}.cls-51{letter-spacing:-0.02em;}.cls-52{letter-spacing:-0.01em;}.cls-53{letter-spacing:0.03em;}.cls-54{letter-spacing:-0.01em;}.cls-55{letter-spacing:0.01em;}.cls-56{letter-spacing:0.01em;}.cls-57{letter-spacing:0.02em;}.cls-58{letter-spacing:0em;}.cls-59{letter-spacing:0em;}.cls-60{letter-spacing:0.03em;}.cls-61{letter-spacing:0.01em;}.cls-62{letter-spacing:0.02em;}.cls-63{letter-spacing:0.01em;}.cls-64{letter-spacing:0.01em;}.cls-65{letter-spacing:0.03em;}.cls-66{letter-spacing:0.01em;}.cls-67{letter-spacing:0.02em;}.cls-68{letter-spacing:0em;}.cls-69{letter-spacing:-0.01em;}.cls-70{letter-spacing:0em;}.cls-71{letter-spacing:0.05em;}.cls-72{letter-spacing:-0.04em;}.cls-73{letter-spacing:0.01em;}.cls-74{letter-spacing:-0.01em;}.cls-75{letter-spacing:-0.01em;}.cls-76{letter-spacing:0.03em;}.cls-77{letter-spacing:0em;}.cls-78{letter-spacing:-0.01em;}.cls-79{letter-spacing:0.05em;}.cls-80{font-size:12px;}.cls-81{letter-spacing:0.01em;}.cls-82{letter-spacing:-0.02em;}.cls-83{letter-spacing:0.02em;}.cls-84{letter-spacing:0.01em;}.cls-85{letter-spacing:0.02em;}.cls-86{letter-spacing:0.02em;}.cls-87{letter-spacing:0.01em;}.cls-88{letter-spacing:0.05em;}.cls-89{letter-spacing:-0.04em;}.cls-90{letter-spacing:0.01em;}.cls-91{letter-spacing:0.02em;}.cls-92{letter-spacing:-0.01em;}.cls-93{letter-spacing:0em;}.cls-94{letter-spacing:0.01em;}.cls-95{letter-spacing:0.02em;}.cls-96{letter-spacing:0.01em;}.cls-97{letter-spacing:0em;}.cls-98{letter-spacing:0.01em;}</style><clipPath id="clip-path"><rect class="cls-1" x="55.5" y="252.13" width="53" height="52.75"/></clipPath><clipPath id="clip-path-3"><rect class="cls-1" x="352.7" y="251.5" width="35" height="54"/></clipPath><clipPath id="clip-path-6"><rect class="cls-1" x="636.19" y="256.46" width="44.42" height="44.08"/></clipPath><clipPath id="clip-path-8"><rect class="cls-1" x="920.1" y="252" width="53" height="53"/></clipPath><clipPath id="clip-path-10"><rect class="cls-1" x="1499.67" y="261.07" width="46.66" height="34.85"/></clipPath><clipPath id="clip-path-11"><rect class="cls-1" x="1499.67" y="261.07" width="46.66" height="34.86"/></clipPath><clipPath id="clip-path-12"><rect class="cls-1" x="1208.3" y="254.97" width="53" height="47.06"/></clipPath></defs><title>DRL-1</title><line class="cls-2" x1="80.5" y1="279.17" x2="86.5" y2="279.17"/><line class="cls-3" x1="98.48" y1="279.17" x2="1506.51" y2="279.17"/><line class="cls-2" x1="1512.5" y1="279.17" x2="1518.5" y2="279.17"/><ellipse class="cls-4" cx="82" cy="278.5" rx="80" ry="80.5"/><path class="cls-5" d="M82,200c43.08,0,78,35.15,78,78.5S125.08,357,82,357,4,321.86,4,278.5,38.92,200,82,200m0-4c-45.21,0-82,37-82,82.5S36.79,361,82,361s82-37,82-82.5S127.21,196,82,196Z"/><g class="cls-6"><g class="cls-6"><path class="cls-5" d="M100.34,262.16c-1.77-5.87-8.48-10-16.42-10-7.78,0-14.37,4-16.3,9.66a11.11,11.11,0,1,0-1,22.18,10.47,10.47,0,0,0,2.53-.33,17.6,17.6,0,0,0,4,2.17c0,.17,0,.34,0,.51A7,7,0,0,0,87,287.66a24,24,0,0,0,11.37-3.76,11.09,11.09,0,0,0,2-21.74M80.08,290.84a4.53,4.53,0,0,1-4.49-4.15c0-.13,0-.24,0-.37a4.47,4.47,0,0,1,.77-2.53,4.51,4.51,0,0,1,8,1,4.45,4.45,0,0,1,.28,1.51,4.38,4.38,0,0,1-.28,1.49,4.49,4.49,0,0,1-4.24,3m17.66-9.91-.83.3a20.75,20.75,0,0,1-10,3.42A7,7,0,0,0,74,282.93a13.9,13.9,0,0,1-3.53-2.09L69,280.56a8,8,0,0,1-2.41.41,8.12,8.12,0,1,1,1.77-16l1.8-1.17c1-4.94,6.86-8.65,13.73-8.65s12.73,3.69,13.72,8.58l1.2,1.18a8.09,8.09,0,0,1-1.1,16"/><path class="cls-5" d="M71.42,292.76a6.06,6.06,0,1,0,6.06,6.06,6.06,6.06,0,0,0-6.06-6.06m-3.55,6.06a3.56,3.56,0,1,1,3.55,3.56,3.56,3.56,0,0,1-3.55-3.56"/></g></g><ellipse class="cls-4" cx="370.2" cy="278.5" rx="80" ry="80.5"/><path class="cls-5" d="M370.2,200c43.08,0,78,35.15,78,78.5s-34.92,78.5-78,78.5-78-35.14-78-78.5,34.92-78.5,78-78.5m0-4c-45.21,0-82,37-82,82.5S325,361,370.2,361s82-37,82-82.5-36.79-82.5-82-82.5Z"/><g class="cls-7"><g class="cls-7"><g class="cls-7"><path class="cls-5" d="M360.2,270.5a1.5,1.5,0,0,1-1.5-1.5,11.51,11.51,0,0,1,11.5-11.5,1.5,1.5,0,1,1,0,3,8.51,8.51,0,0,0-8.5,8.5,1.5,1.5,0,0,1-1.5,1.5"/><path class="cls-5" d="M370.2,305.5a9.53,9.53,0,0,1-9.5-9.54v-8.09a9,9,0,0,0-2.81-6.31,17.5,17.5,0,1,1,24.62,0,9,9,0,0,0-2.81,6.31V296a9.53,9.53,0,0,1-9.5,9.54m0-51A14.58,14.58,0,0,0,360,279.43a11.93,11.93,0,0,1,3.69,8.44V296a6.5,6.5,0,1,0,13,0v-8.09a11.9,11.9,0,0,1,3.7-8.44,14.59,14.59,0,0,0-10.2-24.93"/><path class="cls-5" d="M378.2,290.5h-16a1.5,1.5,0,0,1,0-3h16a1.5,1.5,0,1,1,0,3"/><path class="cls-5" d="M371,296.5h-8a1.5,1.5,0,0,1,0-3h8a1.5,1.5,0,1,1,0,3"/></g></g></g><ellipse class="cls-4" cx="658.4" cy="278.5" rx="80" ry="80.5"/><path class="cls-5" d="M658.4,200c43.08,0,78,35.15,78,78.5s-34.92,78.5-78,78.5-78-35.14-78-78.5,34.92-78.5,78-78.5m0-4c-45.21,0-82,37-82,82.5s36.79,82.5,82,82.5,82-37,82-82.5-36.79-82.5-82-82.5Z"/><g class="cls-8"><g class="cls-8"><path class="cls-5" d="M640.24,286l-4,12.45a1.61,1.61,0,0,0,1.52,2.1,1.59,1.59,0,0,0,.48-.07l11.87-3.65,21.93-21.7-10.48-10.48Zm27.58-10.88-19.26,19.06-8.62,2.65,2.94-9.23,18.71-18.71Z"/><path class="cls-5" d="M680.12,265l-8-8a1.71,1.71,0,0,0-1.2-.49h0a1.93,1.93,0,0,0-1.29.56l-5.69,5.71,10.47,10.47,5.7-5.7a1.87,1.87,0,0,0,.55-1.22,1.7,1.7,0,0,0-.48-1.32"/></g></g><ellipse class="cls-4" cx="946.6" cy="278.5" rx="80" ry="80.5"/><path class="cls-5" d="M946.6,200c43.08,0,78,35.15,78,78.5s-34.92,78.5-78,78.5-78-35.14-78-78.5,34.92-78.5,78-78.5m0-4c-45.21,0-82,37-82,82.5s36.79,82.5,82,82.5,82-37,82-82.5-36.79-82.5-82-82.5Z"/><g class="cls-9"><g class="cls-9"><path class="cls-5" d="M946.6,270.5a8,8,0,1,0,8,8,8,8,0,0,0-8-8m0,13a5,5,0,1,1,5-5,5,5,0,0,1-5,5"/><path class="cls-5" d="M971.6,277h-5.7a19.23,19.23,0,0,0-1-4.7l5.24-2.24A1.5,1.5,0,1,0,969,267.3l-5.24,2.24a19.41,19.41,0,0,0-2.46-3.62l4-4a1.5,1.5,0,0,0-2.12-2.13l-4,4a18.93,18.93,0,0,0-4-2.64l2.13-5.3a1.5,1.5,0,0,0-2.79-1.12L952.4,260a19.12,19.12,0,0,0-4.3-.81V253.5a1.5,1.5,0,1,0-3,0v5.71a19,19,0,0,0-4.71,1l-2.24-5.24a1.5,1.5,0,1,0-2.76,1.18l2.24,5.24A19,19,0,0,0,934,263.8l-4-4a1.5,1.5,0,0,0-2.12,2.13l4,4a19.63,19.63,0,0,0-2.65,4L924,267.8a1.5,1.5,0,0,0-1.11,2.79l5.28,2.11a19.24,19.24,0,0,0-.82,4.3h-5.7a1.5,1.5,0,1,0,0,3h5.7a19.32,19.32,0,0,0,1,4.71L923,287a1.5,1.5,0,0,0,1.18,2.76l5.24-2.24a19.41,19.41,0,0,0,2.46,3.62l-4,4a1.5,1.5,0,1,0,2.12,2.12l4-4a19.32,19.32,0,0,0,4,2.64l-2.13,5.3a1.5,1.5,0,0,0,.84,2,1.54,1.54,0,0,0,.55.11,1.51,1.51,0,0,0,1.4-.95L940.8,297a19.12,19.12,0,0,0,4.3.81v5.7a1.5,1.5,0,0,0,3,0v-5.7a18.86,18.86,0,0,0,4.71-1l2.24,5.24a1.5,1.5,0,0,0,1.38.91,1.59,1.59,0,0,0,.59-.12,1.51,1.51,0,0,0,.79-2l-2.24-5.24a19.44,19.44,0,0,0,3.61-2.45l4,4a1.49,1.49,0,0,0,1.06.44,1.53,1.53,0,0,0,1.06-.44,1.51,1.51,0,0,0,0-2.12l-4-4a19.91,19.91,0,0,0,2.65-4l5.29,2.12a1.64,1.64,0,0,0,.56.11,1.5,1.5,0,0,0,.56-2.89l-5.27-2.12a19.58,19.58,0,0,0,.81-4.3h5.7a1.5,1.5,0,0,0,0-3m-25,17.88A16.38,16.38,0,1,1,963,278.5a16.39,16.39,0,0,1-16.37,16.38"/></g></g><ellipse class="cls-4" cx="1523" cy="278.5" rx="80" ry="80.5"/><path class="cls-5" d="M1523,200c43.08,0,78,35.15,78,78.5s-34.92,78.5-78,78.5-78-35.14-78-78.5,34.92-78.5,78-78.5m0-4c-45.21,0-82,37-82,82.5s36.79,82.5,82,82.5,82-37,82-82.5-36.79-82.5-82-82.5Z"/><g class="cls-10"><g class="cls-11"><path class="cls-5" d="M1515.47,295.93a4,4,0,0,1-2.83-1.17l-11.8-11.8a4,4,0,0,1,5.66-5.66l9,9,24-24a4,4,0,0,1,5.66,5.65l-26.86,26.86a4,4,0,0,1-2.83,1.17"/></g></g><ellipse class="cls-4" cx="1234.8" cy="278.5" rx="80" ry="80.5"/><path class="cls-5" d="M1234.8,200c43.08,0,78,35.15,78,78.5s-34.92,78.5-78,78.5-78-35.14-78-78.5,34.92-78.5,78-78.5m0-4c-45.21,0-82,37-82,82.5s36.79,82.5,82,82.5,82-37,82-82.5S1280,196,1234.8,196Z"/><g class="cls-12"><path class="cls-5" d="M1211.3,258h16.11v16.11H1211.3Zm-3,19.11h22.11V255H1208.3Z"/><path class="cls-5" d="M1242.19,282.92h16.11V299h-16.11Zm-3,19.11h22.11V279.92h-22.11Z"/></g><g class="cls-12"><g class="cls-12"><path class="cls-5" d="M1220.85,279.58a1.5,1.5,0,1,0-3,0v.5a1.5,1.5,0,0,0,3,0Z"/><path class="cls-5" d="M1219.35,283.38a1.5,1.5,0,0,0-1.5,1.5v.8a1.5,1.5,0,1,0,3,0v-.8a1.5,1.5,0,0,0-1.5-1.5"/><path class="cls-5" d="M1219.35,289a1.5,1.5,0,0,0-1.5,1.5v.5a1.51,1.51,0,0,0,1.5,1.5h.5a1.5,1.5,0,0,0,1.5-1.5,1.48,1.48,0,0,0-.71-1.28,1.49,1.49,0,0,0-1.29-.72"/><path class="cls-5" d="M1231.29,289.48h-.82a1.5,1.5,0,0,0,0,3h.82a1.5,1.5,0,0,0,0-3"/><path class="cls-5" d="M1225.57,289.48h-.81a1.5,1.5,0,0,0,0,3h.81a1.5,1.5,0,0,0,0-3"/><path class="cls-5" d="M1236.69,289.48h-.5a1.5,1.5,0,0,0,0,3h.5a1.5,1.5,0,0,0,0-3"/></g></g><line class="cls-13" x1="81" y1="19.67" x2="81" y2="199.67"/><circle class="cls-14" cx="81" cy="16.17" r="7"/><line class="cls-13" x1="1523.5" y1="542.17" x2="1523.5" y2="362.17"/><circle class="cls-14" cx="1523.5" cy="540.62" r="7"/><line class="cls-13" x1="658.5" y1="17.67" x2="658.5" y2="197.67"/><circle class="cls-14" cx="658.5" cy="14.17" r="7"/><line class="cls-13" x1="947.5" y1="537.17" x2="947.5" y2="357.17"/><circle class="cls-14" cx="947.5" cy="540.62" r="7"/><line class="cls-13" x1="1234.5" y1="19.67" x2="1234.5" y2="199.67"/><circle class="cls-14" cx="1234.5" cy="16.17" r="7"/><line class="cls-13" x1="370.5" y1="537.17" x2="370.5" y2="357.17"/><circle class="cls-14" cx="370.5" cy="540.62" r="7"/><text class="cls-15" transform="translate(103.87 21.74) rotate(0.1)">L1: <tspan class="cls-16" x="32.68" y="0">B</tspan><tspan class="cls-17" x="47.47" y="0">asic </tspan><tspan class="cls-18" x="92.4" y="0">C</tspan><tspan x="106.62" y="0">once</tspan><tspan class="cls-19" x="157.69" y="0">p</tspan><tspan x="171.49" y="0">t</tspan></text><text class="cls-15" transform="translate(679.96 21.89)">L3: <tspan class="cls-20" x="36.94" y="0">P</tspan><tspan class="cls-21" x="50.73" y="0">r</tspan><tspan x="59.2" y="0">elimina</tspan><tspan class="cls-22" x="137.56" y="0">r</tspan><tspan x="147.13" y="0">y </tspan><tspan class="cls-23" x="165.07" y="0">D</tspan><tspan class="cls-24" x="182.18" y="0">e</tspan><tspan x="195.18" y="0">s</tspan><tspan class="cls-25" x="205" y="0">i</tspan><tspan class="cls-26" x="210.54" y="0">g</tspan><tspan x="223.39" y="0">n</tspan></text><text class="cls-15" transform="translate(1261.96 21.89)">L5: <tspan class="cls-27" x="36.84" y="0">W</tspan><tspan class="cls-28" x="58.32" y="0">o</tspan><tspan class="cls-29" x="72.02" y="0">r</tspan><tspan class="cls-30" x="80.6" y="0">k</tspan><tspan x="93.42" y="0">fl</tspan><tspan class="cls-29" x="106.57" y="0">o</tspan><tspan x="120.59" y="0">w </tspan><tspan class="cls-23" x="145.18" y="0">D</tspan><tspan class="cls-24" x="162.29" y="0">e</tspan><tspan x="175.29" y="0">s</tspan><tspan class="cls-25" x="185.12" y="0">i</tspan><tspan class="cls-26" x="190.65" y="0">g</tspan><tspan x="203.5" y="0">n</tspan></text><text class="cls-31" transform="translate(103.87 50.28)"><tspan class="cls-32">C</tspan><tspan x="13.06" y="0">ompl</tspan><tspan class="cls-33" x="62.35" y="0">e</tspan><tspan x="73.68" y="0">te wh</tspan><tspan class="cls-34" x="126" y="0">e</tspan><tspan x="137.16" y="0">n a </tspan><tspan class="cls-34" x="171.72" y="0">c</tspan><tspan x="181.6" y="0">on</tspan><tspan class="cls-35" x="206.35" y="0">c</tspan><tspan class="cls-16" x="216.38" y="0">i</tspan><tspan class="cls-36" x="221.51" y="0">s</tspan><tspan x="230.25" y="0">e </tspan><tspan x="0.01" y="28.8">d</tspan><tspan class="cls-37" x="12.16" y="28.8">e</tspan><tspan class="cls-36" x="23.77" y="28.8">s</tspan><tspan class="cls-34" x="32.51" y="28.8">c</tspan><tspan class="cls-38" x="42.39" y="28.8">r</tspan><tspan class="cls-39" x="49.43" y="28.8">i</tspan><tspan class="cls-38" x="54.3" y="28.8">p</tspan><tspan class="cls-35" x="66.56" y="28.8">t</tspan><tspan class="cls-40" x="73.28" y="28.8">ion of </tspan><tspan class="cls-41" x="131.84" y="28.8">t</tspan><tspan x="138.51" y="28.8">he </tspan><tspan class="cls-42" x="167.72" y="28.8">f</tspan><tspan class="cls-43" x="173.5" y="28.8">e</tspan><tspan class="cls-44" x="184.73" y="28.8">a</tspan><tspan x="195.37" y="28.8">tu</tspan><tspan class="cls-43" x="214.16" y="28.8">r</tspan><tspan x="221.21" y="28.8">e </tspan><tspan class="cls-45" x="237.92" y="28.8">i</tspan><tspan class="cls-39" x="243.05" y="28.8">s </tspan><tspan class="cls-46" x="0.02" y="57.6">w</tspan><tspan class="cls-47" x="16.73" y="57.6">r</tspan><tspan class="cls-48" x="23.76" y="57.6">i</tspan><tspan class="cls-40" x="28.77" y="57.6">tt</tspan><tspan class="cls-49" x="41.57" y="57.6">e</tspan><tspan x="52.73" y="57.6">n and </tspan><tspan class="cls-50" x="111.91" y="57.6">a</tspan><tspan class="cls-48" x="122.2" y="57.6">gr</tspan><tspan class="cls-16" x="140.64" y="57.6">ee</tspan><tspan x="163.34" y="57.6">d u</tspan><tspan class="cls-33" x="193.39" y="57.6">p</tspan><tspan x="205.77" y="57.6">o</tspan><tspan class="cls-34" x="218.03" y="57.6">n</tspan><tspan x="230.59" y="57.6">.</tspan></text><text class="cls-31" transform="translate(679.96 50.28)"><tspan class="cls-32">C</tspan><tspan x="13.06" y="0">ompl</tspan><tspan class="cls-33" x="62.35" y="0">e</tspan><tspan x="73.68" y="0">te wh</tspan><tspan class="cls-34" x="126" y="0">e</tspan><tspan x="137.16" y="0">n a </tspan><tspan class="cls-34" x="171.72" y="0">s</tspan><tspan x="180.36" y="0">i</tspan><tspan class="cls-51" x="185.23" y="0">n</tspan><tspan x="197.18" y="0">gle </tspan><tspan x="0.01" y="28.8">d</tspan><tspan class="cls-37" x="12.16" y="28.8">e</tspan><tspan class="cls-34" x="23.77" y="28.8">s</tspan><tspan class="cls-52" x="32.41" y="28.8">i</tspan><tspan class="cls-48" x="37.04" y="28.8">g</tspan><tspan x="48.42" y="28.8">n di</tspan><tspan class="cls-48" x="83.53" y="28.8">r</tspan><tspan class="cls-16" x="90.58" y="28.8">e</tspan><tspan class="cls-53" x="101.94" y="28.8">c</tspan><tspan class="cls-35" x="112.5" y="28.8">t</tspan><tspan x="119.21" y="28.8">ion has </tspan><tspan class="cls-33" x="191.98" y="28.8">b</tspan><tspan class="cls-16" x="204.39" y="28.8">e</tspan><tspan class="cls-34" x="215.74" y="28.8">e</tspan><tspan x="226.9" y="28.8">n </tspan><tspan class="cls-42" x="0.02" y="57.6">e</tspan><tspan class="cls-36" x="11.45" y="57.6">x</tspan><tspan x="21.21" y="57.6">plo</tspan><tspan class="cls-48" x="50.85" y="57.6">r</tspan><tspan class="cls-16" x="57.91" y="57.6">e</tspan><tspan x="69.26" y="57.6">d and vali</tspan><tspan class="cls-38" x="159.52" y="57.6">d</tspan><tspan class="cls-44" x="171.79" y="57.6">a</tspan><tspan x="182.42" y="57.6">t</tspan><tspan class="cls-16" x="188.92" y="57.6">e</tspan><tspan class="cls-46" x="200.27" y="57.6">d</tspan><tspan x="212.51" y="57.6">.</tspan></text><text class="cls-15" transform="translate(774.96 548.14)">L4: <tspan class="cls-54" x="37.41" y="0">P</tspan><tspan class="cls-55" x="51.19" y="0">r</tspan><tspan class="cls-19" x="59.67" y="0">o</tspan><tspan x="73.53" y="0">t</tspan><tspan class="cls-56" x="81.14" y="0">o</tspan><tspan class="cls-57" x="95" y="0">t</tspan><tspan class="cls-58" x="103.22" y="0">y</tspan><tspan class="cls-55" x="115.28" y="0">p</tspan><tspan x="129.14" y="0">e*</tspan></text><text class="cls-31" transform="translate(642.78 578.34)"><tspan class="cls-32">C</tspan><tspan x="13.06" y="0">ompl</tspan><tspan class="cls-33" x="62.35" y="0">e</tspan><tspan x="73.68" y="0">te wh</tspan><tspan class="cls-34" x="126" y="0">e</tspan><tspan x="137.16" y="0">n an int</tspan><tspan class="cls-34" x="208.05" y="0">e</tspan><tspan class="cls-48" x="219.21" y="0">r</tspan><tspan class="cls-59" x="226.27" y="0">a</tspan><tspan class="cls-60" x="237.02" y="0">c</tspan><tspan class="cls-61" x="247.58" y="0">t</tspan><tspan class="cls-39" x="254.3" y="0">ion </tspan><tspan x="13.72" y="28.8">p</tspan><tspan class="cls-48" x="25.86" y="28.8">r</tspan><tspan class="cls-38" x="32.92" y="28.8">o</tspan><tspan x="45.3" y="28.8">t</tspan><tspan class="cls-38" x="51.8" y="28.8">o</tspan><tspan class="cls-62" x="64.19" y="28.8">t</tspan><tspan class="cls-34" x="71.27" y="28.8">y</tspan><tspan class="cls-63" x="81.92" y="28.8">p</tspan><tspan x="94.31" y="28.8">e has </tspan><tspan class="cls-63" x="148.54" y="28.8">b</tspan><tspan class="cls-16" x="160.95" y="28.8">e</tspan><tspan class="cls-34" x="172.3" y="28.8">e</tspan><tspan x="183.46" y="28.8">n bu</tspan><tspan class="cls-34" x="226.02" y="28.8">i</tspan><tspan class="cls-43" x="230.96" y="28.8">l</tspan><tspan x="236.33" y="28.8">t and </tspan><tspan x="196.27" y="57.6">vali</tspan><tspan class="cls-38" x="227.68" y="57.6">d</tspan><tspan class="cls-44" x="239.94" y="57.6">a</tspan><tspan x="250.58" y="57.6">t</tspan><tspan class="cls-16" x="257.08" y="57.6">e</tspan><tspan class="cls-46" x="268.43" y="57.6">d</tspan><tspan x="280.67" y="57.6">.</tspan></text><text class="cls-31" transform="translate(1261.87 50.28)"><tspan class="cls-32">C</tspan><tspan x="13.06" y="0">ompl</tspan><tspan class="cls-33" x="62.35" y="0">e</tspan><tspan x="73.68" y="0">te wh</tspan><tspan class="cls-34" x="126" y="0">e</tspan><tspan x="137.16" y="0">n a </tspan><tspan class="cls-34" x="171.72" y="0">s</tspan><tspan x="180.36" y="0">i</tspan><tspan class="cls-51" x="185.23" y="0">n</tspan><tspan x="197.18" y="0">gle </tspan><tspan x="0.01" y="28.8">d</tspan><tspan class="cls-37" x="12.16" y="28.8">e</tspan><tspan class="cls-34" x="23.77" y="28.8">s</tspan><tspan class="cls-52" x="32.41" y="28.8">i</tspan><tspan class="cls-48" x="37.04" y="28.8">g</tspan><tspan x="48.42" y="28.8">n </tspan><tspan class="cls-64" x="66.51" y="28.8">w</tspan><tspan x="83.31" y="28.8">o</tspan><tspan class="cls-42" x="95.58" y="28.8">r</tspan><tspan class="cls-65" x="102.82" y="28.8">k</tspan><tspan x="113.98" y="28.8">fl</tspan><tspan class="cls-66" x="124.95" y="28.8">o</tspan><tspan x="137.58" y="28.8">w has </tspan><tspan class="cls-33" x="197.33" y="28.8">b</tspan><tspan class="cls-16" x="209.74" y="28.8">e</tspan><tspan class="cls-34" x="221.09" y="28.8">e</tspan><tspan x="232.25" y="28.8">n </tspan><tspan class="cls-46" x="0.02" y="57.6">s</tspan><tspan class="cls-63" x="8.69" y="57.6">p</tspan><tspan class="cls-16" x="21.07" y="57.6">e</tspan><tspan class="cls-35" x="32.42" y="57.6">c</tspan><tspan class="cls-64" x="42.45" y="57.6">i</tspan><tspan x="47.52" y="57.6">fi</tspan><tspan class="cls-16" x="58.08" y="57.6">e</tspan><tspan class="cls-40" x="69.43" y="57.6">d in d</tspan><tspan class="cls-63" x="122.3" y="57.6">e</tspan><tspan class="cls-67" x="133.63" y="57.6">t</tspan><tspan x="140.59" y="57.6">a</tspan><tspan class="cls-34" x="151.43" y="57.6">i</tspan><tspan class="cls-46" x="156.38" y="57.6">l</tspan><tspan x="161.71" y="57.6">.</tspan></text><text class="cls-15" transform="translate(1319.96 548.14)">L6: <tspan class="cls-68" x="38.06" y="0">R</tspan><tspan class="cls-23" x="52.6" y="0">e</tspan><tspan x="65.36" y="0">dline S</tspan><tspan class="cls-55" x="135.98" y="0">p</tspan><tspan class="cls-23" x="149.83" y="0">e</tspan><tspan x="162.6" y="0">c*</tspan></text><text class="cls-31" transform="translate(1231.9 578.34)"><tspan class="cls-32">C</tspan><tspan x="13.06" y="0">ompl</tspan><tspan class="cls-33" x="62.35" y="0">e</tspan><tspan x="73.68" y="0">te wh</tspan><tspan class="cls-34" x="126" y="0">e</tspan><tspan x="137.16" y="0">n </tspan><tspan class="cls-41" x="155.25" y="0">s</tspan><tspan class="cls-34" x="163.99" y="0">c</tspan><tspan class="cls-43" x="173.88" y="0">r</tspan><tspan class="cls-16" x="180.93" y="0">e</tspan><tspan class="cls-49" x="192.28" y="0">e</tspan><tspan class="cls-38" x="203.44" y="0">n</tspan><tspan x="216.04" y="0">s </tspan><tspan class="cls-42" x="230.23" y="0">f</tspan><tspan x="236.01" y="0">or a </tspan><tspan x="13.93" y="28.8">d</tspan><tspan class="cls-37" x="26.08" y="28.8">e</tspan><tspan class="cls-34" x="37.69" y="28.8">s</tspan><tspan class="cls-69" x="46.33" y="28.8">i</tspan><tspan class="cls-43" x="50.96" y="28.8">g</tspan><tspan x="62.34" y="28.8">n </tspan><tspan class="cls-64" x="80.43" y="28.8">w</tspan><tspan x="97.23" y="28.8">o</tspan><tspan class="cls-42" x="109.5" y="28.8">r</tspan><tspan class="cls-65" x="116.75" y="28.8">k</tspan><tspan x="127.91" y="28.8">fl</tspan><tspan class="cls-66" x="138.87" y="28.8">o</tspan><tspan x="151.5" y="28.8">w h</tspan><tspan class="cls-69" x="186.22" y="28.8">a</tspan><tspan class="cls-16" x="196.83" y="28.8">v</tspan><tspan x="207.56" y="28.8">e </tspan><tspan class="cls-33" x="224.26" y="28.8">b</tspan><tspan class="cls-16" x="236.67" y="28.8">e</tspan><tspan class="cls-34" x="248.02" y="28.8">e</tspan><tspan x="259.18" y="28.8">n </tspan><tspan class="cls-70" x="24" y="57.6">s</tspan><tspan class="cls-33" x="32.66" y="57.6">p</tspan><tspan class="cls-16" x="45.05" y="57.6">e</tspan><tspan class="cls-71" x="56.4" y="57.6">c</tspan><tspan class="cls-72" x="67.51" y="57.6">’</tspan><tspan class="cls-40" x="69.72" y="57.6">d </tspan><tspan class="cls-73" x="87.48" y="57.6">f</tspan><tspan x="93.26" y="57.6">or impl</tspan><tspan class="cls-34" x="159.95" y="57.6">e</tspan><tspan x="171.11" y="57.6">m</tspan><tspan class="cls-34" x="190.77" y="57.6">e</tspan><tspan x="201.93" y="57.6">n</tspan><tspan class="cls-67" x="214.41" y="57.6">t</tspan><tspan class="cls-74" x="221.37" y="57.6">a</tspan><tspan class="cls-35" x="232" y="57.6">t</tspan><tspan x="238.72" y="57.6">io</tspan><tspan class="cls-34" x="255.86" y="57.6">n</tspan><tspan x="268.41" y="57.6">.</tspan></text><text class="cls-31" transform="translate(135.49 578.34)"><tspan class="cls-32">C</tspan><tspan x="13.06" y="0">ompl</tspan><tspan class="cls-33" x="62.35" y="0">e</tspan><tspan x="73.68" y="0">te wh</tspan><tspan class="cls-34" x="126" y="0">e</tspan><tspan x="137.16" y="0">n </tspan><tspan class="cls-41" x="155.25" y="0">s</tspan><tspan class="cls-66" x="163.99" y="0">e</tspan><tspan class="cls-16" x="175.44" y="0">v</tspan><tspan class="cls-34" x="186.16" y="0">e</tspan><tspan class="cls-48" x="197.32" y="0">r</tspan><tspan x="204.38" y="0">al</tspan><tspan x="-40.59" y="28.8">d</tspan><tspan class="cls-37" x="-28.45" y="28.8">e</tspan><tspan class="cls-34" x="-16.83" y="28.8">s</tspan><tspan class="cls-52" x="-8.19" y="28.8">i</tspan><tspan class="cls-48" x="-3.56" y="28.8">g</tspan><tspan x="7.81" y="28.8">n di</tspan><tspan class="cls-48" x="42.92" y="28.8">r</tspan><tspan class="cls-16" x="49.98" y="28.8">e</tspan><tspan class="cls-53" x="61.33" y="28.8">c</tspan><tspan class="cls-35" x="71.89" y="28.8">t</tspan><tspan x="78.61" y="28.8">io</tspan><tspan class="cls-38" x="95.75" y="28.8">n</tspan><tspan x="108.34" y="28.8">s h</tspan><tspan class="cls-69" x="135.03" y="28.8">a</tspan><tspan class="cls-16" x="145.64" y="28.8">v</tspan><tspan x="156.37" y="28.8">e </tspan><tspan class="cls-33" x="173.07" y="28.8">b</tspan><tspan class="cls-16" x="185.48" y="28.8">e</tspan><tspan class="cls-34" x="196.83" y="28.8">e</tspan><tspan x="207.99" y="28.8">n</tspan><tspan class="cls-42" x="-2.23" y="57.6">e</tspan><tspan class="cls-36" x="9.19" y="57.6">x</tspan><tspan x="18.96" y="57.6">plo</tspan><tspan class="cls-48" x="48.6" y="57.6">r</tspan><tspan class="cls-16" x="55.65" y="57.6">e</tspan><tspan class="cls-37" x="67.01" y="57.6">d</tspan><tspan x="79.68" y="57.6">, </tspan><tspan class="cls-66" x="88.56" y="57.6">e</tspan><tspan x="100" y="57.6">va</tspan><tspan class="cls-75" x="121.32" y="57.6">l</tspan><tspan class="cls-70" x="126.38" y="57.6">u</tspan><tspan class="cls-74" x="138.76" y="57.6">a</tspan><tspan x="149.4" y="57.6">t</tspan><tspan class="cls-16" x="155.9" y="57.6">e</tspan><tspan x="167.25" y="57.6">d and </tspan><tspan x="118.3" y="86.4">elimin</tspan><tspan class="cls-74" x="176.5" y="86.4">a</tspan><tspan x="187.13" y="86.4">t</tspan><tspan class="cls-16" x="193.64" y="86.4">e</tspan><tspan class="cls-70" x="204.99" y="86.4">d</tspan><tspan x="217.23" y="86.4">.</tspan></text><text class="cls-15" transform="translate(118.85 548.14) rotate(0.1)">L2: <tspan class="cls-76" x="36.63" y="0">E</tspan><tspan class="cls-77" x="50.78" y="0">x</tspan><tspan x="62.03" y="0">plor</tspan><tspan class="cls-78" x="103.92" y="0">a</tspan><tspan class="cls-17" x="116.06" y="0">to</tspan><tspan class="cls-79" x="137.38" y="0">r</tspan><tspan x="146.95" y="0">y </tspan><tspan class="cls-23" x="164.89" y="0">D</tspan><tspan class="cls-24" x="182" y="0">e</tspan><tspan x="194.99" y="0">s</tspan><tspan class="cls-25" x="204.82" y="0">i</tspan><tspan class="cls-26" x="210.36" y="0">g</tspan><tspan x="223.2" y="0">n</tspan></text><text class="cls-80" transform="translate(1340 789.67)">*Step n<tspan class="cls-81" x="35.2" y="0">o</tspan><tspan x="41.59" y="0">t a</tspan><tspan class="cls-41" x="53.57" y="0">l</tspan><tspan class="cls-52" x="56.54" y="0">w</tspan><tspan class="cls-82" x="65" y="0">a</tspan><tspan class="cls-83" x="70.47" y="0">y</tspan><tspan x="76.27" y="0">s n</tspan><tspan class="cls-84" x="90" y="0">e</tspan><tspan x="95.89" y="0">c</tspan><tspan class="cls-85" x="100.93" y="0">e</tspan><tspan class="cls-86" x="106.93" y="0">s</tspan><tspan class="cls-87" x="111.66" y="0">s</tspan><tspan x="116.37" y="0">a</tspan><tspan class="cls-88" x="122.06" y="0">r</tspan><tspan class="cls-89" x="126.48" y="0">y</tspan><tspan x="131.48" y="0">. </tspan><tspan class="cls-90" x="136.31" y="0">De</tspan><tspan class="cls-41" x="150.09" y="0">c</tspan><tspan x="155.22" y="0">id</tspan><tspan class="cls-90" x="164.2" y="0">e</tspan><tspan x="170.1" y="0">d </tspan><tspan class="cls-91" x="179.16" y="0">f</tspan><tspan class="cls-49" x="182.36" y="0">e</tspan><tspan class="cls-92" x="188.18" y="0">a</tspan><tspan class="cls-93" x="193.78" y="0">tu</tspan><tspan class="cls-94" x="203.64" y="0">r</tspan><tspan class="cls-95" x="207.55" y="0">e</tspan><tspan x="213.57" y="0">-</tspan><tspan class="cls-81" x="217.29" y="0">b</tspan><tspan class="cls-96" x="223.66" y="0">y</tspan><tspan class="cls-90" x="229.23" y="0">-</tspan><tspan class="cls-86" x="233.06" y="0">f</tspan><tspan class="cls-97" x="236.26" y="0">e</tspan><tspan class="cls-75" x="242.08" y="0">a</tspan><tspan x="247.69" y="0">tu</tspan><tspan class="cls-98" x="257.54" y="0">r</tspan><tspan x="261.45" y="0">e.</tspan></text></svg>