<svg id="Layer_1" data-name="Layer 1" xmlns="http://www.w3.org/2000/svg" width="1597" height="771.43" viewBox="0 0 1597 771.43">
  <defs>
    <style>
      .cls-1, .cls-10, .cls-2, .cls-3, .cls-34, .cls-35, .cls-36, .cls-4 {
        fill: none;
      }

      .cls-1, .cls-10, .cls-11, .cls-2, .cls-3, .cls-34, .cls-36, .cls-37, .cls-4 {
        stroke: #fff;
        stroke-miterlimit: 10;
      }

      .cls-1, .cls-2 {
        stroke-width: 2px;
      }

      .cls-2 {
        stroke-dasharray: 12 12;
      }

      .cls-4 {
        stroke-dasharray: 11.98 11.98;
      }

      .cls-5 {
        fill: #e93457;
      }

      .cls-11, .cls-12, .cls-37, .cls-40, .cls-51, .cls-52, .cls-56, .cls-6, .cls-65 {
        fill: #fff;
      }

      .cls-7 {
        fill: #c36f49;
      }

      .cls-8 {
        fill: #bdb345;
      }

      .cls-9 {
        fill: #a6c855;
      }

      .cls-10 {
        stroke-width: 3px;
      }

      .cls-11 {
        stroke-width: 0.5px;
      }

      .cls-12, .cls-40 {
        isolation: isolate;
      }

      .cls-12, .cls-51, .cls-56, .cls-65 {
        font-size: 26px;
      }

      .cls-12, .cls-40, .cls-51, .cls-56, .cls-65 {
        font-family: AdobeClean-Regular, Adobe Clean;
      }

      .cls-13 {
        letter-spacing: 0.01em;
      }

      .cls-14 {
        letter-spacing: 0em;
      }

      .cls-15 {
        letter-spacing: 0.01em;
      }

      .cls-16 {
        letter-spacing: -0.01em;
      }

      .cls-17 {
        letter-spacing: 0.01em;
      }

      .cls-18 {
        letter-spacing: 0.05em;
      }

      .cls-19 {
        letter-spacing: 0.01em;
      }

      .cls-20 {
        letter-spacing: 0.02em;
      }

      .cls-21 {
        letter-spacing: -0.01em;
      }

      .cls-22 {
        letter-spacing: 0em;
      }

      .cls-23 {
        letter-spacing: -0.01em;
      }

      .cls-24 {
        letter-spacing: 0.01em;
      }

      .cls-25 {
        letter-spacing: 0.02em;
      }

      .cls-26, .cls-56 {
        letter-spacing: 0em;
      }

      .cls-27 {
        letter-spacing: 0.03em;
      }

      .cls-28 {
        letter-spacing: 0em;
      }

      .cls-29 {
        letter-spacing: -0.01em;
      }

      .cls-30 {
        letter-spacing: 0em;
      }

      .cls-31 {
        letter-spacing: 0.05em;
      }

      .cls-32 {
        letter-spacing: 0em;
      }

      .cls-33 {
        letter-spacing: -0.01em;
      }

      .cls-34 {
        stroke-dasharray: 12.14 12.14;
      }

      .cls-36 {
        stroke-dasharray: 11.96 11.96;
      }

      .cls-37 {
        stroke-linecap: square;
      }

      .cls-38 {
        fill: #408c46;
      }

      .cls-39 {
        fill: #71974d;
      }

      .cls-40, .cls-52 {
        font-size: 24px;
      }

      .cls-41 {
        letter-spacing: -0.03em;
      }

      .cls-42 {
        letter-spacing: 0.01em;
      }

      .cls-43 {
        letter-spacing: 0.03em;
      }

      .cls-44 {
        letter-spacing: 0.01em;
      }

      .cls-45 {
        letter-spacing: 0.02em;
      }

      .cls-46 {
        letter-spacing: -0.01em;
      }

      .cls-47 {
        letter-spacing: 0em;
      }

      .cls-48 {
        letter-spacing: 0em;
      }

      .cls-49 {
        letter-spacing: 0em;
      }

      .cls-50 {
        letter-spacing: 0.01em;
      }

      .cls-52 {
        font-family: AdobeClean-SemiLight, Adobe Clean;
        font-weight: 300;
      }

      .cls-53 {
        letter-spacing: 0.01em;
      }

      .cls-54 {
        letter-spacing: 0.01em;
      }

      .cls-55 {
        letter-spacing: 0em;
      }

      .cls-57 {
        letter-spacing: -0.03em;
      }

      .cls-58 {
        letter-spacing: 0.01em;
      }

      .cls-59 {
        letter-spacing: 0.04em;
      }

      .cls-60 {
        letter-spacing: 0.02em;
      }

      .cls-61 {
        letter-spacing: 0.04em;
      }

      .cls-62 {
        letter-spacing: 0em;
      }

      .cls-63 {
        letter-spacing: -0.02em;
      }

      .cls-64 {
        letter-spacing: -0.02em;
      }

      .cls-65 {
        letter-spacing: 0.03em;
      }

      .cls-66 {
        letter-spacing: -0.01em;
      }

      .cls-67 {
        letter-spacing: -0.02em;
      }

      .cls-68 {
        letter-spacing: 0.02em;
      }
    </style>
  </defs>
  <title>drl-3</title>
  <g>
    <line class="cls-1" x1="80.5" y1="275.1" x2="88.24" y2="275.1"/>
    <line class="cls-2" x1="103.73" y1="275.1" x2="1520.52" y2="275.1"/>
    <line class="cls-1" x1="1528.26" y1="275.1" x2="1536" y2="275.1"/>
  </g>
  <g>
    <path class="cls-3" d="M1201,356.8c-.4,2-.9,3.9-1.3,5.9"/>
    <path class="cls-4" d="M1196.6,374.3C1164,485.2,1057.7,552,935,552c-121.4,0-250.1-89.5-274.8-181.2"/>
    <path class="cls-3" d="M658.8,365c-.4-2-.8-3.9-1.2-5.9"/>
  </g>
  <ellipse class="cls-5" cx="81.93" cy="278.5" rx="80" ry="80.5"/>
  <path class="cls-6" d="M82,200c43.1,0,78,35.1,78,78.5S125.1,357,82,357,4,321.9,4,278.5,38.9,200,82,200m0-4c-45.2,0-82,37-82,82.5S36.8,361,82,361s82-37,82-82.5S127.2,196,82,196Z"/>
  <ellipse class="cls-7" cx="370.69" cy="278.5" rx="80" ry="80.5"/>
  <path class="cls-6" d="M370.2,200c43.1,0,78,35.1,78,78.5s-34.9,78.5-78,78.5-78-35.1-78-78.5,34.9-78.5,78-78.5m0-4c-45.2,0-82,37-82,82.5S325,361,370.2,361s82-37,82-82.5-36.8-82.5-82-82.5Z"/>
  <ellipse class="cls-8" cx="658.4" cy="278.5" rx="80" ry="80.5"/>
  <path class="cls-6" d="M658.4,200c43.1,0,78,35.1,78,78.5s-34.9,78.5-78,78.5-78-35.1-78-78.5,34.9-78.5,78-78.5m0-4c-45.2,0-82,37-82,82.5s36.8,82.5,82,82.5,82-37,82-82.5-36.8-82.5-82-82.5Z"/>
  <ellipse class="cls-9" cx="946.6" cy="551.5" rx="80" ry="80.5"/>
  <path class="cls-6" d="M946.6,473c43.1,0,78,35.1,78,78.5s-34.9,78.5-78,78.5-78-35.1-78-78.5,34.9-78.5,78-78.5m0-4c-45.2,0-82,37-82,82.5s36.8,82.5,82,82.5,82-37,82-82.5-36.8-82.5-82-82.5Z"/>
  <g>
    <line class="cls-10" x1="81" y1="19.7" x2="81" y2="199.7"/>
    <circle class="cls-11" cx="81" cy="16.2" r="7"/>
  </g>
  <line class="cls-10" x1="658.5" y1="17.7" x2="658.5" y2="197.7"/>
  <circle class="cls-11" cx="658.5" cy="14.2" r="7"/>
  <line class="cls-10" x1="947.5" y1="727.2" x2="947.5" y2="633.2"/>
  <circle class="cls-11" cx="947.5" cy="731.6" r="7"/>
  <line class="cls-10" x1="370.5" y1="450.8" x2="370.5" y2="356.8"/>
  <circle class="cls-11" cx="370.5" cy="450.6" r="7"/>
  <text class="cls-12" transform="translate(103.87 21.74) rotate(0.1)">L1: <tspan class="cls-13" x="32.68" y="0">B</tspan><tspan x="47.47" y="0">asic </tspan><tspan class="cls-14" x="92.4" y="0">C</tspan><tspan x="106.62" y="0">once</tspan><tspan class="cls-15" x="157.69" y="0">p</tspan><tspan x="171.49" y="0">t</tspan></text>
  <text class="cls-12" transform="translate(679.96 21.89)">L3: <tspan class="cls-16" x="36.94" y="0">P</tspan><tspan class="cls-17" x="50.73" y="0">r</tspan><tspan x="59.2" y="0">elimina</tspan><tspan class="cls-18" x="137.56" y="0">r</tspan><tspan x="147.13" y="0">y </tspan><tspan class="cls-19" x="165.07" y="0">D</tspan><tspan class="cls-20" x="182.18" y="0">e</tspan><tspan x="195.18" y="0">s</tspan><tspan class="cls-21" x="205" y="0">i</tspan><tspan class="cls-22" x="210.54" y="0">g</tspan><tspan x="223.39" y="0">n</tspan></text>
  <text class="cls-12" transform="translate(774.96 739.14)">L4: <tspan class="cls-23" x="37.41" y="0">P</tspan><tspan class="cls-24" x="51.19" y="0">r</tspan><tspan class="cls-15" x="59.67" y="0">o</tspan><tspan x="73.53" y="0">t</tspan><tspan class="cls-15" x="81.14" y="0">o</tspan><tspan class="cls-25" x="95" y="0">t</tspan><tspan class="cls-26" x="103.22" y="0">y</tspan><tspan class="cls-17" x="115.28" y="0">p</tspan><tspan x="129.14" y="0">e*</tspan></text>
  <text class="cls-12" transform="translate(118.85 458.14) rotate(0.1)">L2: <tspan class="cls-27" x="36.63" y="0">E</tspan><tspan class="cls-28" x="50.78" y="0">x</tspan><tspan x="62.03" y="0">plor</tspan><tspan class="cls-29" x="103.92" y="0">a</tspan><tspan class="cls-30" x="116.06" y="0">to</tspan><tspan class="cls-31" x="137.38" y="0">r</tspan><tspan x="146.95" y="0">y </tspan><tspan class="cls-19" x="164.89" y="0">D</tspan><tspan class="cls-20" x="182" y="0">e</tspan><tspan class="cls-32" x="195" y="0">s</tspan><tspan class="cls-33" x="204.82" y="0">i</tspan><tspan class="cls-22" x="210.36" y="0">g</tspan><tspan x="223.2" y="0">n</tspan></text>
  <g>
    <path class="cls-3" d="M104.1,447.5c-1.8.8-3.6,1.7-5.4,2.6"/>
    <path class="cls-34" d="M88.8,457.1A57.49,57.49,0,0,0,126.5,558H854.9"/>
    <line class="cls-3" x1="861" y1="558" x2="867" y2="558"/>
  </g>
  <path class="cls-35" d="M104.1,447.5"/>
  <path class="cls-35" d="M126.5,443"/>
  <path class="cls-35" d="M126.5,443a57.5,57.5,0,0,1,0,115"/>
  <g>
    <path class="cls-3" d="M599,756c-2,0-4-.1-6-.2"/>
    <path class="cls-36" d="M581.1,754.4A99,99,0,0,1,587,558.7"/>
    <path class="cls-3" d="M593,558.2c2-.1,4-.2,6-.2"/>
  </g>
  <polygon class="cls-37" points="96.9 443.9 105 447.9 100.1 455.5 96.9 443.9"/>
  <text class="cls-12" transform="translate(606.96 765.14)">X</text>
  <rect class="cls-35" x="1224" y="105.3" width="373" height="582"/>
  <line class="cls-1" x1="1483.5" y1="279.2" x2="1489.5" y2="279.2"/>
  <ellipse class="cls-38" cx="1494" cy="278.5" rx="80" ry="80.5"/>
  <path class="cls-6" d="M1494,200c43.1,0,78,35.1,78,78.5s-34.9,78.5-78,78.5-78-35.1-78-78.5,34.9-78.5,78-78.5m0-4c-45.2,0-82,37-82,82.5s36.8,82.5,82,82.5,82-37,82-82.5S1539.2,196,1494,196Z"/>
  <ellipse class="cls-39" cx="1205.8" cy="278.5" rx="80" ry="80.5"/>
  <path class="cls-6" d="M1205.8,200c43.1,0,78,35.1,78,78.5s-34.9,78.5-78,78.5-78-35.1-78-78.5,34.9-78.5,78-78.5m0-4c-45.2,0-82,37-82,82.5s36.8,82.5,82,82.5,82-37,82-82.5S1251,196,1205.8,196Z"/>
  <line class="cls-10" x1="1494.5" y1="542.2" x2="1494.5" y2="362.2"/>
  <circle class="cls-11" cx="1494.5" cy="540.6" r="7"/>
  <line class="cls-10" x1="1205.5" y1="19.7" x2="1205.5" y2="199.7"/>
  <circle class="cls-11" cx="1205.5" cy="16.2" r="7"/>
  <text class="cls-40" transform="translate(1232.96 21.89)">L5: <tspan class="cls-41" x="34.01" y="0">W</tspan><tspan x="53.83" y="0">o</tspan><tspan class="cls-42" x="66.48" y="0">r</tspan><tspan class="cls-43" x="74.4" y="0">k</tspan><tspan x="86.23" y="0">fl</tspan><tspan class="cls-42" x="98.37" y="0">o</tspan><tspan x="111.31" y="0">w </tspan><tspan class="cls-44" x="134.01" y="0">D</tspan><tspan class="cls-45" x="149.81" y="0">e</tspan><tspan x="161.8" y="0">s</tspan><tspan class="cls-46" x="170.88" y="0">i</tspan><tspan class="cls-47" x="175.99" y="0">g</tspan><tspan x="187.84" y="0">n</tspan></text>
  <text class="cls-40" transform="translate(1310.79 548.14)">L6: <tspan class="cls-48" x="35.13" y="0">R</tspan><tspan class="cls-44" x="48.55" y="0">e</tspan><tspan class="cls-49" x="60.33" y="0">dline S</tspan><tspan class="cls-50" x="125.52" y="0">p</tspan><tspan class="cls-44" x="138.31" y="0">e</tspan><tspan x="150.09" y="0">c</tspan></text>
  <text class="cls-51" transform="translate(1199.59 273.26)">S</text>
  <text class="cls-52" transform="translate(1173.56 299.62)">1 <tspan class="cls-53" x="13.06" y="0">w</tspan><tspan class="cls-54" x="30.14" y="0">e</tspan><tspan class="cls-55" x="41.73" y="0">ek</tspan></text>
  <text class="cls-56" transform="translate(68.94 271.09)">X<tspan class="cls-32" x="13.7" y="0">L</tspan></text>
  <text class="cls-52" transform="translate(35.31 297.45)">2+ <tspan class="cls-57" x="29.95" y="0">W</tspan><tspan class="cls-58" x="49.73" y="0">e</tspan><tspan x="61.32" y="0">e</tspan><tspan class="cls-59" x="72.67" y="0">k</tspan><tspan x="84.38" y="0">s</tspan></text>
  <g>
    <text class="cls-51" transform="translate(364.46 273.26)">L</text>
    <text class="cls-52" transform="translate(330.72 299.62)">2 <tspan class="cls-57" x="16.66" y="0">W</tspan><tspan class="cls-58" x="36.43" y="0">e</tspan><tspan x="48.02" y="0">e</tspan><tspan class="cls-59" x="59.38" y="0">k</tspan><tspan x="71.09" y="0">s</tspan></text>
  </g>
  <g>
    <text class="cls-51" transform="translate(647.64 273.26)">M</text>
    <text class="cls-52" transform="translate(612.48 299.62)">1<tspan class="cls-60" x="7.49" y="0">.</tspan><tspan x="11.69" y="0">5 </tspan><tspan class="cls-57" x="28.56" y="0">W</tspan><tspan class="cls-54" x="48.34" y="0">e</tspan><tspan class="cls-55" x="59.93" y="0">e</tspan><tspan class="cls-61" x="71.28" y="0">k</tspan><tspan x="82.99" y="0">s</tspan></text>
  </g>
  <text class="cls-51" transform="translate(928.2 546.26)"><tspan class="cls-23">L</tspan><tspan class="cls-14" x="12.17" y="0">-</tspan><tspan x="20.12" y="0">M</tspan></text>
  <text class="cls-52" transform="translate(908.31 572.62)"><tspan class="cls-62">O</tspan><tspan class="cls-63" x="16.42" y="0">n</tspan><tspan x="28.58" y="0">goi</tspan><tspan class="cls-64" x="57.74" y="0">n</tspan><tspan x="69.91" y="0">g</tspan></text>
  <g>
    <text class="cls-65" transform="translate(1480.75 273.26)">X<tspan class="cls-32" x="14.25" y="0">S</tspan></text>
    <text class="cls-52" transform="translate(1453.37 299.62)"><tspan class="cls-46">2</tspan><tspan class="cls-66" x="10.8" y="0">-</tspan><tspan x="17.83" y="0">3 D</tspan><tspan class="cls-67" x="50.3" y="0">a</tspan><tspan class="cls-68" x="61.01" y="0">y</tspan><tspan x="72.41" y="0">s</tspan></text>
  </g>
</svg>
