<svg xmlns="http://www.w3.org/2000/svg" xmlns:xlink="http://www.w3.org/1999/xlink" width="53" height="52.75" viewBox="0 0 53 52.75">
  <defs>
    <style>
      .cls-1 {
        fill: none;
      }

      .cls-2 {
        clip-path: url(#clip-path);
      }

      .cls-3 {
        fill: #fff;
      }
    </style>
    <clipPath id="clip-path" transform="translate(0)">
      <rect class="cls-1" width="53" height="52.75"/>
    </clipPath>
  </defs>
  <title>L1</title>
  <g id="Layer_2" data-name="Layer 2">
    <g id="Layer_1-2" data-name="Layer 1">
      <g class="cls-2">
        <g class="cls-2">
          <path class="cls-3" d="M44.84,10C43.07,4.16,36.36,0,28.42,0c-7.78,0-14.37,4-16.3,9.66a11.12,11.12,0,1,0-1,22.19,10.47,10.47,0,0,0,2.53-.33,18.42,18.42,0,0,0,4,2.17c0,.17-.05.33-.05.5a7,7,0,0,0,13.9,1.34,23.87,23.87,0,0,0,11.37-3.76,11.09,11.09,0,0,0,2-21.74M24.58,38.71a4.52,4.52,0,0,1-4.49-4.15c0-.12,0-.24,0-.37a4.52,4.52,0,0,1,9,0,4.33,4.33,0,0,1-.28,1.49,4.49,4.49,0,0,1-4.24,3m17.66-9.9-.83.29a20.75,20.75,0,0,1-10,3.43,7,7,0,0,0-12.91-1.72,14.51,14.51,0,0,1-3.53-2.09l-1.41-.29a7.74,7.74,0,0,1-2.41.42,8.12,8.12,0,1,1,0-16.23,7.54,7.54,0,0,1,1.77.21l1.8-1.18C15.65,6.72,21.55,3,28.42,3s12.73,3.69,13.72,8.59l1.2,1.18a8.09,8.09,0,0,1-1.1,16" transform="translate(0)"/>
          <path class="cls-3" d="M15.92,40.63A6.06,6.06,0,1,0,22,46.69a6.06,6.06,0,0,0-6.06-6.06m-3.55,6.06a3.56,3.56,0,1,1,3.55,3.56,3.56,3.56,0,0,1-3.55-3.56" transform="translate(0)"/>
        </g>
      </g>
    </g>
  </g>
</svg>
