<svg xmlns="http://www.w3.org/2000/svg" xmlns:xlink="http://www.w3.org/1999/xlink" width="35" height="54" viewBox="0 0 35 54">
  <defs>
    <style>
      .cls-1 {
        fill: none;
      }

      .cls-2 {
        clip-path: url(#clip-path);
      }

      .cls-3 {
        fill: #fff;
      }
    </style>
    <clipPath id="clip-path" transform="translate(0)">
      <rect class="cls-1" width="35" height="54"/>
    </clipPath>
  </defs>
  <title>L2</title>
  <g id="Layer_2" data-name="Layer 2">
    <g id="Layer_1-2" data-name="Layer 1">
      <g class="cls-2">
        <g class="cls-2">
          <g class="cls-2">
            <path class="cls-3" d="M7.5,19A1.5,1.5,0,0,1,6,17.5,11.51,11.51,0,0,1,17.5,6a1.5,1.5,0,0,1,0,3A8.51,8.51,0,0,0,9,17.5,1.5,1.5,0,0,1,7.5,19" transform="translate(0)"/>
            <path class="cls-3" d="M17.5,54A9.53,9.53,0,0,1,8,44.46V36.37a8.94,8.94,0,0,0-2.81-6.31,17.5,17.5,0,1,1,24.62,0A8.94,8.94,0,0,0,27,36.37v8.09A9.53,9.53,0,0,1,17.5,54m0-51A14.58,14.58,0,0,0,7.31,27.93,11.91,11.91,0,0,1,11,36.37v8.09a6.5,6.5,0,1,0,13,0V36.37a11.88,11.88,0,0,1,3.7-8.44A14.59,14.59,0,0,0,17.5,3" transform="translate(0)"/>
            <path class="cls-3" d="M25.5,39H9.5a1.5,1.5,0,0,1,0-3h16a1.5,1.5,0,0,1,0,3" transform="translate(0)"/>
            <path class="cls-3" d="M18.25,45h-8a1.5,1.5,0,0,1,0-3h8a1.5,1.5,0,0,1,0,3" transform="translate(0)"/>
          </g>
        </g>
      </g>
    </g>
  </g>
</svg>
