<svg xmlns="http://www.w3.org/2000/svg" xmlns:xlink="http://www.w3.org/1999/xlink" width="44.41" height="44.08" viewBox="0 0 44.41 44.08">
  <defs>
    <style>
      .cls-1 {
        fill: none;
      }

      .cls-2 {
        clip-path: url(#clip-path);
      }

      .cls-3 {
        fill: #fff;
      }
    </style>
    <clipPath id="clip-path" transform="translate(0)">
      <rect class="cls-1" width="44.42" height="44.08"/>
    </clipPath>
  </defs>
  <title>L3</title>
  <g id="Layer_2" data-name="Layer 2">
    <g id="Layer_1-2" data-name="Layer 1">
      <g class="cls-2">
        <g class="cls-2">
          <path class="cls-3" d="M4.05,29.53.08,42a1.61,1.61,0,0,0,2,2L14,40.36l21.93-21.7L25.4,8.18ZM31.63,18.64,12.37,37.71,3.75,40.36l2.94-9.23L25.4,12.42Z" transform="translate(0)"/>
          <path class="cls-3" d="M43.93,8.5l-8-8A1.69,1.69,0,0,0,34.72,0h0a1.89,1.89,0,0,0-1.29.56l-5.7,5.71L38.16,16.74,43.85,11a1.9,1.9,0,0,0,.56-1.22,1.7,1.7,0,0,0-.48-1.32" transform="translate(0)"/>
        </g>
      </g>
    </g>
  </g>
</svg>
