<svg xmlns="http://www.w3.org/2000/svg" xmlns:xlink="http://www.w3.org/1999/xlink" width="53" height="53" viewBox="0 0 53 53">
  <defs>
    <style>
      .cls-1 {
        fill: none;
      }

      .cls-2 {
        clip-path: url(#clip-path);
      }

      .cls-3 {
        fill: #fff;
      }
    </style>
    <clipPath id="clip-path">
      <rect class="cls-1" width="53" height="53"/>
    </clipPath>
  </defs>
  <title>L4</title>
  <g id="Layer_2" data-name="Layer 2">
    <g id="Layer_1-2" data-name="Layer 1">
      <g class="cls-2">
        <g class="cls-2">
          <path class="cls-3" d="M26.5,18.5a8,8,0,1,0,8,8,8,8,0,0,0-8-8m0,13a5,5,0,1,1,5-5,5,5,0,0,1-5,5"/>
          <path class="cls-3" d="M51.5,25H45.8a19.31,19.31,0,0,0-1-4.71l5.24-2.24a1.5,1.5,0,0,0-1.18-2.76l-5.24,2.24a19,19,0,0,0-2.46-3.61l4-4a1.5,1.5,0,0,0-2.12-2.12l-4,4a19.36,19.36,0,0,0-4-2.65l2.13-5.3a1.5,1.5,0,1,0-2.79-1.11L32.3,8A19.7,19.7,0,0,0,28,7.2V1.5a1.5,1.5,0,0,0-3,0V7.2a19.42,19.42,0,0,0-4.71,1L18.05,2.92A1.5,1.5,0,1,0,15.29,4.1l2.24,5.24a19.67,19.67,0,0,0-3.61,2.46l-4-4A1.5,1.5,0,0,0,7.76,9.88l4,4a19.36,19.36,0,0,0-2.65,4L3.85,15.8a1.5,1.5,0,1,0-1.11,2.79L8,20.7A19.24,19.24,0,0,0,7.2,25H1.5a1.5,1.5,0,0,0,0,3H7.2a19.32,19.32,0,0,0,1,4.71L2.92,35a1.5,1.5,0,0,0-.79,2,1.52,1.52,0,0,0,1.38.91,1.37,1.37,0,0,0,.59-.13l5.24-2.23a19.49,19.49,0,0,0,2.46,3.61l-4,4a1.51,1.51,0,0,0,0,2.12,1.53,1.53,0,0,0,1.06.44,1.51,1.51,0,0,0,1.06-.44l4-4a19.36,19.36,0,0,0,4,2.65L15.8,49.14a1.5,1.5,0,0,0,2.79,1.12L20.7,45a19.81,19.81,0,0,0,4.3.81v5.7a1.5,1.5,0,0,0,3,0V45.8a19.79,19.79,0,0,0,4.71-1L35,50.08a1.5,1.5,0,0,0,1.38.91,1.56,1.56,0,0,0,.59-.12,1.51,1.51,0,0,0,.79-2l-2.24-5.24a19,19,0,0,0,3.61-2.46l4,4a1.49,1.49,0,0,0,1.06.44,1.5,1.5,0,0,0,1.06-2.56l-4-4a19,19,0,0,0,2.65-4l5.29,2.13a1.64,1.64,0,0,0,.56.11,1.5,1.5,0,0,0,.56-2.9L45,32.3A19.7,19.7,0,0,0,45.8,28h5.7a1.5,1.5,0,0,0,0-3m-25,17.88A16.38,16.38,0,1,1,42.88,26.5,16.39,16.39,0,0,1,26.5,42.88"/>
        </g>
      </g>
    </g>
  </g>
</svg>
