<svg xmlns="http://www.w3.org/2000/svg" width="759.975" height="520" viewBox="0 0 759.975 520">
  <g id="Group_15" data-name="Group 15" transform="translate(5661.755 1061.5)">
    <path id="Path_1" data-name="Path 1" d="M5.616-.856,2.988-.172l2.376,8.82,2.592-.684Zm5,0L7.992-.172l2.376,8.82,2.592-.684Zm21.924,4V.62H18.252V3.14H23.94V23.48H18.252V26H32.544V23.48H26.892V3.14Zm13.68-1.08h3.24V-.46h-3.1c-4.284,0-6.048,2.268-6.048,5.832V8.108H36.36v2.52h3.96V23.48H36.36V26h12.1V23.48h-5.22V10.628h5.22V8.108h-5.22V5.444C43.236,3.1,43.956,2.06,46.224,2.06ZM64.152,21.032c0,1.872.792,5.328,5.976,5.328,4.32,0,6.228-2.556,6.912-5.292H77.9l-.468,1.872v.972A1.907,1.907,0,0,0,79.56,26h3.168V23.48H80.1V15.848c0-4.788-2.988-8.1-7.992-8.1-5.076,0-7.884,3.312-7.884,7.02H67.1c0-3.384,2.412-4.536,5-4.536,3.1,0,4.86,1.62,5.04,4.9l-7.128.684C65.844,16.244,64.152,18.188,64.152,21.032Zm2.952-.36c0-1.764,1.152-2.448,3.42-2.664l6.624-.684a6.294,6.294,0,0,1-6.66,6.516C68.4,23.84,67.1,22.724,67.1,20.672ZM98.136,8.108V32.552h2.952v-9.18l-.468-2.016h.828c.756,2.772,3.132,5,7.236,5,5.184,0,8.532-4,8.532-9.288,0-5.328-3.348-9.324-8.532-9.324-4.1,0-6.48,2.232-7.236,5.04h-.828l.468-2.052V8.108Zm2.952,8.964c0-4.788,3.06-6.8,6.732-6.8,3.708,0,6.444,2.088,6.444,6.8,0,4.68-2.736,6.768-6.444,6.768C104.148,23.84,101.088,21.824,101.088,17.072Zm24.48-11.808a2.521,2.521,0,0,0,2.592-2.52,2.594,2.594,0,0,0-5.184,0A2.5,2.5,0,0,0,125.568,5.264ZM119.592,26h12.852V23.48H127.4V9.908a1.918,1.918,0,0,0-2.34-2.16l-4.14.36v2.52l3.708-.324V23.48h-5.04Zm14.868-8.964c0,5.184,3.348,9.324,9.144,9.324,3.456,0,7.884-1.944,8.352-7.128h-2.988c-.5,3.42-2.772,4.608-5.364,4.608-4.248,0-6.192-3.1-6.192-6.8,0-3.672,1.944-6.768,6.192-6.768,2.592,0,4.86,1.188,5.364,4.608h2.988c-.468-5.184-4.9-7.128-8.352-7.128C137.808,7.748,134.46,11.888,134.46,17.036Zm26.028,6.84V10.628h5.58V8.108h-5.58V2.6l-2.916.9V8.108h-3.96v2.52h3.96V23.912c0,1.656.756,2.556,2.448,2.448l6.768-.36V23.48Zm17.28-.036c-3.1,0-4.536-1.44-4.536-5.184V8.108H170.28V19.052c0,4.968,2.628,7.308,6.7,7.308a6.577,6.577,0,0,0,6.876-5.508h.828l-.468,2.052V26h2.916V8.108h-2.916v7.956C184.212,20.852,181.548,23.84,177.768,23.84ZM191.88,26h2.952V10.3l9.468.324V8.108l-9.936-.324c-1.692-.072-2.484.756-2.484,2.448Zm13.9-9.18c0,5.148,2.7,9.54,9.108,9.54a8.245,8.245,0,0,0,8.532-6.624h-2.952c-.648,2.736-2.628,4.176-5.58,4.176-4.428,0-6.048-2.916-6.228-6.3H222.8V16.46c0-5.508-3.312-8.712-8.352-8.712C209.376,7.748,205.776,11.06,205.776,16.82Zm2.88-1.44c0-2.88,2.268-5.148,5.8-5.148,3.564,0,5.472,2.268,5.472,5.148Zm36.5-10.116a2.521,2.521,0,0,0,2.592-2.52,2.594,2.594,0,0,0-5.184,0A2.5,2.5,0,0,0,245.16,5.264ZM239.184,26h12.852V23.48H247V9.908a1.918,1.918,0,0,0-2.34-2.16l-4.14.36v2.52l3.708-.324V23.48h-5.04Zm30.168-4.644c0-3.852-3.816-4.644-7.344-5.8-2.88-.936-4.1-1.476-4.1-3.2,0-1.62,1.584-2.2,3.564-2.2,2.844,0,4.32,1.188,4.32,3.6h2.952c0-2.952-1.692-6.012-7.272-6.012-4.1,0-6.516,1.872-6.516,4.716,0,3.24,2.736,4.284,6.12,5.364,2.916.9,5.328,1.3,5.328,3.636,0,1.836-1.3,2.484-4.068,2.484-3.456,0-5.256-1.44-5.256-4.536h-2.952c0,4.248,2.376,6.948,8.172,6.948C267.66,26.36,269.352,24.056,269.352,21.356ZM283.32,8.108,287.856,26H293.9L297.54,8.972h.864L302.04,26h6.012l4.536-17.892h-2.772L305.46,25.172h-.828L301,8.108h-6.084l-3.6,17.064h-.864l-4.32-17.064Zm31.248,8.928a9.433,9.433,0,0,0,18.864,0,9.433,9.433,0,0,0-18.864,0Zm2.952,0c0-3.708,2.268-6.768,6.516-6.768,4.212,0,6.48,3.06,6.48,6.768,0,3.744-2.268,6.8-6.48,6.8C319.788,23.84,317.52,20.78,317.52,17.036ZM337.536,26h2.952V10.3l9.468.324V8.108l-9.936-.324c-1.692-.072-2.484.756-2.484,2.448Zm21.312-2.124V10.628h5.58V8.108h-5.58V2.6l-2.916.9V8.108h-3.96v2.52h3.96V23.912c0,1.656.756,2.556,2.448,2.448l6.768-.36V23.48ZM379.476,7.748a6.577,6.577,0,0,0-6.876,5.508h-.828l.468-2.052V-.46h-2.952V26h2.952V18.08c0-4.824,2.664-7.812,6.444-7.812,3.06,0,4.536,1.44,4.536,5.184V26h2.916V15.056C386.136,10.088,383.508,7.748,379.476,7.748ZM402.3,21.032c0,1.872.792,5.328,5.976,5.328,4.32,0,6.228-2.556,6.912-5.292h.864l-.468,1.872v.972A1.907,1.907,0,0,0,417.708,26h3.168V23.48h-2.628V15.848c0-4.788-2.988-8.1-7.992-8.1-5.076,0-7.884,3.312-7.884,7.02h2.88c0-3.384,2.412-4.536,5-4.536,3.1,0,4.86,1.62,5.04,4.9l-7.128.684C403.992,16.244,402.3,18.188,402.3,21.032Zm2.952-.36c0-1.764,1.152-2.448,3.42-2.664l6.624-.684a6.294,6.294,0,0,1-6.66,6.516C406.548,23.84,405.252,22.724,405.252,20.672Zm36.108,3.2V10.628h5.58V8.108h-5.58V2.6l-2.916.9V8.108h-3.96v2.52h3.96V23.912c0,1.656.756,2.556,2.448,2.448L447.66,26V23.48ZM461.988,7.748a6.577,6.577,0,0,0-6.876,5.508h-.828l.468-2.052V-.46H451.8V26h2.952V18.08c0-4.824,2.664-7.812,6.444-7.812,3.06,0,4.536,1.44,4.536,5.184V26h2.916V15.056C468.648,10.088,466.02,7.748,461.988,7.748Zm10.692,9.288a9.433,9.433,0,0,0,18.864,0,9.433,9.433,0,0,0-18.864,0Zm2.952,0c0-3.708,2.268-6.768,6.516-6.768,4.212,0,6.48,3.06,6.48,6.768,0,3.744-2.268,6.8-6.48,6.8C477.9,23.84,475.632,20.78,475.632,17.036Zm27.144,6.8c-3.1,0-4.536-1.44-4.536-5.184V8.108h-2.952V19.052c0,4.968,2.628,7.308,6.7,7.308a6.577,6.577,0,0,0,6.876-5.508h.828L509.22,22.9V26h2.916V8.108H509.22v7.956C509.22,20.852,506.556,23.84,502.776,23.84Zm28.332-2.484c0-3.852-3.816-4.644-7.344-5.8-2.88-.936-4.1-1.476-4.1-3.2,0-1.62,1.584-2.2,3.564-2.2,2.844,0,4.32,1.188,4.32,3.6H530.5c0-2.952-1.692-6.012-7.272-6.012-4.1,0-6.516,1.872-6.516,4.716,0,3.24,2.736,4.284,6.12,5.364,2.916.9,5.328,1.3,5.328,3.636,0,1.836-1.3,2.484-4.068,2.484-3.456,0-5.256-1.44-5.256-4.536H515.88c0,4.248,2.376,6.948,8.172,6.948C529.416,26.36,531.108,24.056,531.108,21.356Zm2.736-.324c0,1.872.792,5.328,5.976,5.328,4.32,0,6.228-2.556,6.912-5.292h.864l-.468,1.872v.972A1.907,1.907,0,0,0,549.252,26h3.168V23.48h-2.628V15.848c0-4.788-2.988-8.1-7.992-8.1-5.076,0-7.884,3.312-7.884,7.02h2.88c0-3.384,2.412-4.536,5-4.536,3.1,0,4.86,1.62,5.04,4.9l-7.128.684C535.536,16.244,533.844,18.188,533.844,21.032Zm2.952-.36c0-1.764,1.152-2.448,3.42-2.664l6.624-.684a6.294,6.294,0,0,1-6.66,6.516C538.092,23.84,536.8,22.724,536.8,20.672Zm28.4-10.4c3.06,0,4.536,1.44,4.536,5.184V26h2.916V15.056c0-4.968-2.628-7.308-6.66-7.308a6.577,6.577,0,0,0-6.876,5.508h-.828l.468-2.052v-3.1H555.8V26h2.952V18.08C558.756,13.256,561.42,10.268,565.2,10.268ZM595.764,26V-.46h-2.952v11.2l.5,2.052h-.864c-.756-2.808-3.168-5.04-7.236-5.04-5.184,0-8.532,4-8.532,9.288,0,5.328,3.348,9.324,8.532,9.324,4.068,0,6.48-2.232,7.236-5h.864l-.5,2.016V26Zm-2.952-8.964c0,4.788-3.024,6.8-6.732,6.8s-6.444-2.016-6.444-6.8c0-4.752,2.736-6.768,6.444-6.768S592.812,12.284,592.812,17.036Zm18.4-8.928L615.744,26h6.048l3.636-17.028h.864L629.928,26h6.012l4.536-17.892H637.7l-4.356,17.064h-.828L628.884,8.108H622.8l-3.6,17.064h-.864l-4.32-17.064Zm31.248,8.928a9.433,9.433,0,0,0,18.864,0,9.433,9.433,0,0,0-18.864,0Zm2.952,0c0-3.708,2.268-6.768,6.516-6.768,4.212,0,6.48,3.06,6.48,6.768,0,3.744-2.268,6.8-6.48,6.8C647.676,23.84,645.408,20.78,645.408,17.036ZM665.424,26h2.952V10.3l9.468.324V8.108l-9.936-.324c-1.692-.072-2.484.756-2.484,2.448ZM698.4,26V-.46h-2.952v11.2l.5,2.052h-.864c-.756-2.808-3.168-5.04-7.236-5.04-5.184,0-8.532,4-8.532,9.288,0,5.328,3.348,9.324,8.532,9.324,4.068,0,6.48-2.232,7.236-5h.864l-.5,2.016V26Zm-2.952-8.964c0,4.788-3.024,6.8-6.732,6.8s-6.444-2.016-6.444-6.8c0-4.752,2.736-6.768,6.444-6.768S695.448,12.284,695.448,17.036Zm22.284,4.32c0-3.852-3.816-4.644-7.344-5.8-2.88-.936-4.1-1.476-4.1-3.2,0-1.62,1.584-2.2,3.564-2.2,2.844,0,4.32,1.188,4.32,3.6h2.952c0-2.952-1.692-6.012-7.272-6.012-4.1,0-6.516,1.872-6.516,4.716,0,3.24,2.736,4.284,6.12,5.364,2.916.9,5.328,1.3,5.328,3.636,0,1.836-1.3,2.484-4.068,2.484-3.456,0-5.256-1.44-5.256-4.536H702.5c0,4.248,2.376,6.948,8.172,6.948C716.04,26.36,717.732,24.056,717.732,21.356Zm5.436-1.224-2.808,10.4,2.628.72,2.808-10.44Zm19.476.9c0,1.872.792,5.328,5.976,5.328,4.32,0,6.228-2.556,6.912-5.292h.864l-.468,1.872v.972A1.907,1.907,0,0,0,758.052,26h3.168V23.48h-2.628V15.848c0-4.788-2.988-8.1-7.992-8.1-5.076,0-7.884,3.312-7.884,7.02h2.88c0-3.384,2.412-4.536,5-4.536,3.1,0,4.86,1.62,5.04,4.9l-7.128.684C744.336,16.244,742.644,18.188,742.644,21.032Zm2.952-.36c0-1.764,1.152-2.448,3.42-2.664l6.624-.684a6.294,6.294,0,0,1-6.66,6.516C746.892,23.84,745.6,22.724,745.6,20.672ZM2.628,49.108V73.552H5.58v-9.18l-.468-2.016H5.94c.756,2.772,3.132,5,7.236,5,5.184,0,8.532-4,8.532-9.288,0-5.328-3.348-9.324-8.532-9.324-4.1,0-6.48,2.232-7.236,5.04H5.112l.468-2.052V49.108ZM5.58,58.072c0-4.788,3.06-6.8,6.732-6.8,3.708,0,6.444,2.088,6.444,6.8,0,4.68-2.736,6.768-6.444,6.768C8.64,64.84,5.58,62.824,5.58,58.072ZM25.776,67h2.952V51.3l9.468.324v-2.52l-9.936-.324c-1.692-.072-2.484.756-2.484,2.448Zm13.9-8.964A9.057,9.057,0,0,0,49.14,67.36a9.018,9.018,0,0,0,9.4-9.324,9.009,9.009,0,0,0-9.4-9.288A9.048,9.048,0,0,0,39.672,58.036Zm2.952,0c0-3.708,2.268-6.768,6.516-6.768,4.212,0,6.48,3.06,6.48,6.768,0,3.744-2.268,6.8-6.48,6.8C44.892,64.84,42.624,61.78,42.624,58.036Zm24.48,6.84V51.628h5.58v-2.52H67.1V43.6l-2.916.9v4.608h-3.96v2.52h3.96V64.912c0,1.656.756,2.556,2.448,2.448L73.4,67V64.48Zm8.712-6.84a9.433,9.433,0,1,0,9.468-9.288A9.057,9.057,0,0,0,75.816,58.036Zm2.952,0c0-3.708,2.268-6.768,6.516-6.768,4.212,0,6.48,3.06,6.48,6.768,0,3.744-2.268,6.8-6.48,6.8C81.036,64.84,78.768,61.78,78.768,58.036Zm24.48,6.84V51.628h5.58v-2.52h-5.58V43.6l-2.916.9v4.608h-3.96v2.52h3.96V64.912c0,1.656.756,2.556,2.448,2.448l6.768-.36V64.48Zm23.688-15.768L121.32,63.04v1.368h-.864V63.04L114.84,49.108H111.6l7.812,17.712v4.608l-6.444-.324v2.52l6.912.324c1.692.072,2.484-.756,2.484-2.124v-5l7.776-17.712Zm6.552,0V73.552h2.952v-9.18l-.468-2.016h.828c.756,2.772,3.132,5,7.236,5,5.184,0,8.532-4,8.532-9.288,0-5.328-3.348-9.324-8.532-9.324-4.1,0-6.48,2.232-7.236,5.04h-.828l.468-2.052V49.108Zm2.952,8.964c0-4.788,3.06-6.8,6.732-6.8,3.708,0,6.444,2.088,6.444,6.8,0,4.68-2.736,6.768-6.444,6.768C139.5,64.84,136.44,62.824,136.44,58.072Zm19.476-.252c0,5.148,2.7,9.54,9.108,9.54a8.245,8.245,0,0,0,8.532-6.624H170.6c-.648,2.736-2.628,4.176-5.58,4.176-4.428,0-6.048-2.916-6.228-6.3h14.148V57.46c0-5.508-3.312-8.712-8.352-8.712C159.516,48.748,155.916,52.06,155.916,57.82Zm2.88-1.44c0-2.88,2.268-5.148,5.8-5.148,3.564,0,5.472,2.268,5.472,5.148Zm36.5-10.116a2.5,2.5,0,1,0-2.592-2.52A2.521,2.521,0,0,0,195.3,46.264ZM189.324,67h12.852V64.48h-5.04V50.908a1.918,1.918,0,0,0-2.34-2.16l-4.14.36v2.52l3.708-.324V64.48h-5.04Zm30.168-4.644c0-3.852-3.816-4.644-7.344-5.8-2.88-.936-4.1-1.476-4.1-3.2,0-1.62,1.584-2.2,3.564-2.2,2.844,0,4.32,1.188,4.32,3.6h2.952c0-2.952-1.692-6.012-7.272-6.012-4.1,0-6.516,1.872-6.516,4.716,0,3.24,2.736,4.284,6.12,5.364,2.916.9,5.328,1.3,5.328,3.636,0,1.836-1.3,2.484-4.068,2.484-3.456,0-5.256-1.44-5.256-4.536h-2.952c0,4.248,2.376,6.948,8.172,6.948C217.8,67.36,219.492,65.056,219.492,62.356ZM233.46,49.108,238,67h6.048l3.636-17.028h.864L252.18,67h6.012l4.536-17.892h-2.772L255.6,66.172h-.828l-3.636-17.064h-6.084l-3.6,17.064h-.864l-4.32-17.064Zm31.248,8.928a9.433,9.433,0,1,0,9.468-9.288A9.057,9.057,0,0,0,264.708,58.036Zm2.952,0c0-3.708,2.268-6.768,6.516-6.768,4.212,0,6.48,3.06,6.48,6.768,0,3.744-2.268,6.8-6.48,6.8C269.928,64.84,267.66,61.78,267.66,58.036ZM287.676,67h2.952V51.3l9.468.324v-2.52l-9.936-.324c-1.692-.072-2.484.756-2.484,2.448Zm21.312-2.124V51.628h5.58v-2.52h-5.58V43.6l-2.916.9v4.608h-3.96v2.52h3.96V64.912c0,1.656.756,2.556,2.448,2.448l6.768-.36V64.48Zm20.628-16.128a6.577,6.577,0,0,0-6.876,5.508h-.828l.468-2.052V40.54h-2.952V67h2.952V59.08c0-4.824,2.664-7.812,6.444-7.812,3.06,0,4.536,1.44,4.536,5.184V67h2.916V56.056C336.276,51.088,333.648,48.748,329.616,48.748ZM352.44,62.032c0,1.872.792,5.328,5.976,5.328,4.32,0,6.228-2.556,6.912-5.292h.864l-.468,1.872v.972A1.907,1.907,0,0,0,367.848,67h3.168V64.48h-2.628V56.848c0-4.788-2.988-8.1-7.992-8.1-5.076,0-7.884,3.312-7.884,7.02h2.88c0-3.384,2.412-4.536,5-4.536,3.1,0,4.86,1.62,5.04,4.9l-7.128.684C354.132,57.244,352.44,59.188,352.44,62.032Zm2.952-.36c0-1.764,1.152-2.448,3.42-2.664l6.624-.684a6.294,6.294,0,0,1-6.66,6.516C356.688,64.84,355.392,63.724,355.392,61.672Zm36.108,3.2V51.628h5.58v-2.52H391.5V43.6l-2.916.9v4.608h-3.96v2.52h3.96V64.912c0,1.656.756,2.556,2.448,2.448L397.8,67V64.48Zm20.628-16.128a6.577,6.577,0,0,0-6.876,5.508h-.828l.468-2.052V40.54H401.94V67h2.952V59.08c0-4.824,2.664-7.812,6.444-7.812,3.06,0,4.536,1.44,4.536,5.184V67h2.916V56.056C418.788,51.088,416.16,48.748,412.128,48.748Zm10.692,9.288a9.433,9.433,0,1,0,9.468-9.288A9.057,9.057,0,0,0,422.82,58.036Zm2.952,0c0-3.708,2.268-6.768,6.516-6.768,4.212,0,6.48,3.06,6.48,6.768,0,3.744-2.268,6.8-6.48,6.8C428.04,64.84,425.772,61.78,425.772,58.036Zm27.144,6.8c-3.1,0-4.536-1.44-4.536-5.184V49.108h-2.952V60.052c0,4.968,2.628,7.308,6.7,7.308A6.577,6.577,0,0,0,459,61.852h.828L459.36,63.9V67h2.916V49.108H459.36v7.956C459.36,61.852,456.7,64.84,452.916,64.84Zm28.332-2.484c0-3.852-3.816-4.644-7.344-5.8-2.88-.936-4.1-1.476-4.1-3.2,0-1.62,1.584-2.2,3.564-2.2,2.844,0,4.32,1.188,4.32,3.6h2.952c0-2.952-1.692-6.012-7.272-6.012-4.1,0-6.516,1.872-6.516,4.716,0,3.24,2.736,4.284,6.12,5.364,2.916.9,5.328,1.3,5.328,3.636,0,1.836-1.3,2.484-4.068,2.484-3.456,0-5.256-1.44-5.256-4.536H466.02c0,4.248,2.376,6.948,8.172,6.948C479.556,67.36,481.248,65.056,481.248,62.356Zm2.736-.324c0,1.872.792,5.328,5.976,5.328,4.32,0,6.228-2.556,6.912-5.292h.864l-.468,1.872v.972A1.907,1.907,0,0,0,499.392,67h3.168V64.48h-2.628V56.848c0-4.788-2.988-8.1-7.992-8.1-5.076,0-7.884,3.312-7.884,7.02h2.88c0-3.384,2.412-4.536,5-4.536,3.1,0,4.86,1.62,5.04,4.9l-7.128.684C485.676,57.244,483.984,59.188,483.984,62.032Zm2.952-.36c0-1.764,1.152-2.448,3.42-2.664l6.624-.684a6.294,6.294,0,0,1-6.66,6.516C488.232,64.84,486.936,63.724,486.936,61.672Zm28.4-10.4c3.06,0,4.536,1.44,4.536,5.184V67h2.916V56.056c0-4.968-2.628-7.308-6.66-7.308a6.577,6.577,0,0,0-6.876,5.508h-.828L508.9,52.2v-3.1h-2.952V67H508.9V59.08C508.9,54.256,511.56,51.268,515.34,51.268ZM545.9,67V40.54h-2.952v11.2l.5,2.052h-.864c-.756-2.808-3.168-5.04-7.236-5.04-5.184,0-8.532,4-8.532,9.288,0,5.328,3.348,9.324,8.532,9.324,4.068,0,6.48-2.232,7.236-5h.864l-.5,2.016V67Zm-2.952-8.964c0,4.788-3.024,6.8-6.732,6.8s-6.444-2.016-6.444-6.8c0-4.752,2.736-6.768,6.444-6.768S542.952,53.284,542.952,58.036Zm42.228-9.288c-3.816,0-5.688,2.2-6.408,5.436h-.54c-.4-3.2-2.124-5.436-5.364-5.436-3.816,0-5.688,2.2-6.408,5.436h-.828l.468-2.016v-3.06h-2.952V67H566.1V59.116c0-4.68,2.124-7.848,5.688-7.848,2.916,0,3.672,1.692,3.672,5.148V67h2.952V59.116c0-4.68,2.124-7.848,5.688-7.848,2.916,0,3.672,1.692,3.672,5.148V67h2.952V55.732C590.724,51.736,588.924,48.748,585.18,48.748Zm9.54,9.072c0,5.148,2.7,9.54,9.108,9.54a8.244,8.244,0,0,0,8.532-6.624h-2.952c-.648,2.736-2.628,4.176-5.58,4.176-4.428,0-6.048-2.916-6.228-6.3h14.148V57.46c0-5.508-3.312-8.712-8.352-8.712C598.32,48.748,594.72,52.06,594.72,57.82Zm2.88-1.44c0-2.88,2.268-5.148,5.8-5.148,3.564,0,5.472,2.268,5.472,5.148Zm18.108,1.44c0,5.148,2.7,9.54,9.108,9.54a8.244,8.244,0,0,0,8.532-6.624H630.4c-.648,2.736-2.628,4.176-5.58,4.176-4.428,0-6.048-2.916-6.228-6.3h14.148V57.46c0-5.508-3.312-8.712-8.352-8.712C619.308,48.748,615.708,52.06,615.708,57.82Zm2.88-1.44c0-2.88,2.268-5.148,5.8-5.148,3.564,0,5.472,2.268,5.472,5.148Zm23.292,8.5V51.628h5.58v-2.52h-5.58V43.6l-2.916.9v4.608H635v2.52h3.96V64.912c0,1.656.756,2.556,2.448,2.448L648.18,67V64.48Zm15.408-18.612a2.5,2.5,0,1,0-2.592-2.52A2.521,2.521,0,0,0,657.288,46.264ZM651.312,67h12.852V64.48h-5.04V50.908a1.918,1.918,0,0,0-2.34-2.16l-4.14.36v2.52l3.708-.324V64.48h-5.04Zm25.956-15.732c3.06,0,4.536,1.44,4.536,5.184V67h2.916V56.056c0-4.968-2.628-7.308-6.66-7.308a6.577,6.577,0,0,0-6.876,5.508h-.828l.468-2.052v-3.1h-2.952V67h2.952V59.08C670.824,54.256,673.488,51.268,677.268,51.268Zm30.564-2.16a6.262,6.262,0,0,0-4.176,1.368,10.73,10.73,0,0,0-6.084-1.728c-5.148,0-9.18,2.3-9.18,7.236,0,5.544,5.04,7.416,10.8,5.94v.828c-2.772.864-5.616,1.692-8.5,2.484l.612,2.052c4.428-1.332,12.312-3.24,12.312.72,0,2.808-3.672,3.06-13.932,3.06v2.52c11.988,0,16.884-.612,16.884-5.364,0-3.96-4.032-4.536-8.208-3.852,5.4-1.98,8.424-4.392,8.424-8.244a5.943,5.943,0,0,0-1.224-3.78,3.563,3.563,0,0,1,2.34-.72h1.512v-2.52ZM697.608,60.88c-3.744,0-6.264-1.332-6.264-4.824,0-3.456,2.52-4.788,6.264-4.788,3.78,0,6.228,1.332,6.228,4.788C703.836,59.548,701.388,60.88,697.608,60.88Zm29.3,1.476c0-3.852-3.816-4.644-7.344-5.8-2.88-.936-4.1-1.476-4.1-3.2,0-1.62,1.584-2.2,3.564-2.2,2.844,0,4.32,1.188,4.32,3.6H726.3c0-2.952-1.692-6.012-7.272-6.012-4.1,0-6.516,1.872-6.516,4.716,0,3.24,2.736,4.284,6.12,5.364,2.916.9,5.328,1.3,5.328,3.636,0,1.836-1.3,2.484-4.068,2.484-3.456,0-5.256-1.44-5.256-4.536h-2.952c0,4.248,2.376,6.948,8.172,6.948C725.22,67.36,726.912,65.056,726.912,62.356Zm6.372,5a2.988,2.988,0,1,0,0-5.976,2.988,2.988,0,1,0,0,5.976Zm9-27.072v9.144h2.7V40.288Zm4.932,0v9.144h2.7V40.288ZM1.245,98.725V99.73H8.4V98.725ZM17.91,94.36a1.043,1.043,0,1,0-1.08-1.05A1.05,1.05,0,0,0,17.91,94.36ZM15.42,103h5.355v-1.05h-2.1V96.295a.8.8,0,0,0-.975-.9l-1.725.15V96.6l1.545-.135v5.49h-2.1Zm14.145,0V91.975h-1.23V96.64l.21.855h-.36a2.883,2.883,0,0,0-3.015-2.1,3.892,3.892,0,0,0,0,7.755,2.888,2.888,0,0,0,3.015-2.085h.36l-.21.84V103Zm-1.23-3.735A2.583,2.583,0,0,1,25.53,102.1a2.831,2.831,0,0,1,0-5.655A2.579,2.579,0,0,1,28.335,99.265Zm3.03-.09c0,2.145,1.125,3.975,3.8,3.975a3.435,3.435,0,0,0,3.555-2.76h-1.23a2.168,2.168,0,0,1-2.325,1.74,2.437,2.437,0,0,1-2.6-2.625h5.9v-.48a3.3,3.3,0,0,0-3.48-3.63A3.456,3.456,0,0,0,31.365,99.175Zm1.2-.6A2.2,2.2,0,0,1,34.98,96.43a2.077,2.077,0,0,1,2.28,2.145Zm7.545.69a3.93,3.93,0,1,0,3.945-3.87A3.774,3.774,0,0,0,40.11,99.265Zm1.23,0a2.71,2.71,0,1,1,2.715,2.835A2.616,2.616,0,0,1,41.34,99.265Z" transform="translate(-5663 -863)" fill="#fff"/>
    <path id="Path_2" data-name="Path 2" d="M11.559,16.388a.123.123,0,0,1-.059.118q-.059.032-.027.15a.233.233,0,0,0-.15.086.193.193,0,0,1-.15.075.1.1,0,0,1-.086-.054.168.168,0,0,1-.081.107.758.758,0,0,1-.124.054.984.984,0,0,0-.129.054.163.163,0,0,0-.086.1h-.054a.223.223,0,0,0-.2.107.2.2,0,0,1-.167.107.062.062,0,0,1-.043-.011q-.054.011-.043.07a.067.067,0,0,1-.032.081h-.054a1.5,1.5,0,0,0-.569.118q-.29.118-.585.269t-.6.285a2.324,2.324,0,0,1-.618.177.471.471,0,0,1-.156.1,1.074,1.074,0,0,1-.2.059q-.107.021-.209.048a.44.44,0,0,0-.177.091,2.823,2.823,0,0,0-.537.1q-.269.075-.532.145t-.537.118a2.2,2.2,0,0,1-.553.027.735.735,0,0,1-.188.1.735.735,0,0,0-.188.1q-.44-.064-.875-.1a4.311,4.311,0,0,1-.854-.15.043.043,0,0,0-.021-.043.192.192,0,0,0-.048-.016.118.118,0,0,1-.048-.021q-.021-.016,0-.059a.552.552,0,0,1-.172.032.445.445,0,0,1-.209-.054q-.1-.054-.215-.118t-.231-.124a.568.568,0,0,0-.258-.059,2.253,2.253,0,0,1-.156-.172.545.545,0,0,1-.1-.215.2.2,0,0,0-.091,0,.384.384,0,0,1-.081.011Q1,18.085,1,18.042A1.029,1.029,0,0,1,.677,17.7q-.1-.183-.215-.419a.389.389,0,0,0-.081-.124.285.285,0,0,1-.07-.113.8.8,0,0,1-.054-.226Q.247,16.7.242,16.586a1.223,1.223,0,0,0-.032-.226.544.544,0,0,0-.1-.209A7.03,7.03,0,0,1,.2,15.335q.07-.408.177-.816.043-.183.1-.354t.1-.354a.167.167,0,0,1,.038-.091.2.2,0,0,1,.048-.038L.7,13.648a.136.136,0,0,0,.032-.064l.086-.365a4.541,4.541,0,0,1,.226-.687,2.35,2.35,0,0,1,.376-.612,1.639,1.639,0,0,1,.124-.51,4.8,4.8,0,0,1,.231-.473q.129-.231.258-.457a2.227,2.227,0,0,0,.2-.483l-.011-.021q0-.043.048-.048t.07-.005a.679.679,0,0,1,.081-.3,2.136,2.136,0,0,1,.15-.231,2.136,2.136,0,0,0,.15-.231.679.679,0,0,0,.081-.3,1.266,1.266,0,0,0,.349-.3q.145-.177.279-.365t.285-.365a1.144,1.144,0,0,1,.365-.285.214.214,0,0,0,.032-.183,5.874,5.874,0,0,1,.688-.44,4.187,4.187,0,0,0,.666-.451h.387a.5.5,0,0,1,.312-.107.627.627,0,0,1,.252.054,1.849,1.849,0,0,1,.236.124q.113.07.231.14a.963.963,0,0,0,.236.1,1,1,0,0,1,.167.371q.048.209.1.392a2.412,2.412,0,0,0-.118.6,5.733,5.733,0,0,1-.075.607.972.972,0,0,0-.129.188q-.054.1-.113.2t-.124.193a.455.455,0,0,1-.172.145,1.094,1.094,0,0,1-.269.494,3.148,3.148,0,0,0-.354.43.609.609,0,0,1-.344.107.518.518,0,0,1-.269-.07.858.858,0,0,1-.215-.183.991.991,0,0,1-.156-.247,1.645,1.645,0,0,1-.091-.263A.946.946,0,0,1,5.2,9.373q.167-.161.338-.322a2.249,2.249,0,0,0,.3-.344.744.744,0,0,0,.129-.44.177.177,0,0,0-.005-.043.177.177,0,0,1-.005-.043.1.1,0,0,1,.032-.075.427.427,0,0,1,.064-.054L6.123,8a.1.1,0,0,0,.032-.075.124.124,0,0,0-.043-.086,1.693,1.693,0,0,0-.618.14,1.154,1.154,0,0,0-.328.236,3.12,3.12,0,0,0-.209.252.5.5,0,0,1-.263.177.4.4,0,0,1-.091.145q-.059.059-.124.118a.68.68,0,0,0-.113.134.408.408,0,0,0-.059.183H4.114a.739.739,0,0,1-.124.188q-.081.091-.161.177a1.024,1.024,0,0,0-.14.188.314.314,0,0,0-.038.22.333.333,0,0,0-.177.14.48.48,0,0,1-.167.161v.064a.4.4,0,0,1-.032.161.247.247,0,0,0-.011.161.688.688,0,0,0-.188.3q-.059.177-.124.328a.4.4,0,0,0-.2.2.778.778,0,0,0-.054.3,1.939,1.939,0,0,0-.29.376,4.3,4.3,0,0,0-.231.44q-.1.226-.188.462t-.183.44v.312a.965.965,0,0,0-.209.4,1.389,1.389,0,0,1-.177.414,1.05,1.05,0,0,0-.016.236q.005.118.005.236a1.767,1.767,0,0,1-.021.269.98.98,0,0,1-.075.258,2.4,2.4,0,0,1,.064.381,3.146,3.146,0,0,0,.075.44,1.636,1.636,0,0,0,.15.4.5.5,0,0,0,.279.242.55.55,0,0,0,.209.36,1.425,1.425,0,0,0,.381.2q.215.075.44.134a1.673,1.673,0,0,1,.4.156.332.332,0,0,1,.15-.032.528.528,0,0,1,.156.021q.07.021.156.043a2.684,2.684,0,0,1,.371-.021q.22,0,.446-.016a2.879,2.879,0,0,0,.419-.059.618.618,0,0,0,.312-.161.111.111,0,0,1,.1.043.111.111,0,0,0,.1.043,1.028,1.028,0,0,0,.226-.038q.15-.038.312-.086t.306-.1a1.08,1.08,0,0,0,.209-.1.2.2,0,0,0,.064.011h.075a.719.719,0,0,0,.279-.054.522.522,0,0,1,.279-.032,8.429,8.429,0,0,1,1-.424q.51-.177,1.037-.317a.385.385,0,0,1,.156-.14,1.082,1.082,0,0,1,.2-.07q.107-.027.215-.043a1.214,1.214,0,0,0,.2-.048.43.43,0,0,0,.113-.081.389.389,0,0,1,.124-.081.6.6,0,0,1,.167-.043q.091-.011.183-.027a.867.867,0,0,0,.172-.048A.3.3,0,0,0,10.979,16q.15.064.306.14a.727.727,0,0,1,.263.215ZM23.384,5.259q0,.1-.005.193t-.016.183a.115.115,0,0,1-.124.043,1.31,1.31,0,0,0-.145-.011A.231.231,0,0,0,23,5.683a.068.068,0,0,0-.038.07.223.223,0,0,0,.011.086l-.183-.021a.359.359,0,0,1-.172-.064,1.755,1.755,0,0,0-.285.086q-.134.054-.263.118t-.269.118a1,1,0,0,1-.29.064.594.594,0,0,1-.247.161q-.15.054-.312.1a2.278,2.278,0,0,0-.3.1.527.527,0,0,0-.226.177,1.4,1.4,0,0,0-.451.118q-.215.1-.424.2t-.424.2a1.634,1.634,0,0,1-.462.129.547.547,0,0,1-.156.107q-.091.043-.188.081t-.183.081a.374.374,0,0,0-.14.118h-.021a.088.088,0,0,1-.064-.021.088.088,0,0,0-.064-.021.062.062,0,0,0-.043.011q-.258.118-.516.247t-.537.247q-.548.226-1.106.44a6.781,6.781,0,0,0-1.074.526,8.852,8.852,0,0,0-.193.875,3.247,3.247,0,0,1-.269.854v.5a1.329,1.329,0,0,0-.14.451,3.658,3.658,0,0,0-.032.473q0,.086.005.156t.005.145q.312-.086.607-.193t.6-.193a1.529,1.529,0,0,1,.306-.075,1.529,1.529,0,0,0,.306-.075,1.617,1.617,0,0,0,.247-.091l.247-.113a6.947,6.947,0,0,1,.661-.247,4.528,4.528,0,0,1,.693-.161,1.952,1.952,0,0,1,.236-.161.508.508,0,0,1,.258-.075.359.359,0,0,1,.161.032,2.41,2.41,0,0,1,.43-.193A1.077,1.077,0,0,1,19.162,11a.27.27,0,0,1,.129-.1.476.476,0,0,1,.161-.027.57.57,0,0,1,.081.005.659.659,0,0,0,.091.005.708.708,0,0,1,.236-.107q.129-.032.258-.054a1.989,1.989,0,0,0,.252-.059.583.583,0,0,0,.22-.124.417.417,0,0,1,.242.086.7.7,0,0,1,.156.183,1.3,1.3,0,0,1,.107.226,1.3,1.3,0,0,0,.107.226.314.314,0,0,1-.064.134.785.785,0,0,1-.1.091,1.172,1.172,0,0,0-.1.086.2.2,0,0,0-.054.118,2.452,2.452,0,0,0-.725.107q-.349.107-.687.247t-.687.263a2.9,2.9,0,0,1-.714.156.386.386,0,0,1-.14.086l-.161.054a.607.607,0,0,0-.14.059.231.231,0,0,0-.1.113.308.308,0,0,0-.14-.032.714.714,0,0,0-.354.1.775.775,0,0,1-.387.1.432.432,0,0,1-.118-.011.312.312,0,0,1-.156.14,1.371,1.371,0,0,1-.215.07,1.371,1.371,0,0,0-.215.07.3.3,0,0,0-.156.15.238.238,0,0,0-.075-.011H15.66a1.533,1.533,0,0,0-.392.059.5.5,0,0,0-.317.22.631.631,0,0,0-.15-.021.592.592,0,0,0-.269.059,2.638,2.638,0,0,0-.236.134l-.236.15a.82.82,0,0,1-.258.107,2.43,2.43,0,0,0-.387.913,9.12,9.12,0,0,0-.156,1.074q-.048.559-.091,1.112A5.307,5.307,0,0,1,13,18.16a1.951,1.951,0,0,1,.1.365q.032.193.054.392t.043.4a2.175,2.175,0,0,0,.075.387.928.928,0,0,0,.209.4,1.033,1.033,0,0,1,.22.4,1.068,1.068,0,0,0,.113.016q.059.005.124.005a1.483,1.483,0,0,0,.682-.15,2.818,2.818,0,0,0,.553-.371,6.861,6.861,0,0,0,.5-.473,3.4,3.4,0,0,1,.521-.446h.2a1.055,1.055,0,0,0,.129-.183,1.594,1.594,0,0,1,.118-.183.642.642,0,0,1,.15-.145A.528.528,0,0,1,17,18.5a.385.385,0,0,1,.15-.247A.435.435,0,0,0,17.315,18a.12.12,0,0,0,.054.011.175.175,0,0,0,.129-.043l.161-.15a2.146,2.146,0,0,1,.188-.167l.2-.156q.312-.226.623-.446a3.338,3.338,0,0,0,.569-.51.044.044,0,0,0,.032.011.126.126,0,0,0,.118-.054q.032-.054.15-.032a2.233,2.233,0,0,0,.118-.2,1.083,1.083,0,0,0,.086-.22l.344.043a2.769,2.769,0,0,0,.344.021.925.925,0,0,0,.1-.005.269.269,0,0,0,.091-.027.88.88,0,0,1,.14.435,3.242,3.242,0,0,0,.054.457.042.042,0,0,1-.027-.005.042.042,0,0,0-.027-.005.164.164,0,0,0-.1.038,1.11,1.11,0,0,0-.1.091l-.107.107a.932.932,0,0,1-.1.086,2.052,2.052,0,0,1-.247.134q-.129.059-.247.124a1.336,1.336,0,0,0-.226.156.662.662,0,0,0-.172.231q-.215.086-.414.183t-.381.2a1.308,1.308,0,0,0-.1.107.38.38,0,0,0-.064.118,1.169,1.169,0,0,0-.478.29q-.188.193-.381.419l-.011-.011q-.075,0-.091.054t-.124.032a4.734,4.734,0,0,1-.43.419q-.226.193-.462.387t-.473.392a4.49,4.49,0,0,0-.44.424,1.751,1.751,0,0,0-.269.107.422.422,0,0,0-.193.193h-.032a.216.216,0,0,0-.167.054q-.048.054-.113.14-.226.054-.462.118a1.829,1.829,0,0,1-.483.064.848.848,0,0,1-.328-.064,1.556,1.556,0,0,1-.3-.167,2.315,2.315,0,0,1-.269-.22q-.124-.118-.231-.226A3.828,3.828,0,0,0,12.6,20.5a1.1,1.1,0,0,1-.1-.446.321.321,0,0,1,.016-.1.289.289,0,0,0,.016-.091q0-.075-.048-.064t-.07-.054a1.556,1.556,0,0,1-.027-.242,1.819,1.819,0,0,0-.027-.252q-.032-.247-.081-.5t-.1-.5a.164.164,0,0,0,.07-.07.8.8,0,0,1,.059-.091,1.949,1.949,0,0,1-.059-.188.82.82,0,0,1-.027-.209.361.361,0,0,1,.161-.322.153.153,0,0,0-.038-.113.17.17,0,0,1-.038-.124q0-.021.016-.124t.043-.231q.027-.129.048-.247t.032-.161q.075-.494.129-.972t.15-.961a.783.783,0,0,0-.274-.134.43.43,0,0,1-.231-.134.605.605,0,0,1-.086-.193.793.793,0,0,1-.032-.2.6.6,0,0,1,.247-.5,1.061,1.061,0,0,1,.526-.22,4.435,4.435,0,0,0,.209-.768q.07-.392.113-.79l.086-.806a7.549,7.549,0,0,1,.129-.806h-.064a1.383,1.383,0,0,0-.419.064,1.383,1.383,0,0,1-.419.064h-.021a.734.734,0,0,1-.312-.591A1.045,1.045,0,0,1,12.266,9a1.2,1.2,0,0,0,.312-.172l.285-.22a2.51,2.51,0,0,1,.3-.2A.868.868,0,0,1,13.49,8.3a3.154,3.154,0,0,1,.107-.623,2.334,2.334,0,0,0,.086-.623q0-.064-.005-.129a.551.551,0,0,0-.027-.129.548.548,0,0,0,.1-.2.927.927,0,0,0,.027-.226,1.95,1.95,0,0,0-.016-.252q-.016-.124-.038-.242a.574.574,0,0,0,.15-.091l.1-.091a.453.453,0,0,1,.124-.075.564.564,0,0,1,.215-.032.709.709,0,0,1,.349.081.887.887,0,0,1,.252.209,1.5,1.5,0,0,1,.188.29q.081.161.156.322a.256.256,0,0,1-.1.172.484.484,0,0,0-.129.14q.021.172.043.328a1.254,1.254,0,0,1,0,.328.457.457,0,0,0,.2.054.537.537,0,0,0,.3-.086.455.455,0,0,0,.188-.236h.021a.092.092,0,0,1,.059.021.108.108,0,0,0,.07.021h.043a.907.907,0,0,1,.258-.167q.14-.059.29-.113t.3-.113a1.226,1.226,0,0,0,.274-.156.308.308,0,0,0,.14.032.535.535,0,0,0,.209-.043q.1-.043.2-.091t.209-.091a.673.673,0,0,1,.242-.043.338.338,0,0,1,.054.005.338.338,0,0,0,.054.005q.075,0,.086-.054a.22.22,0,0,0,0-.1,3.626,3.626,0,0,0,.6-.2q.252-.113.564-.263,0-.011.021-.011a.042.042,0,0,1,.043.032.177.177,0,0,1,.011.054.122.122,0,0,0,.07-.107.227.227,0,0,1,.048-.129.533.533,0,0,0,.317-.032,2.035,2.035,0,0,0,.2-.1q.1-.054.193-.1a.473.473,0,0,1,.193-.043.217.217,0,0,1,.14.043.571.571,0,0,0,.129-.091.2.2,0,0,1,.14-.059.066.066,0,0,1,.038.011.351.351,0,0,0,.038.021.684.684,0,0,1,.1-.086.119.119,0,0,0,.048-.107,2.8,2.8,0,0,0,.736-.177,2.982,2.982,0,0,0,.65-.36q.118.021.231.048a.994.994,0,0,0,.231.027q.064.118.118.236t.236.107a1.049,1.049,0,0,1,.016.118Q23.384,5.205,23.384,5.259Zm9.946,1.8a.766.766,0,0,0-.091.226,1.8,1.8,0,0,0-.038.236h-.075a.389.389,0,0,1-.15-.027,1.065,1.065,0,0,0-.15-.048q.043.408.054.827t.011.827q0,.516-.011,1.026t-.011,1.026a4.423,4.423,0,0,1-.027.489,1.454,1.454,0,0,1-.134.467q.021.183.032.349t.011.349a8.544,8.544,0,0,1-.059,1q-.059.5-.145.994-.032.193-.059.392a2.569,2.569,0,0,1-.081.381.534.534,0,0,1-.059.107.534.534,0,0,0-.059.107q-.129.279-.285.553a2.546,2.546,0,0,1-.371.5.811.811,0,0,0-.312.086.63.63,0,0,1-.279.075.223.223,0,0,1-.193-.118l-.107.043a.57.57,0,0,1-.118.032,4.124,4.124,0,0,1-.693-.365,1.8,1.8,0,0,1-.542-.559h-.043A.192.192,0,0,1,29.2,16a1.165,1.165,0,0,1-.113-.134q-.059-.081-.1-.145-.129-.2-.279-.408a1.468,1.468,0,0,0-.354-.344,1.612,1.612,0,0,0-.258-.553q-.172-.231-.354-.5a2.614,2.614,0,0,0-.516-1q.054-.054.054-.075a.124.124,0,0,0-.038-.091.113.113,0,0,1-.038-.081.088.088,0,0,1,.021-.064A1.381,1.381,0,0,1,27,12.268q-.091-.188-.172-.381t-.172-.387a1.785,1.785,0,0,0-.22-.354.307.307,0,0,0-.145.183.927.927,0,0,0-.027.226q0,.086.005.172t.005.172a1.812,1.812,0,0,1-.048.419,3.2,3.2,0,0,0-.07.419,3.329,3.329,0,0,0-.005.333,3.111,3.111,0,0,1-.011.365,2.289,2.289,0,0,1-.059.354.661.661,0,0,1-.15.29q-.064.612-.161,1.225t-.183,1.225q-.021.107-.043.269t-.048.328q-.027.167-.043.322t-.016.252a.445.445,0,0,0,.054.209.425.425,0,0,1,.054.2q0,.075-.048.091a.092.092,0,0,0-.059.081,1.77,1.77,0,0,1,.075.537,1.517,1.517,0,0,1-.011.177,1.409,1.409,0,0,1-.032.177.279.279,0,0,1-.075.1.132.132,0,0,0-.054.091.069.069,0,0,0,.043.064.321.321,0,0,1-.161.086.193.193,0,0,0-.14.118q-.107-.086-.215-.156a1.708,1.708,0,0,1-.2-.156l-.032-.011a.167.167,0,0,0-.124.048.167.167,0,0,1-.124.048.119.119,0,0,1-.038-.005.119.119,0,0,0-.038-.005l-.064-.279a1.361,1.361,0,0,0-.086-.258,1.944,1.944,0,0,0,.113-.51q.027-.285.059-.575a4.339,4.339,0,0,1,.1-.553,1.052,1.052,0,0,1,.236-.457.123.123,0,0,0-.059-.118q-.059-.032-.059-.14a.313.313,0,0,1,.016-.075q.016-.054.032-.118t.032-.124q.016-.059.027-.091.086-.419.134-.859a2.086,2.086,0,0,1,.263-.816.573.573,0,0,1-.011-.129,1.654,1.654,0,0,1,.038-.354,1.654,1.654,0,0,0,.038-.354,1.15,1.15,0,0,0-.032-.279,1.148,1.148,0,0,1,.091-.231.492.492,0,0,0,.059-.231.158.158,0,0,0-.075-.15.2.2,0,0,0,.07-.1.571.571,0,0,0,.021-.107.469.469,0,0,1,.021-.1.147.147,0,0,1,.081-.081q-.011-.107-.016-.2t-.005-.2a7.242,7.242,0,0,1,.043-.79,7.342,7.342,0,0,0,.043-.8,4.57,4.57,0,0,0-.064-.773l.118-.236a.433.433,0,0,1-.14-.279,3.6,3.6,0,0,1-.043-.419q-.011-.226-.038-.446a.793.793,0,0,0-.124-.36V7.7a2.518,2.518,0,0,0-.021-.333,2.436,2.436,0,0,1-.021-.322v-.1a.15.15,0,0,0,.081-.075.428.428,0,0,0,.038-.107h.043a1.566,1.566,0,0,0,.258-.021,1.566,1.566,0,0,1,.258-.021h.14a1.122,1.122,0,0,1,.226.226,1.231,1.231,0,0,0,.236.236v.193a1.054,1.054,0,0,1,.15.279q.054.15.113.312t.124.312a.735.735,0,0,0,.183.258.924.924,0,0,0-.021.172,1.476,1.476,0,0,0,.027.279,2.542,2.542,0,0,1,.038.269.527.527,0,0,1,.075.134.16.16,0,0,0,.107.1,2.846,2.846,0,0,0,.22.795,3.492,3.492,0,0,1,.242.784.544.544,0,0,1,.129.209q.043.124.091.242a1.8,1.8,0,0,0,.107.22.326.326,0,0,0,.177.145,4.747,4.747,0,0,0,.161.516,1.1,1.1,0,0,0,.3.44.9.9,0,0,0,.07.371,1.887,1.887,0,0,0,.161.29q.091.134.167.263a.763.763,0,0,1,.1.279,2.581,2.581,0,0,0,.349.419q.2.193.408.371t.414.36a3.824,3.824,0,0,1,.376.387.6.6,0,0,1,.2.048.829.829,0,0,0,.188.059.443.443,0,0,0,.124-.134q.048-.081.091-.167t.091-.167a.591.591,0,0,1,.124-.145.119.119,0,0,0-.005-.038A.119.119,0,0,1,31.428,15a.4.4,0,0,1,.038-.188q.038-.07.091-.156v-.279a1.151,1.151,0,0,0,.118-.344,2.1,2.1,0,0,0,.032-.365q0-.15-.011-.306t-.011-.317a1.9,1.9,0,0,1,.011-.2.76.76,0,0,1,.043-.188q.021-.021.075-.07t.054-.059a.207.207,0,0,0-.032-.107.207.207,0,0,1-.032-.107.135.135,0,0,1,.064-.118v-.064a.321.321,0,0,0-.016-.1.113.113,0,0,0-.07-.07.372.372,0,0,0,.075-.156,1.094,1.094,0,0,0,.027-.193,1.84,1.84,0,0,0,0-.2q-.005-.1-.005-.183t.011-.2a.292.292,0,0,1,.086-.183,1.619,1.619,0,0,1-.043-.252q-.011-.124-.011-.252,0-.226.021-.451t.021-.462a1.517,1.517,0,0,0-.011-.177,1.517,1.517,0,0,1-.011-.177q0-.086.038-.081t.038-.048A.716.716,0,0,0,32,8.793q-.016-.075-.027-.15-.021-.183-.032-.371t-.011-.381q0-.118.005-.242a1.1,1.1,0,0,1,.038-.242.5.5,0,0,1-.081-.188q-.016-.091-.027-.167l-.021-.161a.423.423,0,0,0-.064-.172.112.112,0,0,1-.011-.064.175.175,0,0,1,.043-.129,1.892,1.892,0,0,0-.145-.354,1.021,1.021,0,0,1-.113-.376.4.4,0,0,1-.177-.209.706.706,0,0,1-.059-.263.555.555,0,0,1,.075-.274.252.252,0,0,1,.236-.134.227.227,0,0,1,.124.038,1.229,1.229,0,0,1,.118.086,1.229,1.229,0,0,0,.118.086.227.227,0,0,0,.124.038.588.588,0,0,0,.129-.021,3.443,3.443,0,0,0,.242.3l.252.274a.837.837,0,0,0,.064.333,3,3,0,0,0,.14.285q.075.134.134.263a.563.563,0,0,1,.048.279.164.164,0,0,0,.086.107A.453.453,0,0,1,33.33,7.063Zm13.007-.3a.431.431,0,0,1-.183.064q-.1.011-.2.027a.962.962,0,0,0-.188.048.231.231,0,0,0-.129.118,1.159,1.159,0,0,0-.236-.183q-.129-.075-.258-.161a1.344,1.344,0,0,0-.215.086.477.477,0,0,1-.215.054.258.258,0,0,1-.15-.054.694.694,0,0,1-.2.1q-.113.038-.236.07a1.054,1.054,0,0,0-.226.086.3.3,0,0,0-.145.161q-.021-.054-.1-.032T43.565,7.1q-.344.118-.7.2t-.709.183q-.354.1-.7.215a4.57,4.57,0,0,0-.666.29.044.044,0,0,0-.011.032.641.641,0,0,0,.032.2q.032.1.054.183a7.062,7.062,0,0,0-.258,1.332q-.064.677-.172,1.332v.043a.089.089,0,0,0,.043.081.1.1,0,0,1,.043.091l-.011.021a.172.172,0,0,0-.075.091.359.359,0,0,0-.021.124.588.588,0,0,0,.021.129A6.441,6.441,0,0,0,40.2,12.9q-.059.634-.145,1.268l-.1.709q-.021.064-.038.124a.467.467,0,0,0-.016.124,4.594,4.594,0,0,0,.048.671,3.214,3.214,0,0,1,.027.671.538.538,0,0,1,.1.29q0,.054-.005.107t-.016.107a.793.793,0,0,0,.328.2.955.955,0,0,1,.338.188V17.4a.692.692,0,0,1-.032.209,1.993,1.993,0,0,0-.054.209q-.021.086-.048.247a.508.508,0,0,1-.07.215.487.487,0,0,1-.156.134.4.4,0,0,1-.2.059.214.214,0,0,1-.091-.032q-.059-.032-.091-.054a.287.287,0,0,0-.14.054.322.322,0,0,1-.172.054.463.463,0,0,1-.075-.005.275.275,0,0,1-.075-.027.554.554,0,0,0-.124-.188,1.4,1.4,0,0,0-.188-.156.3.3,0,0,0-.054-.226,1.129,1.129,0,0,1-.129-.193q-.021-.15-.038-.344a.331.331,0,0,0-.167-.279.345.345,0,0,0,.054-.2.49.49,0,0,0-.016-.118.15.15,0,0,0-.07-.1v-.021a.069.069,0,0,1,.038-.081.087.087,0,0,0,.048-.081v-.043a3.36,3.36,0,0,1-.075-.72q0-.354.021-.7a5.766,5.766,0,0,0,0-.7.36.36,0,0,0,.1-.172,1.707,1.707,0,0,0,.059-.258,2.443,2.443,0,0,0,.027-.274q.005-.134.016-.22a11.282,11.282,0,0,1,.172-1.208,7.61,7.61,0,0,0,.14-1.219.494.494,0,0,0,.064-.226q.011-.14.011-.3a2.162,2.162,0,0,1,.021-.306.685.685,0,0,1,.086-.258,3.507,3.507,0,0,1,.054-.607,3.568,3.568,0,0,0,.054-.618,1.588,1.588,0,0,0-.032-.312.528.528,0,0,0-.193-.043.661.661,0,0,0-.242.048.331.331,0,0,0-.177.145,2.007,2.007,0,0,0-.462.075,1.636,1.636,0,0,1-.451.064h-.107a.5.5,0,0,1-.1-.011,1.141,1.141,0,0,1-.156.054q-.081.021-.07.129a2.883,2.883,0,0,0-.65.14q-.317.107-.628.231t-.628.231a2.883,2.883,0,0,1-.65.14.283.283,0,0,0-.15.226.928.928,0,0,1-.4-.118,2.634,2.634,0,0,0-.376-.183,1.564,1.564,0,0,1-.064-.43,1.28,1.28,0,0,1,.107-.516.713.713,0,0,1,.344-.365q.054.011.1.016a.785.785,0,0,0,.1.005.973.973,0,0,0,.344-.064,1,1,0,0,1,.354-.064.267.267,0,0,1,.118.032A.713.713,0,0,1,35.739,8l.215-.054a.678.678,0,0,0,.188-.081.23.23,0,0,0,.107-.15.254.254,0,0,0,.118.054.783.783,0,0,0,.129.011.861.861,0,0,0,.29-.054.485.485,0,0,0,.236-.172.27.27,0,0,0,.215.086.6.6,0,0,0,.3-.081.584.584,0,0,1,.285-.081.185.185,0,0,1,.161.075.871.871,0,0,1,.279-.15q.161-.054.328-.1a3.2,3.2,0,0,0,.312-.1.564.564,0,0,0,.231-.15.973.973,0,0,0,.172.011,1.246,1.246,0,0,0,.349-.048q.167-.048.338-.091l.226-.021a.384.384,0,0,0,.156-.054,1.113,1.113,0,0,1,.145-.075,1.141,1.141,0,0,1,.156-.054.579.579,0,0,1,.2-.011,2.421,2.421,0,0,1,.548-.215q.29-.075.591-.134t.591-.14a2.078,2.078,0,0,0,.548-.242h.032a1.248,1.248,0,0,0,.424-.075,1.635,1.635,0,0,0,.392-.2.2.2,0,0,0,.064.011h.075a2.015,2.015,0,0,0,.585-.086,2.052,2.052,0,0,1,.6-.086.719.719,0,0,1,.29.048.873.873,0,0,1,.193.118q.086.07.183.134a.712.712,0,0,0,.247.1.826.826,0,0,1,.1.392Q46.326,6.548,46.337,6.763Zm10.171-1.5q0,.1-.005.193t-.016.183a.115.115,0,0,1-.124.043,1.31,1.31,0,0,0-.145-.011.231.231,0,0,0-.091.016.068.068,0,0,0-.038.07.223.223,0,0,0,.011.086l-.183-.021a.359.359,0,0,1-.172-.064,1.755,1.755,0,0,0-.285.086q-.134.054-.263.118t-.269.118a1,1,0,0,1-.29.064.594.594,0,0,1-.247.161q-.15.054-.312.1a2.277,2.277,0,0,0-.3.1.527.527,0,0,0-.226.177,1.4,1.4,0,0,0-.451.118q-.215.1-.424.2t-.424.2a1.634,1.634,0,0,1-.462.129.547.547,0,0,1-.156.107q-.091.043-.188.081t-.183.081a.374.374,0,0,0-.14.118H51.1A.088.088,0,0,1,51.04,7.7a.088.088,0,0,0-.064-.021.062.062,0,0,0-.043.011q-.258.118-.516.247t-.537.247q-.548.226-1.106.44a6.781,6.781,0,0,0-1.074.526,8.852,8.852,0,0,0-.193.875,3.247,3.247,0,0,1-.269.854v.5a1.329,1.329,0,0,0-.14.451,3.658,3.658,0,0,0-.032.473q0,.086.005.156t.005.145q.312-.086.607-.193t.6-.193a1.529,1.529,0,0,1,.306-.075,1.529,1.529,0,0,0,.306-.075,1.617,1.617,0,0,0,.247-.091l.247-.113a6.947,6.947,0,0,1,.661-.247,4.528,4.528,0,0,1,.693-.161,1.952,1.952,0,0,1,.236-.161.508.508,0,0,1,.258-.075.359.359,0,0,1,.161.032,2.41,2.41,0,0,1,.43-.193A1.077,1.077,0,0,1,52.286,11a.27.27,0,0,1,.129-.1.476.476,0,0,1,.161-.027.57.57,0,0,1,.081.005.659.659,0,0,0,.091.005.708.708,0,0,1,.236-.107q.129-.032.258-.054a1.989,1.989,0,0,0,.252-.059.583.583,0,0,0,.22-.124.417.417,0,0,1,.242.086.7.7,0,0,1,.156.183,1.3,1.3,0,0,1,.107.226,1.3,1.3,0,0,0,.107.226.314.314,0,0,1-.064.134.785.785,0,0,1-.1.091,1.172,1.172,0,0,0-.1.086.2.2,0,0,0-.054.118,2.452,2.452,0,0,0-.725.107q-.349.107-.687.247t-.687.263a2.9,2.9,0,0,1-.714.156.386.386,0,0,1-.14.086L50.9,12.6a.607.607,0,0,0-.14.059.231.231,0,0,0-.1.113.308.308,0,0,0-.14-.032.714.714,0,0,0-.354.1.775.775,0,0,1-.387.1.432.432,0,0,1-.118-.011.312.312,0,0,1-.156.14,1.371,1.371,0,0,1-.215.07,1.371,1.371,0,0,0-.215.07.3.3,0,0,0-.156.15.238.238,0,0,0-.075-.011h-.064a1.533,1.533,0,0,0-.392.059.5.5,0,0,0-.317.22.631.631,0,0,0-.15-.021.592.592,0,0,0-.269.059,2.638,2.638,0,0,0-.236.134l-.236.15a.82.82,0,0,1-.258.107,2.43,2.43,0,0,0-.387.913,9.12,9.12,0,0,0-.156,1.074q-.048.559-.091,1.112a5.307,5.307,0,0,1-.172,1.015,1.951,1.951,0,0,1,.1.365q.032.193.054.392t.043.4a2.175,2.175,0,0,0,.075.387.928.928,0,0,0,.209.4,1.033,1.033,0,0,1,.22.4,1.068,1.068,0,0,0,.113.016q.059.005.124.005a1.483,1.483,0,0,0,.682-.15,2.818,2.818,0,0,0,.553-.371,6.861,6.861,0,0,0,.5-.473,3.4,3.4,0,0,1,.521-.446h.2a1.055,1.055,0,0,0,.129-.183,1.594,1.594,0,0,1,.118-.183.642.642,0,0,1,.15-.145.528.528,0,0,1,.215-.081.385.385,0,0,1,.15-.247A.435.435,0,0,0,50.438,18a.12.12,0,0,0,.054.011.175.175,0,0,0,.129-.043l.161-.15a2.146,2.146,0,0,1,.188-.167l.2-.156q.312-.226.623-.446a3.338,3.338,0,0,0,.569-.51.044.044,0,0,0,.032.011.126.126,0,0,0,.118-.054q.032-.054.15-.032a2.233,2.233,0,0,0,.118-.2,1.083,1.083,0,0,0,.086-.22l.344.043a2.769,2.769,0,0,0,.344.021.925.925,0,0,0,.1-.005.269.269,0,0,0,.091-.027.88.88,0,0,1,.14.435,3.242,3.242,0,0,0,.054.457.042.042,0,0,1-.027-.005.042.042,0,0,0-.027-.005.164.164,0,0,0-.1.038,1.111,1.111,0,0,0-.1.091l-.107.107a.932.932,0,0,1-.1.086,2.052,2.052,0,0,1-.247.134q-.129.059-.247.124a1.336,1.336,0,0,0-.226.156.662.662,0,0,0-.172.231q-.215.086-.414.183t-.381.2a1.308,1.308,0,0,0-.1.107.38.38,0,0,0-.064.118,1.169,1.169,0,0,0-.478.29q-.188.193-.381.419l-.011-.011q-.075,0-.091.054t-.124.032a4.734,4.734,0,0,1-.43.419q-.226.193-.462.387t-.473.392a4.49,4.49,0,0,0-.44.424,1.751,1.751,0,0,0-.269.107.422.422,0,0,0-.193.193h-.032a.216.216,0,0,0-.167.054q-.048.054-.113.14-.226.054-.462.118a1.829,1.829,0,0,1-.483.064.848.848,0,0,1-.328-.064,1.556,1.556,0,0,1-.3-.167,2.315,2.315,0,0,1-.269-.22q-.124-.118-.231-.226a3.828,3.828,0,0,0-.167-.446,1.1,1.1,0,0,1-.1-.446.321.321,0,0,1,.016-.1.289.289,0,0,0,.016-.091q0-.075-.048-.064t-.07-.054a1.556,1.556,0,0,1-.027-.242,1.819,1.819,0,0,0-.027-.252q-.032-.247-.081-.5t-.1-.5a.164.164,0,0,0,.07-.07.8.8,0,0,1,.059-.091,1.949,1.949,0,0,1-.059-.188.82.82,0,0,1-.027-.209.361.361,0,0,1,.161-.322.153.153,0,0,0-.038-.113.17.17,0,0,1-.038-.124q0-.021.016-.124t.043-.231q.027-.129.048-.247t.032-.161q.075-.494.129-.972t.15-.961a.783.783,0,0,0-.274-.134.43.43,0,0,1-.231-.134.605.605,0,0,1-.086-.193.793.793,0,0,1-.032-.2.6.6,0,0,1,.247-.5,1.061,1.061,0,0,1,.526-.22,4.435,4.435,0,0,0,.209-.768q.07-.392.113-.79l.086-.806a7.548,7.548,0,0,1,.129-.806h-.064a1.383,1.383,0,0,0-.419.064,1.383,1.383,0,0,1-.419.064h-.021a.734.734,0,0,1-.312-.591A1.045,1.045,0,0,1,45.39,9a1.2,1.2,0,0,0,.312-.172l.285-.22a2.51,2.51,0,0,1,.3-.2.868.868,0,0,1,.333-.107,3.154,3.154,0,0,1,.107-.623,2.334,2.334,0,0,0,.086-.623q0-.064-.005-.129a.551.551,0,0,0-.027-.129.548.548,0,0,0,.1-.2.927.927,0,0,0,.027-.226,1.95,1.95,0,0,0-.016-.252q-.016-.124-.038-.242A.574.574,0,0,0,47,5.78l.1-.091a.453.453,0,0,1,.124-.075.564.564,0,0,1,.215-.032.709.709,0,0,1,.349.081.887.887,0,0,1,.252.209,1.5,1.5,0,0,1,.188.29q.081.161.156.322a.256.256,0,0,1-.1.172.484.484,0,0,0-.129.14q.021.172.043.328a1.254,1.254,0,0,1,0,.328.457.457,0,0,0,.2.054.537.537,0,0,0,.3-.086.455.455,0,0,0,.188-.236h.021a.092.092,0,0,1,.059.021.108.108,0,0,0,.07.021h.043a.908.908,0,0,1,.258-.167q.14-.059.29-.113t.3-.113a1.226,1.226,0,0,0,.274-.156.308.308,0,0,0,.14.032.535.535,0,0,0,.209-.043q.1-.043.2-.091t.209-.091A.673.673,0,0,1,51.2,6.44a.338.338,0,0,1,.054.005.338.338,0,0,0,.054.005q.075,0,.086-.054a.22.22,0,0,0,0-.1,3.626,3.626,0,0,0,.6-.2q.252-.113.564-.263,0-.011.021-.011a.042.042,0,0,1,.043.032.177.177,0,0,1,.011.054.122.122,0,0,0,.07-.107.227.227,0,0,1,.048-.129.533.533,0,0,0,.317-.032,2.035,2.035,0,0,0,.2-.1q.1-.054.193-.1a.473.473,0,0,1,.193-.043.217.217,0,0,1,.14.043.571.571,0,0,0,.129-.091.2.2,0,0,1,.14-.059.066.066,0,0,1,.038.011.351.351,0,0,0,.038.021.685.685,0,0,1,.1-.086.119.119,0,0,0,.048-.107,2.8,2.8,0,0,0,.736-.177,2.982,2.982,0,0,0,.65-.36q.118.021.231.048a.994.994,0,0,0,.231.027q.064.118.118.236t.236.107a1.05,1.05,0,0,1,.016.118Q56.508,5.205,56.508,5.259Zm13.4,12.182a.522.522,0,0,1-.15.338.461.461,0,0,1-.333.124.641.641,0,0,1-.2-.032,1.468,1.468,0,0,1-.483.247q-.279.086-.526.172a5.326,5.326,0,0,1-.591-.054,2.787,2.787,0,0,0-.6-.021.568.568,0,0,0-.226-.1,1.782,1.782,0,0,0-.242-.027,1.018,1.018,0,0,1-.236-.038.487.487,0,0,1-.22-.15h-.537a.572.572,0,0,1-.22-.07q-.145-.07-.322-.145t-.376-.14a1.206,1.206,0,0,0-.371-.064h-.064a.8.8,0,0,0-.274-.145q-.156-.048-.317-.086t-.312-.081a.856.856,0,0,1-.258-.118q-.107-.075-.247-.156a.5.5,0,0,0-.29-.07,3.081,3.081,0,0,0-.424-.2q-.22-.086-.446-.161L61.2,16.3a3.89,3.89,0,0,1-.43-.2.134.134,0,0,1-.075,0,.316.316,0,0,0-.075-.011q-.064,0-.075.043A.829.829,0,0,0,60.379,16a1.172,1.172,0,0,1-.177-.129.8.8,0,0,1-.081.016.659.659,0,0,1-.091.005.818.818,0,0,1-.188-.021,1.45,1.45,0,0,1-.177-.054,1.652,1.652,0,0,0-.129.483q-.032.269-.048.553t-.038.569a2.283,2.283,0,0,1-.1.521.706.706,0,0,1,.021.172V18.3a.655.655,0,0,0,.054.29q-.021.1-.038.183t-.038.172q.011.118.016.22t.005.22v.183a.889.889,0,0,1-.021.193q-.107.064-.215.124a1.511,1.511,0,0,0-.215.145.313.313,0,0,0-.258-.161.317.317,0,0,0-.059.145.1.1,0,0,1-.1.091l-.247-.193a1.325,1.325,0,0,1-.215-.226.12.12,0,0,1-.011-.054.213.213,0,0,1,.021-.1.191.191,0,0,0,.021-.086.714.714,0,0,0-.032-.226q-.021-.14-.032-.274T58,18.687a2.294,2.294,0,0,1,.027-.354,1.569,1.569,0,0,1,.1-.354,3.032,3.032,0,0,0,.167-.655q.048-.344.07-.693t.027-.7q.005-.354.038-.677a.884.884,0,0,0-.177-.274.449.449,0,0,1-.1-.328.4.4,0,0,1,.129-.317,1.139,1.139,0,0,0,.226-.274q-.021-.064.032-.086l.129-1.128q.011-.118.038-.258t.038-.258q.021-.247.021-.483t.021-.473q.054-.526.1-1.042T58.934,9.3q0-.247-.016-.494a3.349,3.349,0,0,0-.07-.494q-.183.054-.4.113a.863.863,0,0,0-.371.2h-.086a1.268,1.268,0,0,0-.521.107q-.242.107-.489.2a.718.718,0,0,1-.215.07,1.971,1.971,0,0,0-.226.048.279.279,0,0,0-.118.064.457.457,0,0,1-.118.075l-.183.043a.079.079,0,0,0-.064.1.078.078,0,0,1-.054.1.188.188,0,0,1-.15.048q-.1-.005-.15-.005h-.043a4.57,4.57,0,0,1-.521.328,1.714,1.714,0,0,1-.6.177l-.236.15a.489.489,0,0,1-.269.075.387.387,0,0,1-.193-.043,1.077,1.077,0,0,1-.134-.29.655.655,0,0,0-.167-.279.264.264,0,0,0,.07-.145,1.655,1.655,0,0,1,.038-.167q.322-.14.65-.269a4.1,4.1,0,0,0,.628-.312.326.326,0,0,0,.1.011.548.548,0,0,0,.193-.032,1.789,1.789,0,0,0,.172-.075,1.789,1.789,0,0,1,.172-.075.461.461,0,0,1,.2-.021,4.13,4.13,0,0,1,.773-.333,3.434,3.434,0,0,0,.773-.354.181.181,0,0,1,.091.021.16.16,0,0,0,.081.021.085.085,0,0,0,.054-.011.356.356,0,0,1,.172-.124,2.229,2.229,0,0,1,.22-.064,1.09,1.09,0,0,0,.215-.075.243.243,0,0,0,.134-.156.255.255,0,0,0,.161.043.768.768,0,0,0,.338-.075.768.768,0,0,1,.338-.075.2.2,0,0,1,.081.016.2.2,0,0,0,.081.016q.086,0,.091-.054a.142.142,0,0,1,.059-.1q.655-.118,1.305-.215a8.931,8.931,0,0,1,1.316-.1.39.39,0,0,1,.43,0q.183-.021.365-.032t.365-.011a7.1,7.1,0,0,1,.859.054,6.733,6.733,0,0,1,.875.167,4.7,4.7,0,0,1,.833.3,4.285,4.285,0,0,1,.741.446,1.142,1.142,0,0,0,.086.193.4.4,0,0,0,.14.15.075.075,0,0,1-.005.032.075.075,0,0,0-.005.032.408.408,0,0,0,.07.226.463.463,0,0,1,.07.258.978.978,0,0,1-.048.3.791.791,0,0,0-.038.3q-.118.172-.2.312a.882.882,0,0,0-.1.354,2.62,2.62,0,0,0-.344.424q-.15.231-.306.451a2.686,2.686,0,0,1-.349.4,1.447,1.447,0,0,1-.462.29.6.6,0,0,1-.086.236h-.226a.24.24,0,0,1-.107.129l-.15.086a.4.4,0,0,0-.124.107.3.3,0,0,0-.048.183.12.12,0,0,0-.054-.011.45.45,0,0,0-.252.107l-.231.172q-.183.129-.371.236a1.042,1.042,0,0,0-.328.3,5.868,5.868,0,0,0-.816.424,3.558,3.558,0,0,1-.838.381,1.23,1.23,0,0,1-.4.285q-.231.1-.446.22v.032a.264.264,0,0,0,.064.167.7.7,0,0,0,.15.14.516.516,0,0,0,.188.081.369.369,0,0,0,.177,0,1.753,1.753,0,0,0,.494.312q.279.118.58.215t.591.2a2.689,2.689,0,0,1,.537.269h.258a1.633,1.633,0,0,0,.585.322q.338.107.65.193a.824.824,0,0,0,.328.177,1.337,1.337,0,0,0,.381.059h.064a.238.238,0,0,0,.075-.011v.021a.07.07,0,0,0,.032.07.227.227,0,0,0,.07.021.3.3,0,0,1,.075.021.131.131,0,0,1,.059.048h.107a1.041,1.041,0,0,1,.43.091,1.041,1.041,0,0,0,.43.091.418.418,0,0,0,.15-.021.163.163,0,0,1,.1.086.317.317,0,0,0,.086.107q.075-.011.14-.016t.129-.005a1.726,1.726,0,0,1,.44.054,2.18,2.18,0,0,1,.419.161,5.552,5.552,0,0,1,.677-.247,2.531,2.531,0,0,1,.709-.1v.021a.451.451,0,0,0,.07.242A2.051,2.051,0,0,1,69.912,17.44ZM65.8,8.868a.374.374,0,0,0-.048-.2.546.546,0,0,0-.124-.134q-.075-.059-.156-.113a.593.593,0,0,1-.145-.14q-.279-.086-.548-.193A4.913,4.913,0,0,0,64.23,7.9q-.14-.032-.279-.059a1.476,1.476,0,0,0-.279-.027h-.236Q63.37,7.8,63.3,7.789t-.134-.027q-.15-.021-.3-.032t-.3-.011q-.279,0-.559.021l-.559.043q-.118.011-.247.011a1.207,1.207,0,0,0-.236.021.982.982,0,0,0-.15.048q-.1.038-.2.075t-.209.081a1.6,1.6,0,0,1-.177.064,1.062,1.062,0,0,1,.011.15v.14q0,.161-.011.322a2.484,2.484,0,0,1-.043.322.848.848,0,0,1-.032.129.848.848,0,0,0-.032.129.992.992,0,0,0-.021.215v.2q-.021.247-.032.483t-.032.483q-.064.709-.134,1.407t-.091,1.407a3.131,3.131,0,0,0,.677-.226q.322-.15.634-.328t.623-.349a4.138,4.138,0,0,1,.655-.29.719.719,0,0,1,.209-.193.719.719,0,0,0,.209-.193.234.234,0,0,0,.161-.048.321.321,0,0,1,.14-.07q.516-.451,1.053-.849a12.976,12.976,0,0,0,1.031-.849.983.983,0,0,1,.145-.3q.1-.145.2-.3a3.219,3.219,0,0,0,.172-.3A.711.711,0,0,0,65.8,8.868Zm17.41,10.688a.389.389,0,0,1-.145.263.83.83,0,0,0-.209.231H82.81a1.014,1.014,0,0,0-.209.021q-.1.021-.209.054a.564.564,0,0,0-.129-.032.109.109,0,0,1-.1-.075.536.536,0,0,1-.236.043.858.858,0,0,1-.467-.14,1.961,1.961,0,0,0-.457-.215,1.045,1.045,0,0,0-.156-.231q-.091-.1-.183-.2t-.177-.2a.886.886,0,0,1-.14-.258q-.021-.064-.054-.075a.214.214,0,0,0-.1,0,.411.411,0,0,0-.027-.2.2.2,0,0,0-.167-.107.581.581,0,0,0-.043-.236.689.689,0,0,0-.1-.167q-.059-.07-.129-.145a.584.584,0,0,1-.113-.183,1.188,1.188,0,0,0-.188-.027q-.091-.005-.2-.005a2.666,2.666,0,0,0-1,.193,1.056,1.056,0,0,0-.113.054,1.056,1.056,0,0,1-.113.054.119.119,0,0,0-.038.005.119.119,0,0,1-.038.005.359.359,0,0,1-.14-.027.359.359,0,0,0-.14-.027.178.178,0,0,0-.07.016q-.038.016-.07.027a1.263,1.263,0,0,1-.3.064,8.945,8.945,0,0,1-.929.129,2.776,2.776,0,0,0-.9.226.194.194,0,0,0-.107.134.5.5,0,0,0-.011.177.527.527,0,0,0-.177.226q-.059.14-.107.3t-.1.306a.765.765,0,0,1-.15.258.308.308,0,0,1,.032.14.578.578,0,0,1-.107.322,1.44,1.44,0,0,0-.161.312,2.476,2.476,0,0,0-.086.3,1,1,0,0,1-.1.263.54.54,0,0,1-.177.193.568.568,0,0,1-.317.075.693.693,0,0,1-.333-.075.661.661,0,0,1-.226-.193,1.019,1.019,0,0,1-.14-.279,2.682,2.682,0,0,1-.086-.322q.118-.236.226-.408a1.317,1.317,0,0,0,.161-.44.856.856,0,0,0,.285-.338,1.158,1.158,0,0,0,.1-.435.408.408,0,0,0,.167-.2.91.91,0,0,0,.059-.263l-.542-.043a2.091,2.091,0,0,1-.532-.107.177.177,0,0,1,.005-.043.177.177,0,0,0,.005-.043.5.5,0,0,0-.064-.252.479.479,0,0,1-.064-.242v-.086A1.78,1.78,0,0,0,73,17.435a1.666,1.666,0,0,1,.145-.167.657.657,0,0,1,.172-.124.552.552,0,0,1,.247-.048,2.886,2.886,0,0,1,.4.027,2.886,2.886,0,0,0,.4.027,1.384,1.384,0,0,0,.29-.032,10.248,10.248,0,0,0,.419-.983,6.372,6.372,0,0,0,.279-1.015,1.508,1.508,0,0,0,.14-.252,1.707,1.707,0,0,0,.1-.306,2.549,2.549,0,0,0,.054-.317,2.785,2.785,0,0,0,.016-.285.813.813,0,0,0,.167-.344q.048-.2.081-.424t.07-.435a.971.971,0,0,1,.145-.376v-.1a.753.753,0,0,0-.032-.29.11.11,0,0,0,.064-.1.342.342,0,0,1,.043-.129A5.5,5.5,0,0,1,76.3,10.8q.1-.478.161-.961V9.8q0-.054-.038-.059t-.038-.059a1.651,1.651,0,0,1,.027-.258q.027-.161.038-.269a10.4,10.4,0,0,0,.064-1.149q0-.483-.032-.956T76.419,6.1l.086-.129a1.2,1.2,0,0,0,.075-.129.9.9,0,0,0,.177-.091.325.325,0,0,1,.188-.048A.226.226,0,0,1,77,5.7a.177.177,0,0,0,.043.005.3.3,0,0,1,.1.118q.038.075.075.14a.325.325,0,0,0,.1.107A.246.246,0,0,0,77.5,6.1q.054.3.3.312a2.214,2.214,0,0,0,.134.3.609.609,0,0,0,.22.236.51.51,0,0,0-.011.118.641.641,0,0,0,.07.29,1.139,1.139,0,0,0,.177.258v.021a.163.163,0,0,1-.086.161.643.643,0,0,1,.14.258q.043.15.075.306a2.371,2.371,0,0,0,.081.3.4.4,0,0,0,.167.215V8.9q0,.054-.038.064t-.038.064a2.541,2.541,0,0,1,.269.773,6.968,6.968,0,0,0,.193.806.189.189,0,0,0,.1.054.141.141,0,0,1,.091.054.167.167,0,0,0-.064.15.219.219,0,0,1-.054.161.263.263,0,0,1,.081.22.233.233,0,0,0,.081.209V11.5a.108.108,0,0,1-.021.07.108.108,0,0,0-.021.07v.043q.086.376.134.752t.1.752q.054.376.118.747a5,5,0,0,0,.183.725.044.044,0,0,1,.011.032q0,.054-.043.059t-.043.059a.268.268,0,0,0,.038.124.481.481,0,0,0,.081.113.572.572,0,0,0-.011.129.845.845,0,0,0,.059.312q.059.15.129.3a2.6,2.6,0,0,1,.124.306.909.909,0,0,1,.043.344.551.551,0,0,0,.167.161q.1.064.209.118a1.05,1.05,0,0,1,.2.129.373.373,0,0,1,.124.2.385.385,0,0,0-.118.188.454.454,0,0,1-.118.2,2.017,2.017,0,0,0,.177.338q.1.156.209.306l.226.3a1.884,1.884,0,0,1,.2.322.211.211,0,0,1,.172.064.188.188,0,0,0,.172.054.347.347,0,0,1,.032.193,1.293,1.293,0,0,1,.43-.075,2.109,2.109,0,0,1,.22.011,2,2,0,0,0,.209.011.714.714,0,0,0,.226-.032.484.484,0,0,1,.064.145,1.245,1.245,0,0,1,.032.167l.032.172A.477.477,0,0,0,83.208,19.557Zm-4.05-2.976q-.15-.741-.306-1.477t-.274-1.488q-.064-.4-.1-.795t-.081-.79q-.048-.392-.129-.779a4.549,4.549,0,0,0-.231-.763v-.021a.073.073,0,0,1,.021-.054.1.1,0,0,0,.021-.075V10.3a.5.5,0,0,1-.193-.274,3.612,3.612,0,0,1-.091-.376,3.39,3.39,0,0,0-.1-.387.714.714,0,0,0-.2-.317q-.054.623-.113,1.241t-.081,1.241a.311.311,0,0,0-.14.215,1.3,1.3,0,0,0-.032.269,1.517,1.517,0,0,0,.011.177.944.944,0,0,0,.043.188,4.826,4.826,0,0,0-.279.994q-.086.51-.193,1.015-.011.032-.038.145t-.059.231q-.032.118-.054.209a1.034,1.034,0,0,0-.021.1.705.705,0,0,0-.005.15q.005.075.005.15l-.161.161a4.4,4.4,0,0,1-.156.79L76,17q.075.011.145.016t.145.005a5.047,5.047,0,0,0,.693-.048q.349-.048.693-.091.118-.021.247-.038a1.994,1.994,0,0,1,.247-.016.489.489,0,0,1,.129-.005.489.489,0,0,0,.129-.005.167.167,0,0,0,.113-.07.139.139,0,0,1,.113-.059.332.332,0,0,0,.15.032.4.4,0,0,0,.183-.043Q79.072,16.635,79.158,16.581ZM93.97,14.54a.757.757,0,0,1-.07.349q-.07.134-.156.306a.12.12,0,0,0-.054-.011.225.225,0,0,0-.118.032.752.752,0,0,1-.107.054q-.312.344-.639.666a4.168,4.168,0,0,1-.725.569q-.107.064-.215.124t-.226.113l-.081.038a.433.433,0,0,0-.07.038.6.6,0,0,0-.156.14q-.081.1-.183.2a1.109,1.109,0,0,1-.22.172.43.43,0,0,1-.258.059.555.555,0,0,0-.15.14,1.614,1.614,0,0,1-.15.172,3.513,3.513,0,0,0-.843.424q-.381.263-.79.51a2.723,2.723,0,0,1-.494.258.564.564,0,0,1-.124.032,1.185,1.185,0,0,0-.145.032q-.354.086-.714.14a4.905,4.905,0,0,1-.725.054,3.489,3.489,0,0,1-.87-.107A.043.043,0,0,0,85.666,19l-.048-.021a.21.21,0,0,1-.048-.027q-.021-.016,0-.059a1.054,1.054,0,0,1-.414-.118.481.481,0,0,1-.231-.344.192.192,0,0,0-.054.054.066.066,0,0,1-.075.021,2.967,2.967,0,0,0-.333-.4,1.108,1.108,0,0,1-.269-.44.393.393,0,0,1-.027-.1q-.005-.048-.016-.1a.2.2,0,0,0-.193-.15.239.239,0,0,0,.021-.107.392.392,0,0,0-.005-.064.392.392,0,0,1-.005-.064A.207.207,0,0,1,84,16.968a2.185,2.185,0,0,1-.15-.489,2.849,2.849,0,0,1-.043-.5q0-.333.032-.661t.032-.661a1.287,1.287,0,0,0,.1-.3.6.6,0,0,1,.134-.279q-.011-.064-.043-.07t-.032-.059a1.331,1.331,0,0,1,.075-.419,1.451,1.451,0,0,0,.075-.462.245.245,0,0,0,.124-.161.3.3,0,0,1,.113-.172v-.054a1.414,1.414,0,0,1,.038-.322q.038-.161.075-.317t.064-.312a1.265,1.265,0,0,0,.016-.306.816.816,0,0,0,.059-.124q.038-.091.075-.193t.064-.2a.6.6,0,0,0,.027-.14.315.315,0,0,0-.021-.118.315.315,0,0,1-.021-.118.567.567,0,0,1,.032-.156q.032-.1.054-.167.043-.183.081-.381t.07-.381q.1-.591.14-1.187t.054-1.2q.15-.086.317-.161a.839.839,0,0,1,.349-.075A.546.546,0,0,1,86,6.838a.612.612,0,0,1,.107.032.778.778,0,0,0,.172.344,1.49,1.49,0,0,1,.215.312,1.507,1.507,0,0,0-.086.354l-.032.365a2.993,2.993,0,0,1-.043.36,1.381,1.381,0,0,1-.107.338.287.287,0,0,1,.021.107v.107a1.533,1.533,0,0,1-.027.29q-.027.14-.059.285t-.054.285a.913.913,0,0,0,0,.279.316.316,0,0,1-.064.081.135.135,0,0,0-.043.081l-.021.2q-.021.118-.038.231t-.038.231q-.075.322-.167.645a2.431,2.431,0,0,0-.091.666V12.5a1.214,1.214,0,0,0-.15.371,1.141,1.141,0,0,0-.032.4q-.118.312-.226.612a1.839,1.839,0,0,0-.107.623q0,.054.005.113a1.067,1.067,0,0,0,.016.113,1.58,1.58,0,0,0-.107.435q-.021.22-.021.435,0,.15.016.349t.054.408q.038.209.091.4a1.5,1.5,0,0,0,.118.312,1.821,1.821,0,0,0,.65.628,2.38,2.38,0,0,0,.854.3,1.315,1.315,0,0,1,.3-.075,2.291,2.291,0,0,1,.317,0,1.647,1.647,0,0,1,.349-.129q.177-.043.36-.1l.113-.043a.977.977,0,0,0,.1-.043.333.333,0,0,0,.118-.1q.064-.075.118-.129a2.049,2.049,0,0,0,.43-.177q.2-.113.4-.231l.4-.236a2.957,2.957,0,0,1,.43-.2.147.147,0,0,0,.1-.091.823.823,0,0,1,.059-.145.088.088,0,0,0,.064.021.2.2,0,0,0,.183-.081,1.616,1.616,0,0,1,.129-.167A1.01,1.01,0,0,0,91.037,16a.4.4,0,0,0,.193-.188,1.267,1.267,0,0,0,.473-.193,4.525,4.525,0,0,0,.4-.306q.193-.167.387-.322a1.662,1.662,0,0,1,.44-.252.366.366,0,0,0,.043-.1.763.763,0,0,1,.032-.1.592.592,0,0,0,.29-.1q.107-.081.247-.167A.518.518,0,0,1,93.97,14.54Zm3.79,3a.47.47,0,0,1-.118.312,2.967,2.967,0,0,0-.2.269.874.874,0,0,1-.285.091,1.316,1.316,0,0,0-.285.07.249.249,0,0,0-.118.075.389.389,0,0,1-.172-.07.533.533,0,0,0-.172-.081,1.1,1.1,0,0,0-.306-.054.38.38,0,0,1-.274-.107,1.2,1.2,0,0,1-.252-.4,3.005,3.005,0,0,1-.161-.526,5.056,5.056,0,0,1-.086-.553q-.027-.274-.027-.478a5.537,5.537,0,0,1,.043-.687,4.979,4.979,0,0,1,.129-.666V14.68a.659.659,0,0,1,.005-.091.659.659,0,0,0,.005-.091.392.392,0,0,0-.005-.064.08.08,0,0,0-.038-.054,3.687,3.687,0,0,0,.2-.73q.064-.376.1-.757t.086-.763a5.73,5.73,0,0,1,.145-.747q-.011-.064-.016-.14t-.005-.14A1.706,1.706,0,0,1,96,10.721a2.3,2.3,0,0,0,.054-.392.422.422,0,0,0,0-.134.953.953,0,0,1-.011-.145,8.668,8.668,0,0,1,.048-.924,8.565,8.565,0,0,0,.048-.913,2.972,2.972,0,0,0-.038-.478,2.9,2.9,0,0,1-.038-.467,2,2,0,0,1,.011-.209.436.436,0,0,1,.064-.188.967.967,0,0,1,.559-.161.661.661,0,0,1,.408.129.15.15,0,0,0-.011.064A.4.4,0,0,0,97.1,7a.4.4,0,0,1,.011.1v.043a.1.1,0,0,1-.011.043.845.845,0,0,1,.1.274,1.619,1.619,0,0,1,.027.3q0,.14-.011.274t-.011.274q0,.193.005.387t.005.387q0,.516-.048,1.015T97.1,11.1a5.223,5.223,0,0,1-.113.859,6.134,6.134,0,0,0-.124.849.873.873,0,0,0-.005.167q.005.081.005.177a1.306,1.306,0,0,1-.1.489,1.361,1.361,0,0,0-.1.51.551.551,0,0,0,.043.226,2.734,2.734,0,0,0-.113.408q-.048.236-.086.489t-.059.494q-.021.242-.021.424a2.184,2.184,0,0,0,.064.521,1.411,1.411,0,0,0,.215.478.9.9,0,0,0,.258.032q.15,0,.3.011a1.137,1.137,0,0,1,.279.054.326.326,0,0,1,.193.172.1.1,0,0,1,.011.043Zm18.2-5.543a2.389,2.389,0,0,1-.07.29,1.294,1.294,0,0,1-.129.3.805.805,0,0,1-.2.226.443.443,0,0,1-.279.091,1.063,1.063,0,0,1-.236-.027,1.112,1.112,0,0,0-.247-.027.211.211,0,0,0-.113.038.211.211,0,0,1-.113.038.231.231,0,0,1-.091-.016.231.231,0,0,0-.091-.016.592.592,0,0,0-.118.021l-.183.043q-.1.021-.183.048l-.118.038q-.29.1-.58.172a3.3,3.3,0,0,1-.6.1,1.858,1.858,0,0,0-.193-.048,1.045,1.045,0,0,0-.193-.027.158.158,0,0,0-.167.107.278.278,0,0,1-.145.161.712.712,0,0,1-.322.086q-.193.011-.387.032a1.6,1.6,0,0,0-.36.081.408.408,0,0,0-.242.22,1.068,1.068,0,0,0-.113-.016q-.059-.005-.124-.005a1.563,1.563,0,0,0-.645.134q-.3.134-.612.242a.706.706,0,0,1,.075.236q.021.14.043.274a1.934,1.934,0,0,0,.059.258.334.334,0,0,0,.134.188.2.2,0,0,1-.027.107.422.422,0,0,1-.059.075l-.075.075a.174.174,0,0,0-.043.1,1.081,1.081,0,0,0-.032.263.211.211,0,0,1-.15.2.432.432,0,0,1,.011.118.641.641,0,0,1-.032.2.524.524,0,0,0-.021.215,2.5,2.5,0,0,0-.306.419,1.868,1.868,0,0,0-.188.462q-.4.4-.811.8t-.849.779q-.435.376-.9.714a7.442,7.442,0,0,1-.956.6H104.9a.737.737,0,0,0-.387.086,1.506,1.506,0,0,1-.354.15,1.517,1.517,0,0,0-.387-.043q-.129,0-.263.011t-.274.011a1.153,1.153,0,0,1-.328-.043q-.145-.043-.279-.1l-.274-.107a1.322,1.322,0,0,0-.3-.075A5,5,0,0,1,101,18.692a4.51,4.51,0,0,1-.387-1.821,3.055,3.055,0,0,1,.118-.843,3.017,3.017,0,0,0,.118-.833,7.062,7.062,0,0,0,.338-.795q.145-.408.3-.816t.328-.8a4.661,4.661,0,0,1,.424-.747,1.539,1.539,0,0,1,.172-.483q.118-.2.258-.451a.938.938,0,0,1,.1-.435,1.192,1.192,0,0,0,.124-.446,1.377,1.377,0,0,0,.279-.365q.107-.2.2-.419a3.513,3.513,0,0,1,.22-.414,1.089,1.089,0,0,1,.338-.338.771.771,0,0,0,.027-.167.25.25,0,0,1,.048-.145l.226-.247q.107-.14.2-.285a1.875,1.875,0,0,1,.2-.263.661.661,0,0,1,.14-.107.606.606,0,0,0,.129-.1.147.147,0,0,0,.038-.14.147.147,0,0,1,.038-.14.25.25,0,0,1,.064-.043.7.7,0,0,0,.075-.043,1.712,1.712,0,0,0,.236-.193.564.564,0,0,1,.269-.14q.15-.118.274-.236a2.771,2.771,0,0,1,.252-.215,1.186,1.186,0,0,1,.279-.156,1.035,1.035,0,0,1,.376-.059.692.692,0,0,1,.086.005.692.692,0,0,0,.086.005,1.757,1.757,0,0,1,.548,1,1.33,1.33,0,0,0-.188.322q-.07.172-.156.344a1.243,1.243,0,0,0-.344.188q-.161.124-.317.252a2.38,2.38,0,0,1-.322.226.725.725,0,0,1-.371.1l-.274.242q-.188.167-.387.349t-.365.344a1.8,1.8,0,0,0-.209.226q-.032.054-.054.1t-.043.1l-.279.473q-.236.408-.483.8a5.778,5.778,0,0,0-.43.822,2.792,2.792,0,0,0-.14.387q-.054.193-.107.408a.984.984,0,0,1-.054.129q-.032.064-.054.118a4.166,4.166,0,0,0-.193.419,1.4,1.4,0,0,0-.086.451q-.269.6-.5,1.208a7.123,7.123,0,0,0-.349,1.251,1.387,1.387,0,0,1,.059.435q-.005.22-.005.435a2.2,2.2,0,0,0,.038.446,1.419,1.419,0,0,0,.107.322q.07.145.156.3t.183.371a2.355,2.355,0,0,1,.29.274,3.233,3.233,0,0,1,.247.317,1.832,1.832,0,0,0,.827.2,2.059,2.059,0,0,0,.612-.1,4.2,4.2,0,0,0,.607-.242q.3-.145.575-.317l.537-.333a4.546,4.546,0,0,0,.784-.58,6.121,6.121,0,0,0,.607-.655,6.867,6.867,0,0,0,.51-.736q.236-.392.494-.833a.674.674,0,0,1,.043-.129l.064-.161.059-.156a.345.345,0,0,0,.027-.091.17.17,0,0,0-.038-.124.113.113,0,0,1-.038-.081.139.139,0,0,1,.043-.118.845.845,0,0,1,.1-.064.576.576,0,0,0,.107-.075.211.211,0,0,0,.048-.161.184.184,0,0,0-.075-.011.547.547,0,0,0-.107.011.547.547,0,0,1-.107.011.291.291,0,0,1-.215-.086.366.366,0,0,0-.107.07,1.372,1.372,0,0,0-.1.1q-.048.054-.091.1a.118.118,0,0,1-.075.043.127.127,0,0,1-.081-.021.108.108,0,0,0-.07-.021.6.6,0,0,0-.322.086,1.441,1.441,0,0,1-.3.14.391.391,0,0,1-.064-.005.391.391,0,0,0-.064-.005.726.726,0,0,0-.231.038q-.113.038-.215.081a2.078,2.078,0,0,1-.209.075.55.55,0,0,1-.215.021,4.549,4.549,0,0,0-.435.183.863.863,0,0,1-.457.075l-.156.07a.983.983,0,0,0-.156.091.341.341,0,0,1-.1.021.1.1,0,0,1-.086-.054.45.45,0,0,1-.226.134q-.14.038-.29.064t-.285.064a.368.368,0,0,0-.209.145.427.427,0,0,0-.279-.1.845.845,0,0,0-.312.059.873.873,0,0,1-.322.059.124.124,0,0,1-.086-.021q-.043-.118-.1-.236a.335.335,0,0,0-.172-.172q-.021-.118-.038-.231a1.556,1.556,0,0,1-.016-.22.874.874,0,0,1,.172-.526,3.008,3.008,0,0,1,.306-.091,3.008,3.008,0,0,0,.306-.091q.118.021.236.032t.236.011a3.291,3.291,0,0,0,.859-.113q.419-.113.827-.242.387-.118.784-.215t.795-.215q.376-.1.741-.22a3.171,3.171,0,0,1,.763-.156,1.523,1.523,0,0,1,.628-.247q.371-.064.682-.14.494-.118.978-.242t.988-.22a10.83,10.83,0,0,0,1.09-.29q.532-.172,1.069-.365h.107a1.731,1.731,0,0,0,.376-.043,1.778,1.778,0,0,1,.387-.043.659.659,0,0,1,.091.005.57.57,0,0,0,.081.005.69.69,0,0,0,.161-.048l.183-.07a1.867,1.867,0,0,0,.312.269A1.55,1.55,0,0,1,115.955,11.994Zm6.54-4.931a.767.767,0,0,0-.091.226,1.8,1.8,0,0,0-.038.236h-.075a.389.389,0,0,1-.15-.027,1.065,1.065,0,0,0-.15-.048q.043.408.054.827t.011.827q0,.516-.011,1.026t-.011,1.026a4.422,4.422,0,0,1-.027.489,1.454,1.454,0,0,1-.134.467q.021.183.032.349t.011.349a8.543,8.543,0,0,1-.059,1q-.059.5-.145.994-.032.193-.059.392a2.57,2.57,0,0,1-.081.381.534.534,0,0,1-.059.107.534.534,0,0,0-.059.107q-.129.279-.285.553a2.546,2.546,0,0,1-.371.5.811.811,0,0,0-.312.086.63.63,0,0,1-.279.075.223.223,0,0,1-.193-.118l-.107.043a.57.57,0,0,1-.118.032,4.124,4.124,0,0,1-.693-.365,1.8,1.8,0,0,1-.542-.559h-.043a.192.192,0,0,1-.14-.043,1.165,1.165,0,0,1-.113-.134q-.059-.081-.1-.145-.129-.2-.279-.408a1.468,1.468,0,0,0-.354-.344,1.612,1.612,0,0,0-.258-.553q-.172-.231-.354-.5a2.615,2.615,0,0,0-.516-1q.054-.054.054-.075a.124.124,0,0,0-.038-.091.113.113,0,0,1-.038-.081.088.088,0,0,1,.021-.064,1.381,1.381,0,0,1-.231-.338q-.091-.188-.172-.381t-.172-.387a1.785,1.785,0,0,0-.22-.354.307.307,0,0,0-.145.183.927.927,0,0,0-.027.226q0,.086.005.172t.005.172a1.812,1.812,0,0,1-.048.419,3.2,3.2,0,0,0-.07.419,3.329,3.329,0,0,0-.005.333,3.112,3.112,0,0,1-.011.365,2.288,2.288,0,0,1-.059.354.661.661,0,0,1-.15.29q-.064.612-.161,1.225t-.183,1.225q-.021.107-.043.269t-.048.328q-.027.167-.043.322t-.016.252a.445.445,0,0,0,.054.209.425.425,0,0,1,.054.2q0,.075-.048.091a.092.092,0,0,0-.059.081,1.769,1.769,0,0,1,.075.537,1.517,1.517,0,0,1-.011.177,1.41,1.41,0,0,1-.032.177.279.279,0,0,1-.075.1.132.132,0,0,0-.054.091.069.069,0,0,0,.043.064.321.321,0,0,1-.161.086.193.193,0,0,0-.14.118q-.107-.086-.215-.156a1.708,1.708,0,0,1-.2-.156l-.032-.011a.167.167,0,0,0-.124.048.167.167,0,0,1-.124.048.119.119,0,0,1-.038-.005.119.119,0,0,0-.038-.005l-.064-.279a1.361,1.361,0,0,0-.086-.258,1.944,1.944,0,0,0,.113-.51q.027-.285.059-.575a4.339,4.339,0,0,1,.1-.553,1.052,1.052,0,0,1,.236-.457.122.122,0,0,0-.059-.118q-.059-.032-.059-.14a.313.313,0,0,1,.016-.075q.016-.054.032-.118t.032-.124q.016-.059.027-.091.086-.419.134-.859a2.086,2.086,0,0,1,.263-.816.572.572,0,0,1-.011-.129,1.654,1.654,0,0,1,.038-.354,1.654,1.654,0,0,0,.038-.354,1.15,1.15,0,0,0-.032-.279,1.147,1.147,0,0,1,.091-.231.492.492,0,0,0,.059-.231.158.158,0,0,0-.075-.15.2.2,0,0,0,.07-.1.571.571,0,0,0,.021-.107.469.469,0,0,1,.021-.1.147.147,0,0,1,.081-.081q-.011-.107-.016-.2t-.005-.2a7.242,7.242,0,0,1,.043-.79,7.342,7.342,0,0,0,.043-.8,4.57,4.57,0,0,0-.064-.773l.118-.236a.433.433,0,0,1-.14-.279,3.6,3.6,0,0,1-.043-.419q-.011-.226-.038-.446a.793.793,0,0,0-.124-.36V7.7a2.518,2.518,0,0,0-.021-.333,2.436,2.436,0,0,1-.021-.322v-.1a.15.15,0,0,0,.081-.075.428.428,0,0,0,.038-.107h.043a1.566,1.566,0,0,0,.258-.021,1.566,1.566,0,0,1,.258-.021h.14a1.122,1.122,0,0,1,.226.226,1.23,1.23,0,0,0,.236.236v.193a1.054,1.054,0,0,1,.15.279q.054.15.113.312t.124.312a.735.735,0,0,0,.183.258.924.924,0,0,0-.021.172,1.476,1.476,0,0,0,.027.279,2.542,2.542,0,0,1,.038.269.527.527,0,0,1,.075.134.16.16,0,0,0,.107.1,2.846,2.846,0,0,0,.22.795,3.492,3.492,0,0,1,.242.784.544.544,0,0,1,.129.209q.043.124.091.242a1.8,1.8,0,0,0,.107.22.326.326,0,0,0,.177.145,4.747,4.747,0,0,0,.161.516,1.1,1.1,0,0,0,.3.44.9.9,0,0,0,.07.371,1.887,1.887,0,0,0,.161.29q.091.134.167.263a.763.763,0,0,1,.1.279,2.581,2.581,0,0,0,.349.419q.2.193.408.371t.414.36a3.824,3.824,0,0,1,.376.387.6.6,0,0,1,.2.048.829.829,0,0,0,.188.059.443.443,0,0,0,.124-.134q.048-.081.091-.167t.091-.167a.591.591,0,0,1,.124-.145.119.119,0,0,0-.005-.038.119.119,0,0,1-.005-.038.4.4,0,0,1,.038-.188q.038-.07.091-.156v-.279a1.151,1.151,0,0,0,.118-.344,2.1,2.1,0,0,0,.032-.365q0-.15-.011-.306t-.011-.317a1.9,1.9,0,0,1,.011-.2.76.76,0,0,1,.043-.188q.021-.021.075-.07t.054-.059a.207.207,0,0,0-.032-.107.207.207,0,0,1-.032-.107.135.135,0,0,1,.064-.118v-.064a.321.321,0,0,0-.016-.1.113.113,0,0,0-.07-.07.372.372,0,0,0,.075-.156,1.094,1.094,0,0,0,.027-.193,1.841,1.841,0,0,0,0-.2q-.005-.1-.005-.183t.011-.2a.292.292,0,0,1,.086-.183,1.619,1.619,0,0,1-.043-.252q-.011-.124-.011-.252,0-.226.021-.451t.021-.462a1.517,1.517,0,0,0-.011-.177,1.517,1.517,0,0,1-.011-.177q0-.086.038-.081t.038-.048a.716.716,0,0,0-.016-.15q-.016-.075-.027-.15-.021-.183-.032-.371t-.011-.381q0-.118.005-.242a1.1,1.1,0,0,1,.038-.242.5.5,0,0,1-.081-.188q-.016-.091-.027-.167l-.021-.161a.423.423,0,0,0-.064-.172.112.112,0,0,1-.011-.064.175.175,0,0,1,.043-.129,1.892,1.892,0,0,0-.145-.354,1.021,1.021,0,0,1-.113-.376.4.4,0,0,1-.177-.209.706.706,0,0,1-.059-.263.555.555,0,0,1,.075-.274.252.252,0,0,1,.236-.134.227.227,0,0,1,.124.038,1.229,1.229,0,0,1,.118.086,1.229,1.229,0,0,0,.118.086.227.227,0,0,0,.124.038.588.588,0,0,0,.129-.021,3.442,3.442,0,0,0,.242.3l.252.274a.837.837,0,0,0,.064.333,3,3,0,0,0,.14.285q.075.134.134.263a.563.563,0,0,1,.048.279.164.164,0,0,0,.086.107A.453.453,0,0,1,122.5,7.063Zm3.575,10.012q0,.14-.064.177a.194.194,0,0,0-.086.134q-.032.129-.059.269a2.106,2.106,0,0,1-.07.269,3.536,3.536,0,0,1-.607,1.139q-.392.483-.843.978a1.338,1.338,0,0,1-.279.032.48.48,0,0,1-.236-.054,2.135,2.135,0,0,1-.215-.14q-.011-.075-.016-.145t-.005-.145v-.2a.8.8,0,0,1,.021-.193.3.3,0,0,1,.1-.183.285.285,0,0,0,.086-.2.1.1,0,0,0,.043.011.116.116,0,0,0,.086-.032.06.06,0,0,1,.075-.011,5.964,5.964,0,0,0,.483-.875,6.237,6.237,0,0,0,.333-.94q-.054-.183-.1-.354a1.389,1.389,0,0,0-.14-.344.637.637,0,0,0,.091-.22,1.3,1.3,0,0,1,.075-.236.451.451,0,0,1,.15-.188.514.514,0,0,1,.306-.075.906.906,0,0,1,.408.1,1.507,1.507,0,0,1,.354.242.184.184,0,0,0-.011.075.327.327,0,0,0,.059.2.309.309,0,0,1,.059.188.883.883,0,0,1-.027.215.927.927,0,0,0-.027.226.573.573,0,0,0,.027.172A.486.486,0,0,1,126.071,17.075Zm18.065-.473a.89.89,0,0,1-.011.161.216.216,0,0,0-.086.059.112.112,0,0,1-.107.027.533.533,0,0,1-.107.269,2.409,2.409,0,0,1-.177.2q-.091.091-.177.193a.5.5,0,0,0-.107.263,1.514,1.514,0,0,0-.317.231,1.094,1.094,0,0,1-.274.2,1.014,1.014,0,0,1-.183.07,1.4,1.4,0,0,0-.193.07q-.312.14-.639.29a1.617,1.617,0,0,1-.682.15H141a.226.226,0,0,1-.107.059q-.064.016-.129.027a.848.848,0,0,0-.129.032.193.193,0,0,0-.1.064.749.749,0,0,0-.258-.043H140.2q-.183.043-.344.064a2.6,2.6,0,0,1-.344.021,4.871,4.871,0,0,1-.645-.043q-.322-.043-.645-.075a1.263,1.263,0,0,1-.333-.4,1.069,1.069,0,0,1-.129-.51.862.862,0,0,1,.086-.381,1.162,1.162,0,0,1,.226-.317h.032a.51.51,0,0,0,.2-.043.51.51,0,0,1,.2-.043.219.219,0,0,1,.177.086.616.616,0,0,1,.107.2,1.112,1.112,0,0,1,.048.242q.011.124.011.2a.75.75,0,0,0,.252.064q.134.011.274.011t.312-.016a3.058,3.058,0,0,0,.349-.054,3.453,3.453,0,0,0,.344-.091,1,1,0,0,0,.285-.14,3.051,3.051,0,0,0,1.042-.269q.451-.215.956-.5a.345.345,0,0,1,.091-.188.284.284,0,0,0,.07-.209.249.249,0,0,0-.005-.048.249.249,0,0,1-.005-.048,3.777,3.777,0,0,0-.446-.473,1.192,1.192,0,0,0-.6-.269.29.29,0,0,0-.14-.145q-.1-.048-.2-.091t-.2-.091a.285.285,0,0,1-.14-.167q-.29-.054-.6-.134a1.128,1.128,0,0,1-.521-.3,1.114,1.114,0,0,1-.328-.07l-.306-.118q-.15-.059-.312-.107a1.153,1.153,0,0,0-.333-.048.312.312,0,0,0-.118-.118,1.018,1.018,0,0,0-.167-.075q-.091-.032-.172-.07a.27.27,0,0,1-.124-.113.1.1,0,0,0-.064.043.084.084,0,0,1-.075.032h-.043a.145.145,0,0,0-.086-.091.128.128,0,0,1-.075-.113,1.062,1.062,0,0,1-.349-.075,2.192,2.192,0,0,1-.29-.145q-.134-.081-.274-.156a1.34,1.34,0,0,0-.312-.118,1.645,1.645,0,0,1-.2-.188.3.3,0,0,0-.231-.1.592.592,0,0,0-.118.021.336.336,0,0,0-.161-.274,2.34,2.34,0,0,0-.3-.145,1.7,1.7,0,0,0-.29-.494,3.472,3.472,0,0,0-.4-.4.341.341,0,0,0,.021-.1.331.331,0,0,0-.054-.188.622.622,0,0,0-.118-.134,3.172,3.172,0,0,1-.15-.945,2.58,2.58,0,0,1,.285-1.2,1.82,1.82,0,0,1,.9-.833.31.31,0,0,1,.059-.15.31.31,0,0,0,.059-.15.235.235,0,0,0,.15-.043,1.236,1.236,0,0,0,.1-.091,1.236,1.236,0,0,1,.1-.091.273.273,0,0,1,.14-.054,3.856,3.856,0,0,1,.87-.575q.462-.22.945-.457a.35.35,0,0,0,.161-.161h.064a.256.256,0,0,0,.167-.048.213.213,0,0,1,.177-.027.205.205,0,0,1,.113-.086q.07-.021.14-.038a.6.6,0,0,0,.134-.048.163.163,0,0,0,.086-.1h.075a1.083,1.083,0,0,0,.354-.059q.172-.059.344-.134h.075a1.012,1.012,0,0,0,.4-.081,1.633,1.633,0,0,1,.4-.113.465.465,0,0,1,.172-.011,1.384,1.384,0,0,0,.172.011.932.932,0,0,0,.129-.011.14.14,0,0,0,.107-.064h.021q.064,0,.075.043a.058.058,0,0,0,.064.043.545.545,0,0,0,.15-.021.545.545,0,0,1,.15-.021,3.2,3.2,0,0,1,.639.064q.317.064.628.118a.244.244,0,0,0,.113.183,1.463,1.463,0,0,0,.2.1v.043a.217.217,0,0,0,.043.14.4.4,0,0,1-.15.226,1.246,1.246,0,0,1-.236.129.177.177,0,0,1,.064.118.992.992,0,0,1,.011.14V7.3l-.054-.011q-.172,0-.172.161a.764.764,0,0,0-.306-.107,2.559,2.559,0,0,0-.328-.021q-.215,0-.451.016a2.833,2.833,0,0,1-.462-.005.491.491,0,0,1-.215.156.73.73,0,0,1-.258.048.638.638,0,0,1-.269-.059.353.353,0,0,1-.183-.177.264.264,0,0,0-.1-.021h-.1a1.532,1.532,0,0,0-.338.038q-.167.038-.338.086l-.338.1a1.559,1.559,0,0,1-.338.059.326.326,0,0,1-.172.118.326.326,0,0,0-.172.118,1.347,1.347,0,0,0-.408.145q-.183.1-.354.22l-.333.226a1.74,1.74,0,0,1-.365.183,2.194,2.194,0,0,1-.279.258,1.31,1.31,0,0,1-.333.172q-.129.043-.145.129a.368.368,0,0,1-.091.172.406.406,0,0,1-.156.113.369.369,0,0,0-.156.124.537.537,0,0,0-.081.177q-.027.1-.059.2a1.715,1.715,0,0,1-.075.188.413.413,0,0,1-.129.156.691.691,0,0,1-.005.086.615.615,0,0,0-.005.075,1.3,1.3,0,0,0,.038.306,1.871,1.871,0,0,1,.048.306,3.544,3.544,0,0,0,.5.682,5.469,5.469,0,0,0,.623.564q.333.258.693.483t.714.44a.566.566,0,0,1,.236.027.937.937,0,0,0,.226.048.987.987,0,0,0,.3.15l.344.107a3.35,3.35,0,0,1,.333.124.771.771,0,0,1,.269.188.625.625,0,0,1,.1.027.274.274,0,0,0,.1.016q.064,0,.075-.043.483.183.945.4a4.707,4.707,0,0,0,.978.338,2.474,2.474,0,0,0,.451.3q.247.129.494.263a5.207,5.207,0,0,1,.473.29,1.859,1.859,0,0,1,.4.371,1.6,1.6,0,0,0,.091.392A1.148,1.148,0,0,1,144.136,16.6Zm12.352-3.395v.075a.2.2,0,0,1-.011.064.928.928,0,0,1-.29.344.741.741,0,0,1-.43.118.728.728,0,0,1-.252-.032,1.233,1.233,0,0,1-.209-.118q-.193.021-.44.038t-.494.054a3.58,3.58,0,0,0-.467.1.987.987,0,0,0-.371.193,12.094,12.094,0,0,0-.1,1.477q-.005.736-.027,1.477a2.083,2.083,0,0,1,.118.5q.032.274.043.5a1.321,1.321,0,0,1,.118.263q.043.134.086.274a2.188,2.188,0,0,0,.1.269.932.932,0,0,0,.156.236.694.694,0,0,1,.156.016q.07.016.145.038v.064a.281.281,0,0,0,.1.236q.1.075.215.161a.857.857,0,0,1,.032.226.758.758,0,0,1-.081.344.447.447,0,0,1-.263.226.759.759,0,0,1-.2-.027.759.759,0,0,0-.2-.027.666.666,0,0,0-.161.021.268.268,0,0,1-.091-.059.752.752,0,0,0-.081-.07.47.47,0,0,0-.091-.054.226.226,0,0,0-.124-.011.821.821,0,0,0-.172-.279.32.32,0,0,0-.29-.107.573.573,0,0,0,.011-.129.662.662,0,0,0-.059-.279.468.468,0,0,0-.177-.2q-.054-.247-.1-.542a1.256,1.256,0,0,0-.183-.51,2.693,2.693,0,0,0-.064-.6q-.064-.285-.118-.585a1.6,1.6,0,0,0,.043-.387q0-.15-.011-.3t-.011-.285a2.012,2.012,0,0,1,.021-.3.751.751,0,0,1,.107-.285.671.671,0,0,1-.086-.22,1.231,1.231,0,0,1-.021-.231,2.855,2.855,0,0,1,.021-.354l.043-.344a.184.184,0,0,0-.075-.011.363.363,0,0,0-.183.043l-.161.075a.5.5,0,0,0-.1-.011h-.1a1.063,1.063,0,0,0-.317.048.659.659,0,0,0-.274.167,3.882,3.882,0,0,0-.73.07q-.365.07-.725.167t-.714.209q-.354.113-.709.2a8.408,8.408,0,0,0-.129.843,8.58,8.58,0,0,0-.043.865v.258a1.631,1.631,0,0,0,.021.269.345.345,0,0,0,.059.156.267.267,0,0,1,.048.156.193.193,0,0,1-.032.118.678.678,0,0,0,.226.226.9.9,0,0,1,.279-.054.767.767,0,0,1,.365.091,1.19,1.19,0,0,0,.365.124,1.255,1.255,0,0,1-.129.3.812.812,0,0,0-.107.317.181.181,0,0,1-.081.021.425.425,0,0,0-.07.005.064.064,0,0,0-.048.038.228.228,0,0,0,.005.129,1.107,1.107,0,0,1-.3.1,2.86,2.86,0,0,1-.306.038q-.156.011-.312.011t-.317.011a.173.173,0,0,0-.027-.1.148.148,0,0,0-.07-.054q-.043-.016-.091-.038a.264.264,0,0,1-.081-.054.5.5,0,0,1-.134-.2q-.048-.124-.1-.258t-.1-.263a1.247,1.247,0,0,0-.129-.236q-.021-.236-.032-.462t-.011-.462q0-.44.032-.865t.054-.875a.268.268,0,0,0-.22-.086.686.686,0,0,1-.242-.021,1.571,1.571,0,0,1-.215-.36,1.031,1.031,0,0,1-.086-.414.857.857,0,0,1,.032-.226q.1-.032.215-.064a.172.172,0,0,0,.129-.172.363.363,0,0,0,.183.043.744.744,0,0,0,.215-.032q.107-.032.215-.054.043-.172.07-.338a1.26,1.26,0,0,0,.005-.349,1.3,1.3,0,0,0,.2-.494q.048-.269.07-.516v-.15a1.063,1.063,0,0,1,.011-.15q.021-.118.064-.269t.075-.279a2.328,2.328,0,0,0,.07-.387q.016-.183.016-.376v-.043a.089.089,0,0,0-.043-.081.089.089,0,0,1-.043-.081l.011-.021q.043-.344.1-.682a4.968,4.968,0,0,1,.167-.671,1.694,1.694,0,0,1-.086-.559,2.4,2.4,0,0,1,.129-.784.946.946,0,0,1-.064-.333,2.077,2.077,0,0,1,.016-.258,1.242,1.242,0,0,0,.005-.258.48.48,0,0,0,.177-.15.647.647,0,0,1,.167-.161.694.694,0,0,1,.542.215.755.755,0,0,1,.22.548.885.885,0,0,1-.14.473,2.313,2.313,0,0,1,.043.473,5.929,5.929,0,0,1-.054.795,4.31,4.31,0,0,0-.032.806.87.87,0,0,0-.059.365,2.238,2.238,0,0,1-.016.365,2.461,2.461,0,0,1-.064.306,1.571,1.571,0,0,0-.054.306q-.011.247-.016.494a2.246,2.246,0,0,1-.059.473.491.491,0,0,1-.059.145.509.509,0,0,0-.059.134,1.771,1.771,0,0,0-.027.457,2.913,2.913,0,0,1-.005.467.77.77,0,0,1-.038.15.476.476,0,0,0-.027.161.353.353,0,0,0,.021.107,16.327,16.327,0,0,0,1.944-.29q.967-.2,1.944-.354a.6.6,0,0,0,.075-.29.487.487,0,0,0-.032-.172,5.576,5.576,0,0,0,.167-.714q.059-.36.1-.714t.075-.714q.032-.36.086-.714l.064-.365a2.844,2.844,0,0,1,.086-.354q.021-.064.048-.129a.31.31,0,0,0,.027-.118.077.077,0,0,0-.059-.075q-.059-.021-.059-.054a.025.025,0,0,1,.016-.027.024.024,0,0,1,.027.005.523.523,0,0,0,.064-.2q.011-.107.016-.215a1.34,1.34,0,0,1,.027-.209.472.472,0,0,1,.086-.188.453.453,0,0,0-.043-.14.332.332,0,0,1-.032-.15.013.013,0,0,1,0-.021,1.215,1.215,0,0,0,.027-.167q.005-.07.005-.167a.231.231,0,0,1,.118-.2,2.175,2.175,0,0,1-.075-.4q-.021-.215-.021-.419a.783.783,0,0,1,.134-.467.51.51,0,0,1,.446-.188.745.745,0,0,1,.306.064.646.646,0,0,1,.242.183,2.181,2.181,0,0,1,.054.462,2.392,2.392,0,0,1-.016.285,2.392,2.392,0,0,0-.016.285,1.068,1.068,0,0,0,.021.22q.021.1.043.209a1.059,1.059,0,0,0-.14.333,2.572,2.572,0,0,0-.059.376q-.016.193-.021.392t-.016.36a6.428,6.428,0,0,1-.1.7q-.07.344-.156.688a.823.823,0,0,1,.032.215,1.381,1.381,0,0,1-.054.381.938.938,0,0,0-.032.371,1.533,1.533,0,0,0-.1.392q-.021.2-.032.414l-.021.419a1.5,1.5,0,0,1-.075.4.089.089,0,0,0,.081.059q.059.005.038.091a1.686,1.686,0,0,1,.526-.07q.279.005.526.005.161,0,.322-.005a1.977,1.977,0,0,0,.322-.038q.161-.043.328-.1a.976.976,0,0,1,.328-.059.4.4,0,0,1,.344.161q.021.118.032.236T156.488,13.208Zm4.779,4.329a.47.47,0,0,1-.118.312,2.967,2.967,0,0,0-.2.269.874.874,0,0,1-.285.091,1.316,1.316,0,0,0-.285.07.249.249,0,0,0-.118.075.389.389,0,0,1-.172-.07.533.533,0,0,0-.172-.081,1.1,1.1,0,0,0-.306-.054.38.38,0,0,1-.274-.107,1.2,1.2,0,0,1-.252-.4,3,3,0,0,1-.161-.526,5.056,5.056,0,0,1-.086-.553q-.027-.274-.027-.478a5.539,5.539,0,0,1,.043-.687,4.977,4.977,0,0,1,.129-.666V14.68a.658.658,0,0,1,.005-.091.658.658,0,0,0,.005-.091.391.391,0,0,0-.005-.064.08.08,0,0,0-.038-.054,3.688,3.688,0,0,0,.2-.73q.064-.376.1-.757t.086-.763a5.73,5.73,0,0,1,.145-.747q-.011-.064-.016-.14t-.005-.14a1.706,1.706,0,0,1,.043-.381,2.3,2.3,0,0,0,.054-.392.422.422,0,0,0,0-.134.954.954,0,0,1-.011-.145,8.668,8.668,0,0,1,.048-.924,8.565,8.565,0,0,0,.048-.913,2.971,2.971,0,0,0-.038-.478,2.9,2.9,0,0,1-.038-.467,2,2,0,0,1,.011-.209.436.436,0,0,1,.064-.188.967.967,0,0,1,.559-.161.661.661,0,0,1,.408.129.15.15,0,0,0-.011.064.4.4,0,0,0,.011.1.4.4,0,0,1,.011.1v.043a.1.1,0,0,1-.011.043.845.845,0,0,1,.1.274,1.619,1.619,0,0,1,.027.3q0,.14-.011.274t-.011.274q0,.193.005.387t.005.387q0,.516-.048,1.015t-.07,1.015a5.225,5.225,0,0,1-.113.859,6.136,6.136,0,0,0-.124.849.873.873,0,0,0-.005.167q.005.081.005.177a1.306,1.306,0,0,1-.1.489,1.361,1.361,0,0,0-.1.51.551.551,0,0,0,.043.226,2.734,2.734,0,0,0-.113.408q-.048.236-.086.489t-.059.494q-.021.242-.021.424a2.184,2.184,0,0,0,.064.521,1.411,1.411,0,0,0,.215.478.9.9,0,0,0,.258.032q.15,0,.3.011a1.136,1.136,0,0,1,.279.054.326.326,0,0,1,.193.172.1.1,0,0,1,.011.043Zm14.371-6.843a1.149,1.149,0,0,1-.059.354,1.762,1.762,0,0,1-.145.333.619.619,0,0,0-.252.1.828.828,0,0,1-.177.1,1.837,1.837,0,0,1-.328.016q-.188-.005-.338.005-.29.021-.575.064t-.564.107a.177.177,0,0,0-.043.005.025.025,0,0,0-.021.027.1.1,0,0,0,.011.043.1.1,0,0,1,.011.043q0,.032-.064.032a.169.169,0,0,1-.161-.075q-.344.086-.687.177t-.687.177l-.338.064a3.126,3.126,0,0,0-.338.086.6.6,0,0,0-.172.075l-.172.107q-.054-.011-.1-.016a.692.692,0,0,0-.086-.005,1.29,1.29,0,0,0-.741.258h-.075a.26.26,0,0,1-.15-.032q-.1-.011-.118.059a.3.3,0,0,1-.075.124,4.1,4.1,0,0,0-.72.129q-.354.1-.7.209l-.693.226a5.469,5.469,0,0,1-.7.177,2.539,2.539,0,0,0-.043.494,3.753,3.753,0,0,0,.038.494,1.107,1.107,0,0,0,.167.473v.021a.077.077,0,0,1-.043.075.077.077,0,0,0-.043.075,2.258,2.258,0,0,0,.059.526q.059.247.124.483t.124.473a1.986,1.986,0,0,1,.059.483q0,.064-.005.124t-.016.124a.356.356,0,0,0,.107.161.652.652,0,0,1,.129.15.5.5,0,0,1,.011.1v.107a1.1,1.1,0,0,1-.043.322,1.558,1.558,0,0,1-.107.263q-.064.124-.14.247a2.173,2.173,0,0,0-.14.274.924.924,0,0,1-.172.021.4.4,0,0,1-.263-.086.846.846,0,0,1-.177-.209q-.075-.124-.145-.252a.782.782,0,0,0-.167-.215q.011-.054.016-.1a.784.784,0,0,0,.005-.1,1.286,1.286,0,0,0-.07-.419,3.785,3.785,0,0,0-.156-.387,4.768,4.768,0,0,0-.258-1.418q.021-.129.032-.252t.011-.242a6.051,6.051,0,0,0-.032-.623,3.621,3.621,0,0,1-.011-.623.671.671,0,0,0-.064-.091.324.324,0,0,1-.054-.091h-.043a1.769,1.769,0,0,0-.312.027,1.708,1.708,0,0,1-.3.027.785.785,0,0,1-.1-.005q-.043-.005-.1-.016a.851.851,0,0,1-.183-.269.783.783,0,0,1-.064-.312.758.758,0,0,1,.129-.43q.269-.064.532-.156a3.78,3.78,0,0,0,.51-.22,1.977,1.977,0,0,0,.038-.322.513.513,0,0,1,.113-.3.435.435,0,0,0-.1-.156.227.227,0,0,1-.07-.167.6.6,0,0,1,.021-.14.664.664,0,0,0,.15-.3q.043-.183.075-.387t.07-.408a1.086,1.086,0,0,1,.134-.365,1.365,1.365,0,0,1-.032-.188,1.807,1.807,0,0,1-.011-.188,2.208,2.208,0,0,1,.016-.263,1.131,1.131,0,0,1,.059-.252,1.182,1.182,0,0,1-.193-.328.993.993,0,0,1-.075-.371.428.428,0,0,1,.344-.451q-.011-.043-.016-.075a.391.391,0,0,1-.005-.064.339.339,0,0,1,.054-.183.962.962,0,0,0,.086-.172.682.682,0,0,1-.054-.236.367.367,0,0,1,.032-.156.882.882,0,0,0,.054-.156,1.9,1.9,0,0,0,.048-.193.4.4,0,0,1,.059-.15.268.268,0,0,1,.113-.1.558.558,0,0,1,.22-.032.819.819,0,0,1,.457.145,1.141,1.141,0,0,1,.338.328.72.72,0,0,0,.209-.048l.172-.07q.081-.032.172-.059a.607.607,0,0,1,.22-.016.178.178,0,0,1,.113-.1,1.26,1.26,0,0,1,.167-.043.766.766,0,0,0,.161-.048.164.164,0,0,0,.1-.118.157.157,0,0,0,.1.032.372.372,0,0,0,.107-.016.41.41,0,0,1,.118-.016.146.146,0,0,1,.107.043,2.291,2.291,0,0,1,.6-.22,3.472,3.472,0,0,1,.628-.081,5.138,5.138,0,0,1,1.563-.559,9.142,9.142,0,0,1,1.649-.15q.118,0,.231-.005a.9.9,0,0,1,.22.016,1.583,1.583,0,0,1,.263.075,2.568,2.568,0,0,1,.29.129,2.323,2.323,0,0,1,.274.167,2.7,2.7,0,0,1,.215.167.923.923,0,0,1,.086.376,1.26,1.26,0,0,1-.011.167,1.26,1.26,0,0,0-.011.167.928.928,0,0,0,.054.29.377.377,0,0,0-.107-.011.284.284,0,0,0-.161.043.773.773,0,0,0-.118.1q-.054.054-.1.1a.142.142,0,0,1-.091.043.3.3,0,0,1-.145-.032q-.059-.032-.118-.07a.81.81,0,0,0-.124-.064.292.292,0,0,0-.15-.016V7.182a.157.157,0,0,0-.075-.156.276.276,0,0,1-.118-.113,2.326,2.326,0,0,1-.317-.043,1.56,1.56,0,0,0-.317-.032.4.4,0,0,0-.333.15.324.324,0,0,1-.091-.054.12.12,0,0,0-.1-.021h-.032a5.257,5.257,0,0,0-1.139.124q-.559.124-1.106.3t-1.1.381q-.548.2-1.1.354a.924.924,0,0,1-.269.252,2.14,2.14,0,0,1-.274.134l-.263.107a.537.537,0,0,0-.22.172.844.844,0,0,0-.14.328,2.121,2.121,0,0,0-.027.575.277.277,0,0,0-.064.14q-.011.075-.021.145a.815.815,0,0,1-.032.134.3.3,0,0,1-.075.118q.021.107.032.215t.011.215a2.648,2.648,0,0,1-.15.881.357.357,0,0,1,.054.193.677.677,0,0,1-.032.215.677.677,0,0,0-.032.215.387.387,0,0,0,.043.193q.064,0,.075.043h.064a.57.57,0,0,0,.333-.1.518.518,0,0,1,.3-.1.173.173,0,0,1,.075.021.173.173,0,0,0,.075.021q.075,0,.064-.054t.054-.075l.387-.064q.365-.064.693-.156a2.894,2.894,0,0,0,.65-.274.433.433,0,0,0,.172.032.683.683,0,0,0,.183-.027.683.683,0,0,1,.183-.027.268.268,0,0,1,.118.021.56.56,0,0,1,.161-.07.135.135,0,0,0,.107-.124h.021a.088.088,0,0,1,.064.021.088.088,0,0,0,.064.021h.043a2.808,2.808,0,0,1,.408-.161q.3-.075.645-.134a1.9,1.9,0,0,0,.612-.209,1.846,1.846,0,0,0,.607-.1,1.815,1.815,0,0,1,.6-.1.749.749,0,0,1,.258.043.7.7,0,0,1,.252-.107.529.529,0,0,0,.242-.118q.064.011.134.016t.145.005a2.08,2.08,0,0,0,.618-.091,3.818,3.818,0,0,1,.607-.134.474.474,0,0,1,.1.177A.663.663,0,0,1,175.638,10.694Zm10.257-3.932a.431.431,0,0,1-.183.064q-.1.011-.2.027a.962.962,0,0,0-.188.048.231.231,0,0,0-.129.118,1.159,1.159,0,0,0-.236-.183q-.129-.075-.258-.161a1.344,1.344,0,0,0-.215.086.477.477,0,0,1-.215.054.258.258,0,0,1-.15-.054.694.694,0,0,1-.2.1q-.113.038-.236.07a1.054,1.054,0,0,0-.226.086.3.3,0,0,0-.145.161q-.021-.054-.1-.032t-.091-.054q-.344.118-.7.2t-.709.183q-.354.1-.7.215a4.57,4.57,0,0,0-.666.29.044.044,0,0,0-.011.032.641.641,0,0,0,.032.2q.032.1.054.183a7.062,7.062,0,0,0-.258,1.332q-.064.677-.172,1.332v.043a.089.089,0,0,0,.043.081.1.1,0,0,1,.043.091l-.011.021A.172.172,0,0,0,180,11.4a.359.359,0,0,0-.021.124.587.587,0,0,0,.021.129,6.441,6.441,0,0,0-.242,1.246q-.059.634-.145,1.268l-.1.709q-.021.064-.038.124a.467.467,0,0,0-.016.124,4.594,4.594,0,0,0,.048.671,3.214,3.214,0,0,1,.027.671.538.538,0,0,1,.1.29q0,.054-.005.107t-.016.107a.793.793,0,0,0,.328.2.955.955,0,0,1,.338.188V17.4a.692.692,0,0,1-.032.209,1.994,1.994,0,0,0-.054.209q-.021.086-.048.247a.508.508,0,0,1-.07.215.487.487,0,0,1-.156.134.4.4,0,0,1-.2.059.214.214,0,0,1-.091-.032q-.059-.032-.091-.054a.287.287,0,0,0-.14.054.322.322,0,0,1-.172.054.463.463,0,0,1-.075-.005.275.275,0,0,1-.075-.027.554.554,0,0,0-.124-.188,1.4,1.4,0,0,0-.188-.156.3.3,0,0,0-.054-.226,1.129,1.129,0,0,1-.129-.193q-.021-.15-.038-.344a.331.331,0,0,0-.167-.279.345.345,0,0,0,.054-.2.49.49,0,0,0-.016-.118.15.15,0,0,0-.07-.1v-.021a.069.069,0,0,1,.038-.081.087.087,0,0,0,.048-.081v-.043a3.36,3.36,0,0,1-.075-.72q0-.354.021-.7a5.764,5.764,0,0,0,0-.7.36.36,0,0,0,.1-.172,1.707,1.707,0,0,0,.059-.258,2.443,2.443,0,0,0,.027-.274q.005-.134.016-.22a11.282,11.282,0,0,1,.172-1.208,7.61,7.61,0,0,0,.14-1.219.494.494,0,0,0,.064-.226q.011-.14.011-.3a2.161,2.161,0,0,1,.021-.306.685.685,0,0,1,.086-.258,3.506,3.506,0,0,1,.054-.607,3.567,3.567,0,0,0,.054-.618,1.588,1.588,0,0,0-.032-.312.528.528,0,0,0-.193-.043.661.661,0,0,0-.242.048.331.331,0,0,0-.177.145,2.007,2.007,0,0,0-.462.075,1.636,1.636,0,0,1-.451.064h-.107a.5.5,0,0,1-.1-.011,1.141,1.141,0,0,1-.156.054q-.081.021-.07.129a2.883,2.883,0,0,0-.65.14q-.317.107-.628.231t-.628.231a2.883,2.883,0,0,1-.65.14.283.283,0,0,0-.15.226.928.928,0,0,1-.4-.118,2.634,2.634,0,0,0-.376-.183,1.564,1.564,0,0,1-.064-.43,1.28,1.28,0,0,1,.107-.516.713.713,0,0,1,.344-.365q.054.011.1.016a.785.785,0,0,0,.1.005.973.973,0,0,0,.344-.064,1,1,0,0,1,.354-.064.267.267,0,0,1,.118.032A.713.713,0,0,1,175.3,8l.215-.054a.678.678,0,0,0,.188-.081.23.23,0,0,0,.107-.15.254.254,0,0,0,.118.054.783.783,0,0,0,.129.011.861.861,0,0,0,.29-.054.485.485,0,0,0,.236-.172.27.27,0,0,0,.215.086.6.6,0,0,0,.3-.081.584.584,0,0,1,.285-.081.185.185,0,0,1,.161.075.871.871,0,0,1,.279-.15q.161-.054.328-.1a3.2,3.2,0,0,0,.312-.1.564.564,0,0,0,.231-.15.973.973,0,0,0,.172.011,1.246,1.246,0,0,0,.349-.048q.167-.048.338-.091l.226-.021a.384.384,0,0,0,.156-.054,1.113,1.113,0,0,1,.145-.075,1.141,1.141,0,0,1,.156-.054.579.579,0,0,1,.2-.011,2.421,2.421,0,0,1,.548-.215q.29-.075.591-.134t.591-.14a2.078,2.078,0,0,0,.548-.242h.032a1.248,1.248,0,0,0,.424-.075,1.635,1.635,0,0,0,.392-.2.2.2,0,0,0,.064.011h.075a2.015,2.015,0,0,0,.585-.086,2.052,2.052,0,0,1,.6-.086.718.718,0,0,1,.29.048.873.873,0,0,1,.193.118q.086.07.183.134a.712.712,0,0,0,.247.1.826.826,0,0,1,.1.392Q185.884,6.548,185.895,6.763Zm9.052.881a1.578,1.578,0,0,1-.054.414,3.671,3.671,0,0,0-.086.414.184.184,0,0,0-.011.075.69.69,0,0,0,.011.124.584.584,0,0,0,.032.113,1.975,1.975,0,0,0-.161.457q-.054.242-.1.489l-.086.494a3.661,3.661,0,0,1-.118.483v.032a.179.179,0,0,0,.027.1.179.179,0,0,1,.027.1v.043a6.614,6.614,0,0,0-.215.929,3.8,3.8,0,0,1-.247.886.9.9,0,0,1,.021.161.744.744,0,0,1-.027.209.775.775,0,0,1-.07.167l-.075.14a.808.808,0,0,0-.054.14.353.353,0,0,0-.011.086v.086q-.011.247-.021.43a.834.834,0,0,1-.15.4,3.679,3.679,0,0,1-.059.537,4.37,4.37,0,0,1-.134.526q-.054.215-.129.43a2.358,2.358,0,0,0-.107.43.9.9,0,0,0-.005.263,2.7,2.7,0,0,1,.016.274q0,.247-.016.489a2.825,2.825,0,0,1-.07.467.853.853,0,0,0,.118.3.717.717,0,0,1,.107.3.093.093,0,0,0,.064.032.132.132,0,0,0,.048-.011.158.158,0,0,1,.059-.011.088.088,0,0,1,.064.021.438.438,0,0,1,.032.15.285.285,0,0,1-.118.226.676.676,0,0,1,.011.107v.107a1.489,1.489,0,0,1-.016.193q-.016.118-.124.118-.054,0-.048-.059a.072.072,0,0,0-.048-.081.354.354,0,0,1-.107.021.269.269,0,0,1-.14-.032l-.107-.064a1.12,1.12,0,0,0-.113-.059.267.267,0,0,0-.145-.016,2.914,2.914,0,0,0-.188-.306,1.622,1.622,0,0,0-.231-.263,2.4,2.4,0,0,1-.091-.532,1.693,1.693,0,0,0-.113-.521.248.248,0,0,0,.032-.064l.043-.107q.021-.054.038-.107a.313.313,0,0,0,.016-.075.276.276,0,0,0-.021-.113.484.484,0,0,1-.032-.1,2.468,2.468,0,0,0,.1-.537,1.224,1.224,0,0,1,.14-.5q.011-.107.021-.252a2.284,2.284,0,0,1,.038-.279,1.528,1.528,0,0,1,.075-.258.538.538,0,0,1,.145-.209.418.418,0,0,1-.027-.124q-.005-.07-.005-.124a2.1,2.1,0,0,1,.059-.5q.059-.242.134-.489.021-.075.048-.15t.048-.161a.061.061,0,0,0,.005-.043.176.176,0,0,1-.005-.043.935.935,0,0,0-.032-.247.206.206,0,0,0,.086-.113,1.535,1.535,0,0,0,.038-.15q.016-.081.038-.156a.293.293,0,0,1,.075-.129v-.054a2.559,2.559,0,0,1,.107-.736q.107-.36.193-.714v-.043a.088.088,0,0,0-.021-.064.088.088,0,0,1-.021-.064V10.9a1.621,1.621,0,0,1,.054-.188,1.621,1.621,0,0,0,.054-.188,3.073,3.073,0,0,0,.07-.473,1.6,1.6,0,0,1,.1-.462.706.706,0,0,1-.021-.172V9.244a4.139,4.139,0,0,1,.027-.478,4.4,4.4,0,0,1,.081-.467q.021-.086.059-.226a.9.9,0,0,0,.038-.215,1.125,1.125,0,0,0-.032-.263,1.125,1.125,0,0,1-.032-.263.783.783,0,0,1,.011-.129.254.254,0,0,1,.054-.118.669.669,0,0,1-.075-.322,1.148,1.148,0,0,1,.043-.306.585.585,0,0,1,.15-.263h.322a1.09,1.09,0,0,1,.3.043.354.354,0,0,1,.226.193.516.516,0,0,1,.048.113q.027.081.054.172t.048.172a.521.521,0,0,1,.021.124.451.451,0,0,1-.064.236.37.37,0,0,1,.091.188A1.341,1.341,0,0,1,194.947,7.644Zm12.223,4.705a6.92,6.92,0,0,1-.124,1.316q-.124.639-.3,1.284a1,1,0,0,0-.183.242.554.554,0,0,0-.054.3.23.23,0,0,0-.172.156,1.943,1.943,0,0,1-.1.231,1.468,1.468,0,0,0-.317.274q-.134.156-.285.306a.722.722,0,0,0-.081.1.374.374,0,0,1-.081.086,1.284,1.284,0,0,1-.215.134,2,2,0,0,0-.215.124q-.215.14-.419.3a4.974,4.974,0,0,0-.4.338,8.018,8.018,0,0,0-.886.414q-.424.231-.843.51h-.269a2.368,2.368,0,0,1-.258.14.67.67,0,0,1-.279.054,2.228,2.228,0,0,1-.473.231q-.258.091-.526.167t-.537.14a4.659,4.659,0,0,0-.5.15.849.849,0,0,1-.1-.027.321.321,0,0,0-.1-.016.583.583,0,0,0-.274.064,1.1,1.1,0,0,1-.263.1.173.173,0,0,1-.1.016q-.054-.005-.1-.005a1.335,1.335,0,0,1-.5-.091,2.817,2.817,0,0,0-.483-.145,1.05,1.05,0,0,0-.183-.269l-.236-.258a2.324,2.324,0,0,1-.209-.263.678.678,0,0,1-.113-.3v-.107a1.318,1.318,0,0,0-.021-.236q-.021-.118-.054-.236.075-.193.15-.408t.161-.424a3.8,3.8,0,0,1,.193-.4,1.221,1.221,0,0,1,.269-.333,1.59,1.59,0,0,1,.167-.435,4.41,4.41,0,0,1,.247-.387q.134-.188.263-.381a2.1,2.1,0,0,0,.215-.419q.054.011.07-.021t.032-.07a.187.187,0,0,1,.038-.059q.021-.021.086,0a.333.333,0,0,1,.043-.177q.043-.07.091-.134a1.066,1.066,0,0,0,.086-.134.454.454,0,0,0,.048-.167.3.3,0,0,0,.124-.1q.048-.064.091-.134t.086-.134a.258.258,0,0,1,.129-.1.687.687,0,0,1,.081-.242,1.446,1.446,0,0,1,.129-.188q.07-.086.14-.177a.782.782,0,0,0,.113-.209.161.161,0,0,1,.15-.032,3.6,3.6,0,0,1,.354-.569q.2-.269.419-.526t.43-.521a3.766,3.766,0,0,0,.376-.553,1.573,1.573,0,0,0,.285-.209,1.065,1.065,0,0,0,.22-.285q-.215-.408-.376-.79a2.2,2.2,0,0,1-.161-.865,1.063,1.063,0,0,1,.011-.15q.011-.075.021-.161a3.344,3.344,0,0,1,.354-.414.7.7,0,0,1,.5-.167,1.731,1.731,0,0,1,.628.118,1.731,1.731,0,0,0,.628.118,2.965,2.965,0,0,0,.328.209q.167.091.349.177l.14.054a.735.735,0,0,1,.15.054q.064.043.134.1t.134.107a7.375,7.375,0,0,1,.8.768q.371.414.736.843v.021a.4.4,0,0,0,.075.263q.075.091.161.209a1.019,1.019,0,0,0,.054.344,2.33,2.33,0,0,0,.14.312q0,.15.005.306a1.27,1.27,0,0,0,.048.306,1.029,1.029,0,0,1,.054.161,1.442,1.442,0,0,1,.043.387Zm-.87-.011a4.076,4.076,0,0,0-.038-.575q-.038-.263-.091-.564-.043-.258-.1-.516a2.375,2.375,0,0,0-.172-.494,1.744,1.744,0,0,0-.29-.43,1.648,1.648,0,0,0-.435-.333h-.032q-.032,0-.07.048a.192.192,0,0,1-.156.048.3.3,0,0,1-.124-.027.182.182,0,0,0-.113-.016h-.043a1.768,1.768,0,0,1-.226.1.547.547,0,0,1-.247.011,3.06,3.06,0,0,1-.338.274,1.368,1.368,0,0,1-.392.188,1.23,1.23,0,0,1-.247.338.792.792,0,0,1-.365.2.629.629,0,0,1-.124.22,1.076,1.076,0,0,1-.177.161q-.1.07-.2.134a1.339,1.339,0,0,0-.193.14.747.747,0,0,0-.134.177.585.585,0,0,1-.134.167q-.118.107-.209.2a1.707,1.707,0,0,0-.177.226q-.075.118-.145.236a.6.6,0,0,0-.081.269,1.423,1.423,0,0,0-.494.473l-.365.58a2.274,2.274,0,0,1-.15.193l-.15.172a.19.19,0,0,0-.038.1.361.361,0,0,0,.005.107,1.15,1.15,0,0,0-.258.252,2.991,2.991,0,0,0-.2.306q-.091.161-.193.317a1.264,1.264,0,0,1-.242.274q-.086.215-.2.435a1.157,1.157,0,0,1-.3.371q-.183.451-.349.892a4.157,4.157,0,0,0-.231.924,1.691,1.691,0,0,0,.15.134,1.691,1.691,0,0,1,.15.134.062.062,0,0,0,.043.011.1.1,0,0,0,.081-.032.087.087,0,0,1,.07-.032h.021l.021.011a.14.14,0,0,0,.064.107.421.421,0,0,0,.129.048q.075.016.15.027a.2.2,0,0,1,.118.054,3.018,3.018,0,0,1,.526-.113q.29-.038.575-.086a4.022,4.022,0,0,0,.553-.134,1.36,1.36,0,0,0,.462-.247h.118a.21.21,0,0,1,.15.043,1.719,1.719,0,0,1,.408-.312,1.119,1.119,0,0,1,.483-.118,3.386,3.386,0,0,1,.929-.607,9.593,9.593,0,0,0,.994-.51.08.08,0,0,0,.054-.081.063.063,0,0,1,.054-.07.276.276,0,0,1,.091-.005.571.571,0,0,0,.081.005q.376-.365.725-.747a5.067,5.067,0,0,0,.618-.833.511.511,0,0,1,.016-.134.429.429,0,0,0,.016-.113.132.132,0,0,0-.011-.048q-.011-.027-.021-.048a3.465,3.465,0,0,0,.306-.918A5.228,5.228,0,0,0,206.3,12.338Zm-2.481-3.867a1.8,1.8,0,0,0-.333-.177.951.951,0,0,0-.365-.081.315.315,0,0,0-.263.1.43.43,0,0,0-.081.274.223.223,0,0,0,.054.156.258.258,0,0,1,.021.22.153.153,0,0,0,.086.021.59.59,0,0,0,.247-.054,1.066,1.066,0,0,0,.22-.134q.1-.081.2-.172A1.379,1.379,0,0,1,203.818,8.471ZM220.2,7.278a1.935,1.935,0,0,1-.14.725,3.607,3.607,0,0,0-.2.714q-.236.312-.44.645t-.419.666q-.215.333-.451.639a3.412,3.412,0,0,1-.537.553.062.062,0,0,1,.011.043.116.116,0,0,1-.059.1.07.07,0,0,0-.038.091l-.526.548a3.984,3.984,0,0,0-.473.6.914.914,0,0,0-.387.387.148.148,0,0,0-.1.027.319.319,0,0,1-.086.048q-.344.419-.72.795a6.7,6.7,0,0,1-.806.688q-.161.118-.322.215t-.312.2a1.441,1.441,0,0,0-.188.15q-.091.086-.188.161a4.252,4.252,0,0,1-.612.446,2,2,0,0,1-.709.242.978.978,0,0,0-.032.258v.258q0,.129-.011.263a.626.626,0,0,1-.075.252v.032a.445.445,0,0,0,.054.209.445.445,0,0,1,.054.209.156.156,0,0,1-.075.129h.279a.385.385,0,0,0,.091.258.311.311,0,0,1,.091.161,2.409,2.409,0,0,1-.038.4.359.359,0,0,1-.22.3v.064a1.014,1.014,0,0,1-.021.209.488.488,0,0,1-.1.2q-.064,0-.124.005t-.113.005a1.523,1.523,0,0,1-.806-.215,2.173,2.173,0,0,1-.156-.575,4.716,4.716,0,0,1-.038-.6,7.978,7.978,0,0,1,.086-1.171q.086-.58.14-1.16l.161-.312a5.974,5.974,0,0,1,.075-.607q.054-.306.107-.607t.091-.6a3.76,3.76,0,0,0,.027-.6,1.574,1.574,0,0,0,.124-.387,2.192,2.192,0,0,0,.038-.4q0-.107-.011-.215a.523.523,0,0,0-.064-.2.207.207,0,0,0,.086-.107.381.381,0,0,1,.064-.118q.032-.419.054-.833t.021-.822q0-.226-.011-.446t-.032-.446q-.011-.086-.038-.2a.889.889,0,0,1-.027-.183,1.518,1.518,0,0,1,.011-.177,1.609,1.609,0,0,0,.011-.188,1.014,1.014,0,0,0-.021-.209.575.575,0,0,0-.075-.188,3.735,3.735,0,0,0-.924.4q-.408.252-.827.564-.172.118-.376.279a2.031,2.031,0,0,1-.387.247.179.179,0,0,1-.081.027.753.753,0,0,1-.081.005,1.312,1.312,0,0,1-.215-.016,1.174,1.174,0,0,0-.193-.016,1.1,1.1,0,0,0-.354-.236,1.15,1.15,0,0,1-.032-.279,1.533,1.533,0,0,1,.027-.29,1.639,1.639,0,0,1,.081-.279q.129-.043.274-.1a2.447,2.447,0,0,0,.279-.124,1.291,1.291,0,0,0,.242-.161.662.662,0,0,0,.172-.231.267.267,0,0,0,.118.032.4.4,0,0,0,.1-.011l.1-.021q.193-.118.392-.247a2.389,2.389,0,0,1,.414-.215q.064-.021.075-.054a.214.214,0,0,0,0-.1q.247-.075.516-.177a1.262,1.262,0,0,0,.451-.285h.193a1.627,1.627,0,0,1,.344-.193q.183-.075.371-.145t.371-.15a1.551,1.551,0,0,0,.344-.209.353.353,0,0,1,.107-.021.376.376,0,0,1,.118.021.7.7,0,0,0,.183-.129l.172-.172a1.388,1.388,0,0,0,.312-.032,1.678,1.678,0,0,0,.269-.086,2.348,2.348,0,0,0,.252-.124q.124-.07.274-.145a.3.3,0,0,1,.1.048.169.169,0,0,0,.107.027.814.814,0,0,1,.231-.113,1.989,1.989,0,0,1,.252-.059q.129-.021.252-.054a.528.528,0,0,0,.22-.118q.344,0,.693-.016t.693-.016a6.883,6.883,0,0,1,1,.075,2.021,2.021,0,0,1,.918.376,1.786,1.786,0,0,0,.462.655q.021.118.048.22a1.308,1.308,0,0,0,.07.2.828.828,0,0,0-.075.354,1.939,1.939,0,0,0,.038.381A1.886,1.886,0,0,1,220.2,7.278Zm-1-.258a.612.612,0,0,1-.07-.22,1.1,1.1,0,0,1-.005-.242.7.7,0,0,1-.215-.279.551.551,0,0,0-.215-.258.655.655,0,0,0-.274-.064,1.488,1.488,0,0,1-.3-.043.545.545,0,0,1-.188-.086.318.318,0,0,0-.2-.043,1.261,1.261,0,0,0-.258.027,1.261,1.261,0,0,1-.258.027.5.5,0,0,1-.2-.043.5.5,0,0,0-.2-.043.364.364,0,0,0-.22.075.282.282,0,0,1-.242.043q-.064.054-.07.086a.127.127,0,0,1-.016.048q-.011.016-.054.016h-.15a1.693,1.693,0,0,0-.457.064,1.114,1.114,0,0,0-.414.215.5.5,0,0,0-.059-.016.3.3,0,0,0-.059-.005.658.658,0,0,0-.349.1.7.7,0,0,1-.371.1.941.941,0,0,1-.312.2q-.183.075-.371.145a2.406,2.406,0,0,0-.349.161.606.606,0,0,0-.247.263q-.011.086.054.107a.1.1,0,0,1,.064.107.774.774,0,0,1-.027.183.883.883,0,0,0-.027.215,2.174,2.174,0,0,0,.054.483q.054.236.107.483a.171.171,0,0,0-.075.1.171.171,0,0,1-.075.1,2.9,2.9,0,0,1,.15.924,3.358,3.358,0,0,1-.081.736,5.523,5.523,0,0,0-.113.736v.011a.087.087,0,0,0,.043.086.077.077,0,0,1,.043.075.12.12,0,0,1-.011.054q-.118.73-.231,1.461t-.188,1.472h.086a.807.807,0,0,0,.5-.167,1.817,1.817,0,0,0,.371-.371h.172q.773-.677,1.488-1.4A17.2,17.2,0,0,0,216.74,11.1a.139.139,0,0,0,.118-.043.2.2,0,0,1,.107-.064q.226-.312.473-.618a6.342,6.342,0,0,1,.537-.585.489.489,0,0,1,.059-.193,1.768,1.768,0,0,1,.1-.161,1.2,1.2,0,0,0,.1-.161.452.452,0,0,0,.043-.2l.118-.048a.366.366,0,0,0,.118-.081.574.574,0,0,1,.075-.193.357.357,0,0,0,.054-.193.353.353,0,0,0-.021-.107.561.561,0,0,0,.269-.247,1.569,1.569,0,0,0,.15-.381,3.407,3.407,0,0,0,.081-.424A1.967,1.967,0,0,1,219.2,7.021Zm10.848-1.858a.768.768,0,0,1-.016.161.353.353,0,0,0,.005.161,1.08,1.08,0,0,0-.462.537.769.769,0,0,0-.279.231,3.358,3.358,0,0,0-.2.3q-.091.156-.188.3a.8.8,0,0,1-.258.242v.236q-.086-.021-.113.016a.176.176,0,0,1-.081.059q-.215.408-.44.811a3.137,3.137,0,0,1-.559.725q-.086.226-.193.44t-.226.43q-.118.215-.226.43a2.55,2.55,0,0,0-.172.44,2.387,2.387,0,0,0-.365.5q-.15.274-.285.548t-.29.542a2.62,2.62,0,0,1-.371.494.235.235,0,0,1-.032.161.247.247,0,0,0-.043.14.932.932,0,0,0,.242.553,5.3,5.3,0,0,0,.575.612q.333.306.666.564l.516.4a4.557,4.557,0,0,0,.494-.242,1.193,1.193,0,0,1,.516-.145.663.663,0,0,1,.242.2.466.466,0,0,1,.091.285.814.814,0,0,1-.15.467,1.541,1.541,0,0,1-.333.36q-.172.032-.344.054a2.769,2.769,0,0,1-.344.021,3.367,3.367,0,0,1-.682-.07q-.338-.07-.671-.156a2.454,2.454,0,0,0-.4-.414,1.9,1.9,0,0,0-.489-.285.475.475,0,0,0-.064-.215.766.766,0,0,0-.129-.156.956.956,0,0,0-.167-.124,1.907,1.907,0,0,1-.177-.118.687.687,0,0,0-.193.091.687.687,0,0,1-.193.091,3.789,3.789,0,0,1-.548.924.365.365,0,0,1-.07.3,1.7,1.7,0,0,1-.231.209,1.646,1.646,0,0,1-.2.559,3.809,3.809,0,0,1-.338.483l.011.086a.114.114,0,0,1-.027.075.137.137,0,0,0-.016.107,1.779,1.779,0,0,0-.269.446q-.107.252-.2.521t-.172.537q-.081.269-.177.5a.551.551,0,0,1,.043.226,1.318,1.318,0,0,1-.021.236,1.318,1.318,0,0,0-.021.236.561.561,0,0,0,.032.188.331.331,0,0,0,.118.156.474.474,0,0,1,.333-.118.837.837,0,0,1,.231.032.989.989,0,0,1,.209.086.346.346,0,0,1,.043.15.245.245,0,0,1-.038.134,1.23,1.23,0,0,1-.086.118q-.048.059-.1.113a.238.238,0,0,0-.059.129,3.747,3.747,0,0,0-.489.075,2.187,2.187,0,0,0-.467.161.569.569,0,0,1-.231-.091.71.71,0,0,0-.231-.1,1.543,1.543,0,0,1-.22-.4,2,2,0,0,0-.209-.408,1.889,1.889,0,0,1,.064-.489q.064-.242.134-.478t.124-.478a1.6,1.6,0,0,0,.032-.489.4.4,0,0,0,.172-.167,1.086,1.086,0,0,0,.1-.247q.038-.134.07-.269a1.756,1.756,0,0,1,.075-.242.494.494,0,0,0,.177-.188.494.494,0,0,1,.177-.188.119.119,0,0,0-.005-.038.119.119,0,0,1-.005-.038.058.058,0,0,0-.021-.027q-.011-.005-.011-.027a.119.119,0,0,0-.005-.038.049.049,0,0,1,.005-.038l.107-.14a1.82,1.82,0,0,0,.226-.36l.172-.381a2.8,2.8,0,0,1,.215-.408q.129-.2.247-.408.279-.5.542-1t.564-.994a.527.527,0,0,1-.14-.156q-.054-.091-.1-.188t-.1-.188a.479.479,0,0,0-.15-.156,12.29,12.29,0,0,0-.51-1.155q-.285-.564-.553-1.123-.1-.2-.177-.414a2.643,2.643,0,0,0-.188-.392q-.032-.054-.075-.043a.069.069,0,0,1-.075-.032q-.086-.247-.15-.44l-.161-.483a.455.455,0,0,1,.193-.312.641.641,0,0,1,.354-.1,1.221,1.221,0,0,1,.344.054,2.356,2.356,0,0,1,.183.231,1.368,1.368,0,0,0,.2.231V9q.312.634.585,1.268t.6,1.268a.355.355,0,0,1,.193.1,1.5,1.5,0,0,1,.14.161,2,2,0,0,0,.134.161.293.293,0,0,0,.2.086.494.494,0,0,0,.129-.145q.086-.124.177-.269t.161-.285a.547.547,0,0,0,.07-.193V11.07A11.271,11.271,0,0,0,226.492,9a.455.455,0,0,0,.172-.145q.064-.091.124-.193t.124-.2a.575.575,0,0,1,.161-.161,1.436,1.436,0,0,1,.172-.419q.118-.193.247-.387t.247-.392a1.787,1.787,0,0,0,.183-.424.39.39,0,0,0,.188-.14,1.473,1.473,0,0,0,.124-.2,1.9,1.9,0,0,1,.118-.2.36.36,0,0,1,.183-.14,1.173,1.173,0,0,1,.29-.58,1.37,1.37,0,0,1,.559-.344l.043-.118a.557.557,0,0,0,.15.038l.209.032a.848.848,0,0,1,.183.048Q230.047,5.1,230.047,5.162Z" transform="translate(-5266 -725)"/>
    <line id="Line_3" data-name="Line 3" y2="153" transform="translate(-5277.5 -884.5)" fill="none" stroke="#000" stroke-width="2" stroke-dasharray="5 5"/>
    <line id="Line_4" data-name="Line 4" y2="520" transform="translate(-5221.5 -1061.5)" fill="none" stroke="#000" stroke-width="2" stroke-dasharray="5 5"/>
    <g id="Group_14" data-name="Group 14" transform="translate(22 5)">
      <g id="Polygon_1" data-name="Polygon 1" transform="translate(-5256 -743) rotate(90)" fill="none">
        <path d="M2.5,0,5,5H0Z" stroke="none"/>
        <path d="M 2.5 2.236069917678833 L 1.618035078048706 4 L 3.381965160369873 4 L 2.5 2.236069917678833 M 2.5 0 L 5 5 L 0 5 L 2.5 0 Z" stroke="none"/>
      </g>
      <line id="Line_5" data-name="Line 5" x2="28" transform="translate(-5288.5 -740.5)" fill="none" stroke="#000" stroke-width="1"/>
    </g>
  </g>
</svg>
